<?xml version="1.0" encoding="utf-8"?>
<!-- Generator: Adobe Illustrator 28.4.1, SVG Export Plug-In . SVG Version: 6.00 Build 0)  -->
<svg version="1.1" id="Layer_1" xmlns="http://www.w3.org/2000/svg" xmlns:xlink="http://www.w3.org/1999/xlink" x="0px" y="0px"
	 viewBox="0 0 680.7 375.2" style="enable-background:new 0 0 680.7 375.2;" xml:space="preserve">
<style type="text/css">
	.st0{fill:#FF5A2E;}
	.st1{fill:#EE4267;}
</style>
<g>
	<path class="st0" d="M272.7,302.5c10.9-8.1,20.5-17.6,28.6-28.2l45.3,19.1l0.4,0.2l27.7-65.6L329,208.7c2-13.1,2.2-26.7,0.3-40.2
		l45.5-18.5l0.4-0.2l-26.8-66l-45.9,18.6c-8-10.9-17.5-20.5-28.2-28.6l19.1-45.2l0.2-0.4L228,0.6l-19.3,45.6
		c-13.3-2-26.9-2.1-40.2-0.3L150,0.4L149.9,0l-66,26.8l18.6,45.9C91.6,80.8,82,90.3,74,100.9L28.7,81.8l-0.4-0.2L0.6,147.2
		l45.7,19.3c-2,13.1-2.2,26.7-0.3,40.2L0.4,225.2L0,225.3l26.8,66l45.9-18.6c8,10.8,17.5,20.5,28.2,28.6l-19.1,45.2l-0.2,0.4
		l65.6,27.7l19.3-45.6c13.3,2,26.8,2.1,40.2,0.3l18.5,45.5l0.2,0.4l66-26.8L272.7,302.5z M227,288.6c-26.2,10.6-55.1,10.7-81.4,0.2
		c-26.2-10.5-47-30.4-58.6-56.1c-0.6-1.3-1.2-2.6-1.7-3.9c-10.9-26.9-10.7-56.5,0.6-83.3c11.3-26.8,32.4-47.5,59.3-58.5
		c26.2-10.6,55.1-10.7,81.4-0.2c26.2,10.5,47,30.4,58.6,56.1c0.6,1.3,1.2,2.6,1.7,4C309.4,202.5,282.6,266,227,288.6z"/>
	<g>
		<path class="st0" d="M276.9,150.8c-0.5-1.2-1-2.4-1.5-3.6c-21.7-48.1-77.1-70.2-126-50.3c-24.2,9.8-43.2,28.5-53.4,52.6
			c-10.2,24.1-10.4,50.7-0.5,74.9c0.5,1.2,1,2.4,1.5,3.6c21.7,48.1,77.1,70.2,126,50.3C273,258,297.2,200.8,276.9,150.8z
			 M219.5,265.8c-43.4,17.6-92.9-3.3-110.5-46.7c-17.6-43.4,3.3-92.9,46.7-110.5c43.4-17.6,92.9,3.3,110.5,46.7
			C283.8,198.7,262.9,248.2,219.5,265.8z"/>
	</g>
</g>
<g>
	<path class="st1" d="M624.6,254.4c6-9.6,10.5-19.9,13.4-30.6l40.9,0.9l0.4,0l1.4-59.2l-41.2-0.9c-2.5-10.8-6.5-21.3-12-31.2
		l29.5-28.2l0.3-0.2l-40.9-42.8l-29.8,28.4c-9.5-6-19.8-10.5-30.6-13.5l0.9-40.8l0-0.4l-59.2-1.4l-0.9,41.2
		c-10.9,2.5-21.4,6.6-31.2,12.1l-28.2-29.5l-0.2-0.3L394.3,99l28.5,29.8c-6,9.6-10.5,19.9-13.5,30.6l-40.9-0.9l-0.4,0l-1.4,59.2
		l41.2,1c2.5,10.8,6.5,21.3,12,31.2l-29.5,28.2l-0.3,0.3l40.9,42.8l29.8-28.4c9.5,5.9,19.8,10.5,30.6,13.5l-0.9,40.8l0,0.4l59.2,1.4
		l1-41.2c10.9-2.5,21.4-6.6,31.2-12.1l28.2,29.5l0.2,0.3l42.8-40.9L624.6,254.4z M585,257.6c-17,16.3-39.4,25.1-62.9,25
		c-23.5-0.1-45.7-9.1-62.5-25.4c-0.8-0.8-1.7-1.7-2.5-2.5c-16.7-17.5-25.6-40.4-25-64.6c0.6-24.2,10.5-46.6,28-63.3
		c17-16.3,39.4-25.2,62.9-25c23.5,0.1,45.7,9.1,62.5,25.4c0.8,0.8,1.7,1.7,2.5,2.5C622.4,165.8,621.1,223.1,585,257.6z"/>
	<g>
		<path class="st1" d="M581.4,135.8c-0.7-0.8-1.5-1.5-2.3-2.3c-31.5-30.5-81.1-30.7-112.9-0.4c-15.7,15-24.7,35.3-25.2,57
			c-0.5,21.7,7.5,42.4,22.5,58.1c0.7,0.8,1.5,1.5,2.3,2.3c31.5,30.5,81.1,30.7,112.9,0.4C611.3,219.9,612.5,168.2,581.4,135.8z
			 M572.3,242.3c-28.2,26.9-72.8,25.9-99.7-2.3c-26.9-28.2-25.9-72.8,2.3-99.7c28.2-26.9,72.8-25.9,99.7,2.3
			C601.5,170.7,600.4,215.4,572.3,242.3z"/>
	</g>
</g>
</svg>
