<?xml version="1.0" encoding="utf-8"?>
<!-- Generator: Adobe Illustrator 28.4.1, SVG Export Plug-In . SVG Version: 6.00 Build 0)  -->
<svg version="1.1" id="Layer_1" xmlns="http://www.w3.org/2000/svg" xmlns:xlink="http://www.w3.org/1999/xlink" x="0px" y="0px"
	 viewBox="0 0 608 511.6" style="enable-background:new 0 0 608 511.6;" xml:space="preserve">
<style type="text/css">
	.st0{fill:#EE4267;}
	.st1{fill:#E4DFEA;}
	.st2{fill:url(#SVGID_1_);}
	.st3{fill:url(#SVGID_00000042716209562339977240000011500686058744686227_);}
	.st4{fill:url(#SVGID_00000094601574680362064180000014622057759860380838_);}
	.st5{fill:url(#SVGID_00000083055609292974930940000003879475289291890101_);}
	.st6{fill:url(#SVGID_00000045594699412148370340000009078872715397527461_);}
	.st7{fill:#D4CEDD;}
	.st8{fill:#FF7042;}
	.st9{fill:#632B6B;}
	.st10{fill:#9D39B5;}
	.st11{fill:#FF5A2E;}
	.st12{opacity:0.5;fill:#FF7357;}
	.st13{fill:#862D9B;}
	.st14{fill:#E53C68;}
	.st15{fill:#1F1647;}
</style>
<g>
	<g>
		<g>
			
				<image style="overflow:visible;opacity:0.1;" width="524" height="535" xlink:href="B2DD9D03.png"  transform="matrix(0.24 0 0 0.24 482.2774 65.04)">
			</image>
			<g>
				<path class="st0" d="M511.7,161.8c-5.1-1.8-8.6-6.4-9-11.8c-3.6-56.6,25.5-79.4,44-65.2c16.4,12.6,4.7,37.5,4.7,37.5
					s27.1-4.7,34.8,14.5C595,158.5,565.3,180.4,511.7,161.8z"/>
			</g>
		</g>
		<g>
			
				<image style="overflow:visible;opacity:0.1;" width="352" height="339" xlink:href="B2DD9D01.png"  transform="matrix(0.24 0 0 0.24 439.7974 45.6)">
			</image>
			<g>
				<path class="st0" d="M474.7,102.2c-2.6,0.4-5.3-0.8-6.7-3c-14.5-23.2-7.5-39.5,3.7-37.8c9.9,1.5,10.7,14.8,10.7,14.8
					s10.4-8.3,18.2-1.9C509.2,81.6,501.7,97.7,474.7,102.2z"/>
			</g>
		</g>
		<g>
			
				<image style="overflow:visible;opacity:0.1;" width="325" height="319" xlink:href="B2DD9D07.png"  transform="matrix(0.24 0 0 0.24 496.4374 0)">
			</image>
			<g>
				<path class="st0" d="M524.4,51.7c-1.7-0.1-3.2-1.2-3.9-2.8c-9.4-22.8-0.6-36.1,8.8-32.8c8.3,2.9,6.8,14.5,6.8,14.5
					s10.3-5.5,16,1.3C558.6,39.5,549.1,52.5,524.4,51.7z"/>
			</g>
		</g>
	</g>
	<g>
		<g>
			<g>
				<path class="st1" d="M208.3,447.4H40.5c-6.6,0-12-5.4-12-12V60.7c0-6.6,5.4-12,12-12h167.8c6.6,0,12,5.4,12,12v374.7
					C220.3,442.1,214.9,447.4,208.3,447.4z"/>
				<g>
					<linearGradient id="SVGID_1_" gradientUnits="userSpaceOnUse" x1="36.104" y1="104.2673" x2="25.2113" y2="104.2673">
						<stop  offset="0" style="stop-color:#7698B7"/>
						<stop  offset="1" style="stop-color:#D3DDE8"/>
					</linearGradient>
					<path class="st2" d="M28.5,113.2h-0.9c-0.4,0-0.7-0.3-0.7-0.7V96.1c0-0.4,0.3-0.7,0.7-0.7h0.9V113.2z"/>
					
						<linearGradient id="SVGID_00000075853337523723673250000004473530624991129270_" gradientUnits="userSpaceOnUse" x1="36.104" y1="146.2178" x2="25.2113" y2="146.2178">
						<stop  offset="0" style="stop-color:#7698B7"/>
						<stop  offset="1" style="stop-color:#D3DDE8"/>
					</linearGradient>
					<path style="fill:url(#SVGID_00000075853337523723673250000004473530624991129270_);" d="M28.5,161h-0.9
						c-0.4,0-0.7-0.3-0.7-0.7v-28.2c0-0.4,0.3-0.7,0.7-0.7h0.9V161z"/>
					
						<linearGradient id="SVGID_00000011739586689159221210000011239290711657279163_" gradientUnits="userSpaceOnUse" x1="211.6797" y1="146.2178" x2="221.6592" y2="146.2178">
						<stop  offset="0.6521" style="stop-color:#7698B7"/>
						<stop  offset="1" style="stop-color:#D3DDE8"/>
					</linearGradient>
					<path style="fill:url(#SVGID_00000011739586689159221210000011239290711657279163_);" d="M220.4,131.5h0.9
						c0.4,0,0.7,0.3,0.7,0.7v28.2c0,0.4-0.3,0.7-0.7,0.7h-0.9V131.5z"/>
					
						<linearGradient id="SVGID_00000168117097125763887510000016784704938204365454_" gradientUnits="userSpaceOnUse" x1="36.104" y1="184.0391" x2="25.2113" y2="184.0391">
						<stop  offset="0" style="stop-color:#7698B7"/>
						<stop  offset="1" style="stop-color:#D3DDE8"/>
					</linearGradient>
					<path style="fill:url(#SVGID_00000168117097125763887510000016784704938204365454_);" d="M28.5,198.8h-0.9
						c-0.4,0-0.7-0.3-0.7-0.7V170c0-0.4,0.3-0.7,0.7-0.7h0.9V198.8z"/>
				</g>
			</g>
			
				<linearGradient id="SVGID_00000132076253423127674790000003442220123617986963_" gradientUnits="userSpaceOnUse" x1="124.3848" y1="404.8682" x2="124.3848" y2="94.7382">
				<stop  offset="6.721920e-03" style="stop-color:#F2F5F8"/>
				<stop  offset="6.331015e-02" style="stop-color:#F4F7F9"/>
				<stop  offset="0.4148" style="stop-color:#FCFDFE"/>
				<stop  offset="1" style="stop-color:#FFFFFF"/>
			</linearGradient>
			
				<rect x="35.8" y="94.7" style="fill:url(#SVGID_00000132076253423127674790000003442220123617986963_);" width="177.2" height="310.1"/>
		</g>
		<g>
			
				<image style="overflow:visible;opacity:0.1;" width="1202" height="390" xlink:href="B2DD9D00.png"  transform="matrix(0.24 0 0 0.24 -20.0426 110.88)">
			</image>
			<g>
				<g>
					<g>
						<path class="st0" d="M45.8,149.1l-6.3,4.8c-0.6,0.5-0.9,1.3-0.7,2.1l2.4,7.7c0.6,1.8-1.5,3.2-3,2.1l-5.9-4.5
							c-0.7-0.5-1.6-0.5-2.3,0l-5.9,4.5c-1.5,1.1-3.6-0.3-3-2.1l2.4-7.7c0.2-0.8,0-1.6-0.7-2.1l-6.3-4.8c-1.5-1.1-0.7-3.5,1.2-3.5
							H25c0.8,0,1.6-0.6,1.8-1.4l2.3-7.4c0.6-1.8,3.1-1.8,3.7,0l2.3,7.4c0.2,0.8,1,1.4,1.8,1.4h7.6C46.4,145.7,47.2,148,45.8,149.1z
							"/>
					</g>
					<g>
						<path class="st0" d="M92.3,149.1l-6.3,4.8c-0.6,0.5-0.9,1.3-0.7,2.1l2.4,7.7c0.6,1.8-1.5,3.2-3,2.1l-5.9-4.5
							c-0.7-0.5-1.6-0.5-2.3,0l-5.9,4.5c-1.5,1.1-3.6-0.3-3-2.1l2.4-7.7c0.2-0.8,0-1.6-0.7-2.1l-6.3-4.8c-1.5-1.1-0.7-3.5,1.2-3.5
							h7.6c0.8,0,1.6-0.6,1.8-1.4l2.3-7.4c0.6-1.8,3.1-1.8,3.7,0l2.3,7.4c0.2,0.8,1,1.4,1.8,1.4h7.6C93,145.7,93.8,148,92.3,149.1z"
							/>
					</g>
					<g>
						<path class="st7" d="M138.9,149.1l-6.3,4.8c-0.6,0.5-0.9,1.3-0.7,2.1l2.4,7.7c0.6,1.8-1.5,3.2-3,2.1l-5.9-4.5
							c-0.7-0.5-1.6-0.5-2.3,0l-5.9,4.5c-1.5,1.1-3.6-0.3-3-2.1l2.4-7.7c0.2-0.8,0-1.6-0.7-2.1l-6.3-4.8c-1.5-1.1-0.7-3.5,1.2-3.5
							h7.6c0.8,0,1.6-0.6,1.8-1.4l2.3-7.4c0.6-1.8,3.1-1.8,3.7,0l2.3,7.4c0.2,0.8,1,1.4,1.8,1.4h7.6
							C139.5,145.7,140.3,148,138.9,149.1z"/>
					</g>
					<g>
						<path class="st7" d="M185.4,149.1l-6.3,4.8c-0.6,0.5-0.9,1.3-0.7,2.1l2.4,7.7c0.6,1.8-1.5,3.2-3,2.1l-5.9-4.5
							c-0.7-0.5-1.6-0.5-2.3,0l-5.9,4.5c-1.5,1.1-3.6-0.3-3-2.1l2.4-7.7c0.2-0.8,0-1.6-0.7-2.1l-6.3-4.8c-1.5-1.1-0.7-3.5,1.2-3.5
							h7.6c0.8,0,1.6-0.6,1.8-1.4l2.3-7.4c0.6-1.8,3.1-1.8,3.7,0l2.3,7.4c0.2,0.8,1,1.4,1.8,1.4h7.6
							C186.1,145.7,186.9,148,185.4,149.1z"/>
					</g>
					<g>
						<path class="st7" d="M232,149.1c1.5-1.1,0.7-3.5-1.2-3.5h-7.6c-0.8,0-1.6-0.6-1.8-1.4l-2.3-7.4c-0.6-1.8-3.1-1.8-3.7,0
							l-2.3,7.4c-0.2,0.8-1,1.4-1.8,1.4h-7.6c-1.8,0-2.6,2.3-1.2,3.5l6.3,4.8c0.6,0.5,0.9,1.3,0.7,2.1l-2.4,7.7
							c-0.6,1.8,1.5,3.2,3,2.1l5.9-4.5c0.7-0.5,1.6-0.5,2.3,0l5.9,4.5c1.5,1.1,3.6-0.3,3-2.1L225,156c-0.2-0.8,0-1.6,0.7-2.1
							L232,149.1z"/>
						<path class="st8" d="M244.5,124.3H3.6c-2,0-3.6,1.6-3.6,3.6v46c0,2,1.6,3.6,3.6,3.6h240.9c2,0,3.6-1.6,3.6-3.6v-46
							C248.1,125.9,246.5,124.3,244.5,124.3z M46.8,150.5l-6.3,4.8l2.3,7.8c0.5,1.6-0.1,3.2-1.4,4.2c-1.4,0.9-3.1,0.9-4.4-0.1
							l-5.9-4.5l-6.1,4.5c-0.7,0.5-1.5,0.8-2.3,0.8c-0.7,0-1.5-0.2-2.1-0.7c-1.4-0.9-1.9-2.6-1.4-4.2l2.4-7.7l-6.4-5
							c-1.3-1-1.8-2.6-1.3-4.2c0.5-1.5,1.9-2.5,3.5-2.5H25l2.4-7.5c0.5-1.6,1.9-2.6,3.6-2.6c1.6,0,3.1,1.1,3.6,2.6l2.3,7.4l7.7,0.1
							c1.6,0,3,1,3.5,2.5C48.6,147.9,48.1,149.6,46.8,150.5z M93.4,150.5l-6.3,4.8l2.3,7.8c0.5,1.6-0.1,3.2-1.4,4.2
							c-1.4,0.9-3.1,0.9-4.4-0.1l-5.9-4.5l-6.1,4.5c-0.7,0.5-1.5,0.8-2.3,0.8c-0.7,0-1.5-0.2-2.1-0.7c-1.4-0.9-1.9-2.6-1.4-4.2
							l2.4-7.7l-6.4-5c-1.3-1-1.8-2.6-1.3-4.2c0.5-1.5,1.9-2.5,3.5-2.5h7.6l2.4-7.5c0.5-1.6,1.9-2.6,3.6-2.6c1.6,0,3.1,1.1,3.6,2.6
							l2.3,7.4l7.7,0.1c1.6,0,3,1,3.5,2.5C95.2,147.9,94.7,149.6,93.4,150.5z M140,150.5l-6.3,4.8l2.3,7.8c0.5,1.6-0.1,3.2-1.4,4.2
							c-1.4,0.9-3.1,0.9-4.4-0.1l-5.9-4.5l-6.1,4.5c-0.7,0.5-1.5,0.8-2.3,0.8c-0.7,0-1.5-0.2-2.1-0.7c-1.4-0.9-1.9-2.6-1.4-4.2
							l2.4-7.7l-6.4-5c-1.3-1-1.8-2.6-1.3-4.2c0.5-1.5,1.9-2.5,3.5-2.5h7.6l2.4-7.5c0.5-1.6,1.9-2.6,3.6-2.6c1.6,0,3.1,1.1,3.6,2.6
							l2.3,7.4l7.7,0.1c1.6,0,3,1,3.5,2.5C141.7,147.9,141.2,149.6,140,150.5z M186.5,150.5l-6.3,4.8l2.3,7.8
							c0.5,1.6-0.1,3.2-1.4,4.2c-1.4,0.9-3.1,0.9-4.4-0.1l-5.9-4.5l-6.1,4.5c-0.7,0.5-1.5,0.8-2.3,0.8c-0.7,0-1.5-0.2-2.1-0.7
							c-1.4-0.9-1.9-2.6-1.4-4.2l2.4-7.7l-6.4-5c-1.3-1-1.8-2.6-1.3-4.2c0.5-1.5,1.9-2.5,3.5-2.5h7.6l2.4-7.5
							c0.5-1.6,1.9-2.6,3.6-2.6c1.6,0,3.1,1.1,3.6,2.6l2.3,7.4l7.7,0.1c1.6,0,3,1,3.5,2.5C188.3,147.9,187.8,149.6,186.5,150.5z
							 M232.9,150.3l-6.3,4.8c-0.1,0.1-0.2,0.3-0.1,0.5l2.4,7.7c0.4,1.5-0.1,3-1.3,3.8c-0.6,0.4-1.3,0.6-2,0.6
							c-0.7,0-1.5-0.2-2.1-0.7l-5.9-4.5c-0.2-0.1-0.4-0.1-0.5,0l-6,4.5c-1.2,0.9-2.8,1-4,0.1c-1.2-0.9-1.8-2.4-1.3-3.8l2.4-7.7
							c0.1-0.2,0-0.4-0.1-0.5l-6.3-4.8c-1.2-0.9-1.6-2.4-1.2-3.8c0.5-1.4,1.8-2.3,3.2-2.3h7.6c0.2,0,0.4-0.1,0.4-0.3l2.3-7.4
							c0.5-1.5,1.7-2.4,3.3-2.4s2.8,0.9,3.3,2.4l2.3,7.4c0.1,0.2,0.2,0.3,0.4,0.3h7.6c1.5,0,2.8,0.9,3.2,2.3
							S234.1,149.4,232.9,150.3z"/>
					</g>
				</g>
			</g>
		</g>
		<g>
			<path class="st9" d="M268.7,511.6H122.5c-5,0-9-4.3-8.6-9.3l0.9-10.2h161.5l0.9,10.2C277.7,507.3,273.7,511.6,268.7,511.6z"/>
			<path class="st1" d="M200.5,329.4c-7.7-5.8-13.9-33.3-14.8-48.6l-16.6,18.9c7,25.9,1.8,25-9,35.3c-10.8,10.3,2.8,29.4,30.2,23
				C214.4,352.5,208.2,335.2,200.5,329.4z"/>
			<path class="st1" d="M160.2,250.8c-10.6,17.4-21.9,56.3,11.7,52.1C217.6,297.1,190.9,200.4,160.2,250.8z"/>
			<g>
				<path class="st1" d="M79.6,214.6c-1.7-5.9,2.5-8.7,5.7-13.1c3.2-4.4,4.5-7.1,0.7-11.8c-3.8-4.7-4.6-22.9-15.6-13.4
					c-16.4,14.1-8.4,38.5-8.4,38.5L79.6,214.6z"/>
				<path class="st10" d="M256.1,351.3c-5.2-15-31.9-20.5-55.6-21.9L169,332c-15.4-9.7-54.1-27.8-70.5-34.2
					c1-12.5-7.8-68.7-11.3-82.4c-2.8-11.1-23.1-7.2-28.8-0.1c-6.4,7.9-15.7,91.5-10.5,105.3c0,0.1,0.1,0.2,0.2,0.3
					c0.2,0.6,0.6,1.2,1.1,1.8c6.9,7.6,45.5,44.6,75,65c-6.8,43.2-11.9,107.3-11.9,107.3h50.6h115.2
					C278.1,495.1,273.3,400.6,256.1,351.3z"/>
				<path class="st1" d="M86.9,199.3c4.8-5.9,3.7-13.8,4.9-16.9c1.2-3.1-3.9-2.9-7,5.4C82.9,193,86.9,199.3,86.9,199.3z"/>
			</g>
			<path class="st1" d="M256.1,351.3c-5.3-15-31.9-20.5-55.6-21.9l-37.6,3.1c-0.1,0-0.2,0-0.3,0.1c-15.7,3-24,20.3-17.1,34.7
				c1.3,2.7,2.8,5.5,4.4,8.4c11.4,20-12.3,55.9,5.4,82.2c22.1,32.9,82.2,41.6,122.4,30.9C276.3,466.7,270.6,392.9,256.1,351.3z"/>
			<path class="st11" d="M318.9,336c-7.7-6-12.2-12-15.4-17.9c7.9,4.3,15.2,16.6,20.5,27.1l1.2-0.6c-5.9-11.7-14-24-22.9-28.7
				c-4.9-10.1-6.1-19.9-12.3-29c-6.6-9.6-16.5-11.3-26.2-14.7c-4.4-12.3-9.5-24.8-26.9-36c-5.1-9.5-15.1-16.7-42.4-14.9
				c-2.4,0.1-4.6,0.5-6.8,0.9c-4,0.9-7.5,2.3-10.7,4.2c-7.3,2.2-17.1,8.1-20.1,16.4c-2.1,5.9-0.6,12.2,4.5,18.6
				c0.2,3,0.7,6.1,1.4,9.3c4.7,20.8,6.6,32.7-8.5,44.3c-15.1,11.6-11.1,27.7,0.3,47.7c11.4,20-12.3,55.9,5.4,82.2
				c16.8,25,55.6,36,90.9,35.1c10.6-0.2,20.9-1.6,30.2-4c13.4-3.4,24.8-8.9,32-16.3C342.1,430.2,345.2,356.6,318.9,336z
				 M164.3,241.6c-2.1,5.1-3,10.9-2.9,17.4c-3.8-5.4-4.9-10.6-3.1-15.6c2.2-6,8.4-10.8,14.3-13.6C169.1,233,166.2,236.9,164.3,241.6
				z M238.3,238.8c15,10.3,19.9,21.7,24,32.9c-3.2-1.2-6.4-2.7-9.4-4.8C243.3,260.3,242.7,248.7,238.3,238.8z"/>
			<path class="st12" d="M281.4,476.2c-9.3,2.3-19.6,3.7-30.2,4c-3.9-15.8-12.9-26.6-23.8-39.5c-9.5-11.3-20.3-24.1-27.6-41.7
				c-10.8-25.8-9.6-48.5-8.7-68.6c1.4-28.4,2.7-53.4-26.7-88.8c4-9.9,12.1-16.8,23.5-19.3c36.8,44.6,35.1,78.9,33.6,109.5
				c-0.9,19.3-1.8,36,6.3,55.4c5.5,13.2,13.9,23.2,22.8,33.8C262.7,435.5,276.2,451.5,281.4,476.2z"/>
		</g>
		<g>
			<g>
				<path class="st9" d="M474.6,436.3c-1.4,4.8-8,8-8.9,13.9c-0.4,2.9-1.5,5.1-2.9,6.6h-20.6c0.2-1.1,1.1-2.4,3.8-2.9
					c5.7-1.2,7.9-8.2,7.5-14.6c-0.1-2.7-0.1-5.8,0.1-8.4c0.2-3.7,0.5-6.6,0.5-6.6l12.1-2.9l1.3,1.6l1.2,1.6
					C468.7,424.7,476,431.5,474.6,436.3z"/>
				<path class="st9" d="M378.8,456.9h-41.6c0.9-1.1,2.5-2.2,5.2-2.6c6.4-1,17.5-4.8,20-12.9c0.1-0.3,0.2-0.5,0.2-0.8
					c2-8.8,16.3,2.7,16.3,2.7s0,0.4,0.1,0.9C379.2,446.7,379.8,453.3,378.8,456.9z"/>
				<path class="st10" d="M344.1,225c0,0,2.2,27.1,4.7,59.6c3.5,44.2,7.6,98.5,8,108.8c0.7,17.9,3.6,46.4,3.6,46.4s6.8,6.8,20.4,3.9
					c0,0,12.1-40.8,15.6-84c0.1-0.7,0.1-1.4,0.2-2.1c3.2-43.9,8.2-136.5,8.2-136.5L344.1,225z"/>
				<path class="st13" d="M344.1,225c0,0,2.2,27.1,4.7,59.6l47.5,75.2c0.1-0.7,0.1-1.4,0.2-2.1c3.2-43.9,8.2-136.5,8.2-136.5
					L344.1,225z"/>
				<path class="st10" d="M354,228.2c0,0,39.1,98.1,64.8,144.2c25.7,46.1,33.8,58.9,33.8,58.9s14.7-5.9,16.1-9.9
					c0,0-9.8-89-27.1-110.7c-9.7-12.3-21.2-49-21.7-61.9c-0.5-12.9-3.5-38.3-3.5-38.3L354,228.2z"/>
			</g>
			<path class="st1" d="M374.1,76.9c-1.7-10.3-1.8-16.4-1.8-16.4l19.8-16c-0.7,22,13.4,32.6,13.4,32.6s-26.4,13-41.7,8.2
				C363.8,85.3,367.5,80.5,374.1,76.9z"/>
			<path class="st1" d="M367.6,60.1c0,0,25.3,4.2,27.6-11.6c2.4-15.8,7.2-25.8-8.8-29.2c-16-3.3-20.1,2.2-22.1,7.3
				C362.2,31.7,361.1,58.7,367.6,60.1z"/>
			<g>
				<path class="st1" d="M278.9,92.6l-5.4-3.3c0,0-6.7-9.9-18.2-3.7c0,0-4.5,2.9-1.5,5.3c3,2.4,2.2,1.1,6.4,4.6
					c4.2,3.5,9.7,4.8,13.2,2.8l4.5-0.4L278.9,92.6z"/>
				<path class="st14" d="M272.6,93.7c1.4-4.3,2-4.7,2-4.7s43.5,5.1,47.6,5.4c4.1,0.3,61-11.4,61-11.4l26.9,32.6c0,0-79.2,3-89.6,2
					c-17.1-1.6-48.2-17.6-48.2-17.6S271.5,97.1,272.6,93.7z"/>
			</g>
			<path class="st0" d="M419.4,215.6c0.1,1.7-3.4,3.5-4.9,4.2c-11.3,5.1-21.9,8.6-33.9,9.8c-14.2,1.5-30.9-1.7-36.6-1.7
				c-0.6,0-1.1-0.2-1.6-0.6c-0.4-0.3-0.7-17.6-0.4-39.4c0-0.8,0-1.8,0.1-2.6V185c0-2.3,0.1-4.6,0.1-6.9c0.1-6.4,0.4-12.9,0.7-19.4
				c0.4-9.6,1-19,1.8-27.4c0.8-8.7,1.9-16.3,3.2-21.6c3.1-12.3,10.1-20.4,16.5-26.4l5.3-4.7c5.3,1.1,10.9,0.8,16.5-2
				c6-3,12.6-6.2,13.7-5.4c8.2,6.1,13.7,19.9,16.5,37.5c1.5,9.5,2.3,20,2.2,31.1c0,4.2-0.1,8.5-0.4,12.9c-1.4,23.2,0,43.4,0.8,55.1
				C419.2,211.1,419.4,213.7,419.4,215.6z"/>
			<path class="st14" d="M400.4,108.2c0,0-12.2,57.1-58.2,69.8c0.1-6.4,0.4-12.9,0.7-19.4c0.4-9.6,1-19,1.8-27.4
				c0.8-0.4,1.6-0.8,2.3-1C362.5,125.1,400.4,108.2,400.4,108.2z"/>
			<g>
				<path class="st1" d="M279.1,129.5l-6.6-1.1c0,0-7.5-10.8-20.5-4.8c0,0-5.2,2.9-1.8,5.6c3.4,2.7,2.5,1.2,7.2,5.1
					c4.7,3.9,10.9,5.5,14.9,3.6l5.1-0.3L279.1,129.5z"/>
				<path class="st0" d="M274.1,132.8c0.2-4.8,2.8-5.3,2.8-5.3s49.7-3.3,54-4.1c4.3-0.8,43.9-33.7,43.9-33.7s15.3-13.8,26.1-9.1
					c9.3,4,12.2,12,12.7,19.3c0.6,8.7-4.4,16.9-12.3,20.6c-17.8,8.3-53.4,24.6-61.5,26c-18,3.1-64.4-6.9-64.4-6.9
					S273.9,136.6,274.1,132.8z"/>
			</g>
			<path class="st15" d="M364.3,26.7c0,0-10.2-7.6-3.6-19.4c0,0,8.1,2.7,19.5,0c11.5-2.7,21.7,1.1,23,5.1c0,0,4.5,1.8,4.9,8.5
				c0.4,6.7-13,27.7-13,27.7s-2.9-3.6-2.1-6c0.8-2.5,3.2-7.9,0.2-7.9c-3,0-4,4.5-5.2,2.7c-1.2-1.8,1-9.2-2.6-10.5
				C382,25.6,368.3,28.9,364.3,26.7z"/>
		</g>
		<g>
			<path class="st1" d="M545.8,370.3l21.4-4.2c1.7-9.7,2.2-19.5,1.6-29l-20.9-6.4c-0.6-4.3-1.5-8.5-2.7-12.7l16.5-14.3
				c-3.3-9.1-7.8-17.8-13.2-25.9l-21.3,4.9c-2.7-3.4-5.5-6.6-8.6-9.7l7.1-20.6c-7.3-6.2-15.5-11.5-24.4-15.8l-16,14.8
				c-2.9-1.2-6-2.2-9.1-3.1c-1.1-0.3-2.2-0.6-3.2-0.9l-4.2-21.4c-9.7-1.7-19.5-2.2-29-1.6l-6.4,20.9c-2.1,0.3-4.1,0.7-6.1,1.1
				l4.8,18.5c12.5-2.5,25.8-2.1,38.8,1.7c43.4,12.7,68.3,58.2,55.7,101.6c-7.2,24.7-25,43.4-47,52.6l16.3,35.6
				c6.8-2.9,13.3-6.5,19.5-10.6l-4.9-21.3c3.4-2.7,6.6-5.5,9.6-8.6l20.6,7.1c6.2-7.3,11.5-15.5,15.8-24.4l-14.8-16
				c1.2-3,2.2-6,3.1-9.1C545.2,372.5,545.5,371.4,545.8,370.3z"/>
		</g>
	</g>
</g>
</svg>
