<?xml version="1.0" encoding="utf-8"?>
<!-- Generator: Adobe Illustrator 28.4.1, SVG Export Plug-In . SVG Version: 6.00 Build 0)  -->
<svg version="1.1" id="Layer_1" xmlns="http://www.w3.org/2000/svg" xmlns:xlink="http://www.w3.org/1999/xlink" x="0px" y="0px"
	 viewBox="0 0 406.1 186.3" style="enable-background:new 0 0 406.1 186.3;" xml:space="preserve">
<style type="text/css">
	.st0{fill:#E4DFEA;}
	.st1{fill:#EE4267;}
	.st2{fill:#FF5A2E;}
</style>
<g>
	<path class="st0" d="M246.1,49.7H18.9C8.5,49.7,0,41.2,0,30.7v0c0-10.5,8.5-18.9,18.9-18.9h227.1c10.5,0,18.9,8.5,18.9,18.9v0
		C265,41.2,256.5,49.7,246.1,49.7z"/>
	<path class="st0" d="M246.1,118H18.9C8.5,118,0,109.5,0,99v0c0-10.5,8.5-18.9,18.9-18.9h227.1c10.5,0,18.9,8.5,18.9,18.9v0
		C265,109.5,256.5,118,246.1,118z"/>
	<path class="st0" d="M246.1,186.3H18.9C8.5,186.3,0,177.8,0,167.4v0c0-10.5,8.5-18.9,18.9-18.9h227.1c10.5,0,18.9,8.5,18.9,18.9v0
		C265,177.8,256.5,186.3,246.1,186.3z"/>
	<path class="st1" d="M124.3,49.7H18.9C8.5,49.7,0,41.2,0,30.7v0c0-10.5,8.5-18.9,18.9-18.9h105.3c10.5,0,18.9,8.5,18.9,18.9v0
		C143.2,41.2,134.7,49.7,124.3,49.7z"/>
	<path class="st2" d="M74.9,118h-56C8.5,118,0,109.5,0,99v0c0-10.5,8.5-18.9,18.9-18.9h56c10.5,0,18.9,8.5,18.9,18.9v0
		C93.8,109.5,85.3,118,74.9,118z"/>
	<path class="st2" d="M209.9,186.3H18.9C8.5,186.3,0,177.8,0,167.4v0c0-10.5,8.5-18.9,18.9-18.9h190.9c10.5,0,18.9,8.5,18.9,18.9v0
		C228.8,177.8,220.3,186.3,209.9,186.3z"/>
	<path class="st0" d="M318.6,34.4c0,5.4-4.1,8.9-10.4,8.9c-3.4,0-7.3-1.3-10-3.2l2.3-4.4c2.1,1.7,4.7,2.8,7.2,2.8
		c2.9,0,4.7-1.4,4.7-3.8c0-2.2-1.6-3.5-4.9-3.5c-1.2,0-5.3,0.1-7,0.2V17.1h17.1V22h-11.6v4.6h2.9C314.7,26.6,318.6,29.8,318.6,34.4z
		"/>
	<path class="st0" d="M344.4,30.1c0,8.5-4,13.2-11.3,13.2c-7.3,0-11.4-4.7-11.4-13.2c0-8.5,4-13.2,11.4-13.2
		C340.4,16.9,344.4,21.6,344.4,30.1z M327.7,30.1c0,6.1,1.7,8.7,5.4,8.7c3.6,0,5.3-2.6,5.3-8.7c0-6.1-1.7-8.7-5.3-8.7
		C329.4,21.4,327.7,24,327.7,30.1z"/>
	<path class="st0" d="M371.2,13.5c0,8.4-4.7,13.6-12.3,13.6c-7.6,0-12.3-5.2-12.3-13.6c0-8.3,4.7-13.5,12.3-13.5
		C366.5,0,371.2,5.1,371.2,13.5z M352.9,13.5c0,5.1,2.2,8.1,6,8.1c3.7,0,6-3,6-8.1c0-4.9-2.2-8-6-8C355.1,5.5,352.9,8.5,352.9,13.5z
		 M395.9,0.2l-32.3,44.9h-7.2l32.5-44.9H395.9z M406.1,31.7c0,8.4-4.7,13.6-12.3,13.6c-7.6,0-12.3-5.2-12.3-13.6
		c0-8.3,4.7-13.5,12.3-13.5C401.4,18.2,406.1,23.3,406.1,31.7z M387.8,31.7c0,5.1,2.2,8.1,6,8.1c3.7,0,6-3,6-8.1c0-4.9-2.2-8-6-8
		C390,23.7,387.8,26.7,387.8,31.7z"/>
	<path class="st0" d="M371.2,77.5c0,8.4-4.7,13.6-12.3,13.6c-7.6,0-12.3-5.2-12.3-13.6c0-8.3,4.7-13.5,12.3-13.5
		C366.5,64,371.2,69.1,371.2,77.5z M352.9,77.5c0,5.1,2.2,8.1,6,8.1c3.7,0,6-3,6-8.1c0-4.9-2.2-8-6-8
		C355.1,69.5,352.9,72.5,352.9,77.5z M395.9,64.2l-32.3,44.9h-7.2l32.5-44.9H395.9z M406.1,95.7c0,8.4-4.7,13.6-12.3,13.6
		c-7.6,0-12.3-5.2-12.3-13.6c0-8.3,4.7-13.5,12.3-13.5C401.4,82.2,406.1,87.3,406.1,95.7z M387.8,95.7c0,5.1,2.2,8.1,6,8.1
		c3.7,0,6-3,6-8.1c0-4.9-2.2-8-6-8C390,87.7,387.8,90.7,387.8,95.7z"/>
	<path class="st0" d="M371.2,148.5c0,8.4-4.7,13.6-12.3,13.6c-7.6,0-12.3-5.2-12.3-13.6c0-8.3,4.7-13.5,12.3-13.5
		C366.5,135,371.2,140.2,371.2,148.5z M352.9,148.5c0,5.1,2.2,8.1,6,8.1c3.7,0,6-3,6-8.1c0-4.9-2.2-8-6-8
		C355.1,140.6,352.9,143.6,352.9,148.5z M395.9,135.2l-32.3,44.9h-7.2l32.5-44.9H395.9z M406.1,166.7c0,8.4-4.7,13.6-12.3,13.6
		c-7.6,0-12.3-5.2-12.3-13.6c0-8.3,4.7-13.5,12.3-13.5C401.4,153.3,406.1,158.4,406.1,166.7z M387.8,166.7c0,5.1,2.2,8.1,6,8.1
		c3.7,0,6-3,6-8.1c0-4.9-2.2-8-6-8C390,158.8,387.8,161.8,387.8,166.7z"/>
	<path class="st0" d="M318.1,100.9c0,4.9-4,8.4-10.4,8.4c-3.7,0-7.5-1.2-9.9-3l2.3-4.3c2.1,1.8,4.7,2.7,7.2,2.7
		c3.3,0,5.1-1.4,5.1-3.7c0-2.3-1.9-3.6-5.2-3.6H303v-3.3l6.5-6.3H299l0-4.7h17.8v3.5l-7.5,7l1.3,0.2
		C315,94.4,318.1,96.9,318.1,100.9z"/>
	<path class="st0" d="M343.9,96.1c0,8.5-4,13.2-11.3,13.2c-7.3,0-11.4-4.7-11.4-13.2c0-8.5,4-13.2,11.4-13.2
		C339.9,82.9,343.9,87.6,343.9,96.1z M327.3,96.1c0,6.1,1.7,8.7,5.4,8.7c3.6,0,5.3-2.6,5.3-8.7c0-6.1-1.7-8.7-5.3-8.7
		C329,87.4,327.3,90,327.3,96.1z"/>
	<path class="st0" d="M317.1,160.8c0,2.3-1.3,4.3-3.4,5.4c2.9,1.1,4.7,3.6,4.7,6.6c0,4.6-4,7.6-10.3,7.6c-6.2,0-10.2-2.9-10.2-7.5
		c0-3,1.9-5.5,5-6.7c-2.3-1.2-3.7-3.3-3.7-5.6c0-4.1,3.5-6.7,8.9-6.7C313.7,153.9,317.1,156.5,317.1,160.8z M303.4,172.2
		c0,2.3,1.7,3.7,4.7,3.7c3,0,4.8-1.3,4.8-3.6c0-2.3-1.7-3.6-4.8-3.6C305.1,168.6,303.4,169.9,303.4,172.2z M304.1,161.1
		c0,2,1.5,3.2,4,3.2c2.6,0,4-1.1,4-3.2c0-2-1.4-3.2-4-3.2C305.6,157.9,304.1,159,304.1,161.1z"/>
	<path class="st0" d="M344.6,167.1c0,8.5-4,13.2-11.3,13.2c-7.3,0-11.4-4.7-11.4-13.2c0-8.5,4-13.2,11.4-13.2
		C340.5,153.9,344.6,158.6,344.6,167.1z M327.9,167.1c0,6.1,1.7,8.7,5.4,8.7c3.6,0,5.3-2.6,5.3-8.7c0-6.1-1.7-8.7-5.3-8.7
		C329.6,158.4,327.9,161,327.9,167.1z"/>
</g>
</svg>
