<?xml version="1.0" encoding="utf-8"?>
<!-- Generator: Adobe Illustrator 28.4.1, SVG Export Plug-In . SVG Version: 6.00 Build 0)  -->
<svg version="1.1" id="Layer_1" xmlns="http://www.w3.org/2000/svg" xmlns:xlink="http://www.w3.org/1999/xlink" x="0px" y="0px"
	 viewBox="0 0 560 297" style="enable-background:new 0 0 560 297;" xml:space="preserve">
<style type="text/css">
	.st0{fill:#FBFBF8;}
	.st1{fill:#E4DFEA;}
	.st2{fill:#9D39B5;}
	.st3{fill:#FFFFFF;}
	.st4{fill:#FF5A2E;}
	.st5{fill:#1F1647;}
	.st6{fill:#EE4267;}
	.st7{fill:#7C576A;}
	.st8{fill:#FBA84B;}
	.st9{fill:#FAB18A;}
	.st10{fill:#FBCE66;}
	.st11{clip-path:url(#XMLID_00000012432258430284479040000010765789905144779703_);fill:#FBFBF8;}
	.st12{fill:#C9C2D3;}
	.st13{fill:none;stroke:#EE4267;stroke-width:8.6299;stroke-linecap:round;stroke-miterlimit:10;}
	.st14{fill:#CCC5D6;}
</style>
<g>
	<path class="st0" d="M225.2,5.6C225,6.5,224.4,7,223.4,7C223.6,6,224.5,5.9,225.2,5.6z"/>
	<g>
		<g>
			<path class="st1" d="M500.1,165.6l19.6-7.6c0-9.5-1.2-18.8-3.4-27.7l-20.8-2.6c-1.3-4-2.9-7.8-4.7-11.5L504,100
				c-4.7-8.1-10.3-15.5-16.8-22.3L467.8,86c-3.1-2.8-6.4-5.3-9.8-7.7l3.2-20.7c-8-4.6-16.6-8.2-25.7-10.9L423,63.5
				c-3-0.6-6-1.1-9.1-1.4c-1.1-0.1-2.1-0.2-3.2-0.3l-7.6-19.6c-9.5,0-18.8,1.2-27.7,3.4l-2.6,20.8c-3.9,1.3-7.8,2.9-11.5,4.7
				L345.1,58c-8.1,4.7-15.5,10.3-22.3,16.8l8.2,19.3c-2.8,3.1-5.3,6.3-7.7,9.8l-20.7-3.2c-4.6,8-8.2,16.6-10.9,25.7l16.7,12.6
				c-0.6,3-1.1,6-1.4,9.1c-0.1,1.1-0.2,2.1-0.3,3.2l-19.6,7.6c0,9.5,1.2,18.8,3.4,27.7l20.8,2.6c1.3,3.9,2.9,7.8,4.7,11.5L303,216.8
				c4.7,8.1,10.3,15.6,16.8,22.3l19.3-8.2c3.1,2.8,6.3,5.3,9.8,7.7l-3.2,20.7c8,4.6,15.1-1.7,24.2,0.9l14.1-6.7c3,0.6,6,1.1,9.1,1.4
				c1.1,0.1,2.1,0.2,3.2,0.3l7.6,2.3c9.5,0,18.8-1.2,27.7-3.4l2.6-3.6c3.9-1.3,7.8-2.9,11.5-4.7l16.3,13.1
				c8.1-4.7,15.5-10.3,22.3-16.8l-8.2-19.3c2.7-3.1,5.3-6.4,7.7-9.8l20.7,3.2c4.6-8,8.2-16.6,10.9-25.7l-16.7-12.6
				c0.6-3,1.1-6,1.4-9.1C500,167.8,500.1,166.7,500.1,165.6z M453.6,163.8c-3,27.7-27.9,47.8-55.6,44.8c-27.7-3-47.7-27.9-44.8-55.6
				c3-27.7,27.9-47.7,55.6-44.8C436.6,111.3,456.6,136.1,453.6,163.8z"/>
		</g>
		<g>
			<g>
				<path class="st2" d="M534.1,167.5c0.1-1,0.2-2,0.3-2.9l25.6-9.9l0-1.4c0-12.4-1.5-24.7-4.5-36.6l-0.3-1.4l-27.3-3.3
					c-1.5-4.4-3.3-8.7-5.2-12.9l17.2-21.4l-0.7-1.2C533,65.8,525.5,55.9,516.9,47l-1-1l-25.3,10.7c-3.5-3.1-7.2-6-11-8.6l4.2-27.1
					l-1.2-0.7c-10.6-6.1-22.1-10.9-34-14.4l-1.3-0.4l-16.5,21.9c-3.6-0.7-7.3-1.3-10.8-1.6c-1-0.1-2-0.2-2.9-0.3L407.2,0l-1.4,0
					c-12.4,0-24.8,1.5-36.6,4.5l-1.4,0.3l-3.4,27.3c-4.4,1.5-8.7,3.3-12.9,5.2l-21.4-17.2l-1.2,0.7c-2.8,1.6-5.5,3.4-8.2,5.2
					c1.1,0.8,2.2,1.7,3.3,2.7c1.9-1.3,3.8-2.5,5.8-3.6L351,42.2l1.2-0.6c4.7-2.3,9.7-4.3,14.8-6l1.2-0.4l3.3-27.1
					c10.7-2.5,21.7-3.9,32.9-4l9.8,25.4l2.5,0.2c1,0.1,1.9,0.1,2.9,0.2c3.8,0.4,7.8,1,11.7,1.8l1.3,0.3L449,10.3
					c10.7,3.2,20.9,7.5,30.5,12.9l-4.2,26.9l1.1,0.7c4.3,2.9,8.5,6.3,12.6,9.8l1,0.9L515,50.9c7.6,8,14.3,16.9,20,26.4l-17.1,21.2
					l0.6,1.2c2.3,4.7,4.3,9.7,6,14.8l0.4,1.2l27.1,3.3c2.6,10.7,3.9,21.8,4,32.9l-25.4,9.8l-0.1,2c-0.1,1.1-0.2,2.3-0.3,3.4
					c-0.4,3.7-1,7.6-1.8,11.7l-0.3,1.3l21.7,16.4c-3.2,10.7-7.5,20.9-12.9,30.5l-26.9-4.2l-0.7,1.1c-2.9,4.3-6.2,8.5-9.8,12.6
					l-0.9,1l10.6,25.1c-8,7.6-16.9,14.3-26.4,20l-14.8-11.9c-0.9,1-1.8,2-2.7,3l17.1,13.8l1.2-0.7c10.7-6.2,20.6-13.7,29.4-22.2l1-1
					l-10.7-25.3c3.1-3.6,6-7.2,8.6-10.9l27.1,4.2l0.7-1.2c6.1-10.6,10.9-22.1,14.4-34l0.4-1.3l-21.9-16.5
					C533.2,174.6,533.7,171,534.1,167.5z"/>
			</g>
		</g>
		<path class="st3" d="M336.2,173.8c0,0,18.8,6.2,17.6,27.2s6.5,66.1,6.5,66.1s-38.5,6.6-58.2,4.2c4.9-30.8,3.7-78.9,4.9-78.9
			S336.2,173.8,336.2,173.8z"/>
		<path class="st0" d="M13.6,257.8c2,0.2,3.8,1,3.9,3.1c0.1,2.8-2.7,1.1-3.9,2C13.6,261.2,13.6,259.5,13.6,257.8z"/>
		<path class="st1" d="M361.1,89.1c-0.7-2.7-0.7-5.6-3-7.7c0.8,2.8,0.2,4.3-2.8,5.8c-2.7,1.3-4.4,4.5-6.5,6.9
			c-0.5,0.6-0.7,1.6-2.2,1.6c1.9-3.6,0.7-5.6-2.7-7.8c-2-1.3-3.3-4.6-4.6-7.1c-0.5-1.1,0-2.9,1.9-3.3c1.5-0.3,3-0.9,4.5-1.3
			c-0.7-0.4-1.5-0.9-2.2-1.3c-0.9,0.1-1.6,0.2-2.5,0.3c-3,3.3-7,2.6-10.7,2.9c1,0.4,2,0.7,3,1.1l5.3-0.7c-1.1,2.3-2.1,4.1-3.2,6.3
			c-3.2-2.3-2.5-6.3-6.9-7.2c-1.7,1.6-2,1.8-3.7,3.4c0.2,0.8-0.3,1.3-1.6,1.5c-2.8,0.3-5.5,0.7-8.2,1.3c-4.7,1.1-8.9,3.1-11.8,7.2
			c5.5-0.4,10.8-0.6,14.8-5.5c1.9-2.3,5.1-2.3,7.8-1.6c2.7,0.7,3.7,3.6,2.1,5.8c-0.9,1.3-1.6,2.7-3.1,3.5
			c-7.1,3.7-13.1,8.9-19.8,13.2c-3.3,2.1-7,2.6-10.4,4c-1.3,0.5-2.9,0.2-2.9,2.4c0,0.9-1.1,0.7-1.8,0.4c-2-0.9-4.3-1.6-4.4-4.3
			c0-1.5,0.2-3.2,0.8-4.6c0.9-2-1.3-4.5,0-5.4c1.2-0.9,3.6-0.2,5.4-1.2c2.3-1.3,4.9-2,7.6-2.6c0.3-9.3,8-16.4,19.1-17.6
			c-4.5-2.6-9.4-4.7-13.4-8.3c-0.9-0.8-1.8-1.5-2.2-2.7c-3,1.2-6,2.4-9,3.6c-0.7,0.3-1.5,0.5-2-0.1c-0.5-0.7,0.1-1.4,0.5-1.9
			c1.6-2.3,4.1-3.2,6.5-4.4c-0.6-2.2-2.8-2.3-4.4-3.2c-1.4-0.8-2.7-1.4-3.1-3.1c-0.2-0.3-0.4-0.5-0.7-0.8c-0.4,0-0.7,0.1-1.1,0.1
			c-2.4,0-4.8,0.1-7.2,0c-10.9-0.8-18.4,4.4-23.9,13.4c-1.7,2.7-2.3,6-4.8,8.3c0,3.3-0.9,6.5-1.7,9.7c2.4-2,4.7-4.2,7.5-5.6
			c1.5-0.8,3.1-1.5,4.8-1.5c0.9,0,2.2-0.3,2.6,0.8c0.5,1.3-0.8,1.6-1.6,2c-5.6,2.9-10.5,6.9-15.4,11c0,0,0,0,0,0.1
			c0.6,8.2,1.6,16.4,3.8,24.3c0.9,3.1-1,6-0.2,9c0.3-1,0.5-2,1-3.9c1.5,5.1,0,9.4-0.3,13.6c0.2,0,0.4,0,0.6,0
			c0.5-2.7,1.1-5.4,1.9-9.2c1.7,4.6,3.9,7.7,5.9,11c2.1,0.5,4.2,1.2,6.4,1.4c5,0.3,7.9,2.9,8.9,7.7c0.6,2.7,2,3.6,4.6,3.4
			c5.6-0.3,11.2,0.4,16.7,0.8c2.6,0.2,5.2,0.8,7.9,3.5c-8.9-2.7-17.1-2.5-25.3-2.9c-2.3-0.1-4.6-0.4-5.3-3.4
			c-0.4-1.6-1.9-1.6-3.3-1.6c-1.5,0-2.6,0.5-3.1,2c-0.4,1.1-0.7,2.3-1.2,3.7c-1.2-0.3-1.6-3.2-3.2-1.2c-0.8,1.1-1.1,2.6-1.7,4
			c-1-1.6,0.3-3.5-1.2-5.1c-1.7,2.3-1.3,5.2-2.9,7.8c-1.1-1.8,1.5-4.5-1.5-5.4c-0.1,0.2-0.1,0.4,0,0.6c-0.1,0.7-0.2,1.4-0.3,2
			c-0.7,8.5,0.6,10.3,9,11.6c9.5,1.6,18.5,5.1,27.9,7c1.6,0.3,2.2,1.1,1.9,2.9c-0.4,2.3-0.5,4.6-1.3,6.8c-1.9,12-4.3,23.9-6.8,35.8
			c0.3,0.1,0.5,0.3,0.4,0.7c-0.4,4.7-1.1,9.3-1.8,14c-1.3,8.4-2.9,16.7-4.4,25.1c-0.4,2.1-0.7,4.1-1,6.2c0.2,0,0.4,0,0.6,0
			c3.5,0.2,4.7,2.6,4.6,5.8c7.5,0.1,15.1,0.1,22.6,0.2c2.2,0,2.8-1.3,3-3.2c0.6-6.7,0.4-13.4,0.2-20.1c-0.3-9.7-0.6-19.5-0.8-29.2
			v-24.8c10.7,26.7,48.9-4.1,25.6-18.3c-2.9-4.4-3.4-9.6-4.4-14.6c-0.1-0.2-0.1-0.5-0.2-0.7c0-0.2-0.1-0.3-0.2-0.4
			c-2.8,8.1-6.5,15.8-12.7,21.9c-1.8,1.8-3.8,3.4-5.9,4.9c-0.8,0.6-1.7,1.8-2.8,1.1c-0.9-0.5-0.4-1.8-0.5-2.8
			c-0.1-0.6-0.1-1.2-0.1-1.8c0-0.2-0.1-0.5-0.2-0.7l0-0.2c-0.1-7.6,1.2-15.3-1.3-22.8c-0.4-1.1,0.1-1.5,1.1-1.8
			c12.7-3.7,20.6-12.8,26.9-23.7c3.4-5.5,5.1-11.4,5.2-17.9c0-6.3,0.9-7.3,7.2-8.1c0.9-0.9,1.9-1.3,3.2-1.5c0.4-0.2,0.8-0.4,1.2-0.6
			c2.8-2.8,4.4-6.5,6.6-9.7c0.1-2.2,0.3-4.4,0.4-6.7C361.3,90.3,361.2,89.7,361.1,89.1z M266.6,98.3c2.9-2.1,5.9-2.2,8.9,0
			c0.5,0.3,1,0.5,1.5,0.8l0.2,0.2l-0.2-0.2c-0.7-0.2-1.8-0.5-2.5-0.7C271.7,98.4,269.2,98.4,266.6,98.3l-0.2,0.2L266.6,98.3z
			 M255.5,112.8c-1.1-0.7-0.5-2-0.2-3c0.7-2.4,2.1-4.4,4-5.9c5.6-4.5,15.5-4.8,20.6,0.2c-8.6-2.2-15-0.2-19.9,6.1
			c-0.5,0.7-1.2,1.3-1.9,1.8C257.3,112.5,256.3,113.4,255.5,112.8z M266.6,118.8c-0.5,0.1-1,0.1-1.4,0.3c-1.5,0.9-3.5,2.1-4.4,0.2
			c-0.8-1.6-2.9-3.1-1.8-5.2c1.1-2,2.5-4,5.2-3.8c0.5,0,0.9,0.2,1.4,0.3c2.3-0.6,5-0.8,5.2,2.1C270.9,115.4,269.7,118,266.6,118.8z
			 M319.5,119.7c-0.3,1.1-0.5,2.1-0.7,3.2c0,0.1-0.1,0.2-0.2,0.3l0,0c-0.5,6.7-8.4,14.8-15.5,16c-5.2,0.9-10.3,1.5-15.1-1.7
			c-2-0.7-4.3-1.1-6-2.6c-4.7-1.7-8-5.2-11-9c-1.3-1.7-0.6-2.3,1.3-2.3c2.3,0,4.6-0.1,6.9-0.1c3.1-0.2,6.1-0.9,8.8-2.6
			c0.6-0.7,1.4-0.7,2.2-0.6c0.2,0,0.4,0,0.7-0.1c1.8-2.9,5.2-2.9,7.7-4.5c4.6-2.8,9.5-5.3,14.2-7.9l0,0c0.3-0.5,0.8-0.7,1.3-0.7
			c2.1-3.2,5.6-5,8-7.8c1-1.1,1.7-0.5,1.8,0.8C324.1,107.1,323.6,113.8,319.5,119.7z M344.3,97.4c-0.3,0-0.6-0.1-0.9-0.2
			c0.2-0.3,0.4-0.6,0.6-0.7c0.3-0.1,0.6,0.1,1.7,0.2C344.9,97.1,344.6,97.3,344.3,97.4z"/>
		<path class="st2" d="M286.3,232.8c-0.5,2.3-1.2,4.6-2.4,6.7c-0.2,2.3-0.7,4.5-1.9,6.6c0.4,0.7,0,1.2-0.4,1.8
			c0.2,4-1.8,6.7-4.7,9.2c-2.5,2-2.9,6.6-1.6,9.2c0.5,1.1,1.3,0.8,2.1,0.7c1-0.1,1.9-0.2,2.9-0.3
			C282.3,255.3,284.7,244.1,286.3,232.8z"/>
		<path class="st4" d="M258.6,56.1c-0.1-1-0.8-1.6-1.7-1.8c-5.7,2.4-8.9,7-11,12.5c0.1,0.6-0.1,1.1-0.6,1.4
			c-0.1,0.2-0.2,0.3-0.2,0.6c0.1,0.7,0,1.2-0.6,1.6c-0.1,0.1-0.2,0.3-0.2,0.5c0.1,0.7,0,1.2-0.5,1.6c-0.2,0.4-0.5,0.8-0.7,1.1
			c-0.1,2-0.2,3.9-1.6,5.5c-0.1,0.2-0.2,0.4-0.2,0.6c-0.6,1.7-1.1,3.5-1.7,5.2c0,3.3,0,6.6,0,9.9c0.5,2.7,1.3,5.3-0.6,7.8
			c-0.2,1.2-0.4,2.4-0.5,3.6c-0.6,4.9-0.7,9.9-2.6,14.6c-3.2,10.9-5.7,22-7.1,33.2c2.7-3,2.4-7,3.3-10.6c1.6-6.5,3.2-12.9,5.2-19.3
			c-2.7,18.1-7.2,35.8-8.4,54.1c-0.3-5.8-1-11.6-0.1-17.4c0.4-2.3,0.5-4.6-0.1-6.9c-1.6,5.5-1.8,11.2-2.1,16.9
			c-0.1,1.8,0.2,3.7-0.6,5.4c0,0.2,0,0.4,0,0.6c0,0,0,0,0.1,0.1c0,0,0,0,0,0.1c0,0,0,0,0,0c0.1,0.1,0.2,0.2,0.3,0.4
			c0.4,0.5,0.8,1,1.1,1.4c0.7,0.9,1.4,1.8,2.2,2.6c0.1,0.1,0.2,0.3,0.4,0.4c0.1,0,0.2,0.1,0.4,0.1c0-6.8,0.9-13.6,1.9-20.3
			c1.8-13.1,5-26.1,6.6-39.2c1.2-9.5,5.3-17.6,9.1-26c0.4-0.9,0.9-1.6,1.9-2c0.1-0.2,0.2-0.3,0.3-0.6c-0.6-2.3,0.2-4.2,1.5-6
			c0.7-2.7,1.5-5.4,1.7-8.2c0.2-1.7,0.5-4.5,0.6-6.2c0.1-0.5,0.1-0.9,0.2-1.4c0.2-1.5,0.2-3,0.1-4.5
			C254.3,64.1,256.2,58.3,258.6,56.1z"/>
		<path class="st5" d="M230.2,92.3c1.3-7.5,2.2-14.9,0.7-22.5c-0.3-1.3-0.7-2.6-1-3.9c-1.2-4.1-3.7-6.3-8-8.3
			c-8.2-3.8-16.2-6.2-25.3-5.8c-7.2,0.3-13.6-2.8-20-5.6c-2.6-1.1-5.2-2-7.9-3c-1-0.4-2.5-0.9-2.3,1c0.7,6.6-3.3,11.2-7,15.8
			c-0.3-0.3-0.5-0.5-0.8-0.8c-0.1-0.3-0.2-0.6-0.4-0.9c-2.5,2.3-5.8,3.8-7.4,7.1l0.1,0c-5.7,3.6-5.3,9.8-6.5,15.4
			c-0.2,1.2,0.4,2.9-1.8,2.9c-0.7-4.2-2.6-7.4-7-8.6c-1-2.1-3.2-1.8-5-2.4c0.1-8.1,1.3-15.9,4.7-23.4c-2.3-0.7-3.4,1-4.6,2.1
			c-1.9,1.9-4,2.2-6.3,1.4c-1.4-0.4-2.1-1.2-1.4-2.7c9.9-9.6,20-15.7,34.6-13.2c-1.2,0-1.4-0.2-2.6-0.7c-2-0.8-0.7-2.2-0.7-3.4
			c0.1-0.4,1.7-3.2,2.5-4.2c6.4-9.2,14.9-14.3,26.3-14.2c-4.5,1.8-8.9,3.7-12.9,7.6c3.9-0.9,7.1-1.7,10.4-2.2
			c6.2-1,12.4-2.5,18.7-1.1l-0.1,0c-1.8,2.2-4.8,2.9-7.5,5.5c7.7-1.3,14.3-3.5,20.4-6.7c4.6-2.5,8.6-5.8,11.3-10.5c0,0-0.1,0-0.1,0
			c1,0,1.5-0.5,1.8-1.4c4.6-1.3,5.2-0.9,5.6,3.8c0.7,7.5-2.1,14-5.8,20.3c-0.6,1-2.5,2.2-1.3,3.3c1.4,1.3,3.6,1.4,5.4,0
			c3.4-2.6,6.8-5.2,9.3-8.7c0.3-0.4,0.6-0.8,1.6-0.6c-1.6,3.5-4.6,5.5-7.1,7.9c-0.7,0.7-2.4,1.1-2,2.3c0.3,1.3,2,1.2,3.1,1.3
			c6.1,1,12.3,1.9,18.5,1.7c3.1-0.1,3.5,1.2,2.5,3.7c-1.7,4.1-4.5,7.5-6.9,11.1c-0.2,0.4-0.4,0.8-0.7,1.2c-0.4,0.5-0.8,0.9-1.2,1.4
			c-2.5,2.1-5.1,3.5-6,7.7c-1.3,6-2.2,11.9-1.9,18C235.6,84.2,232.9,88.2,230.2,92.3z"/>
		<path class="st2" d="M248.2,247.7c0-0.1-0.1-0.2-0.2-0.3c-0.3,8.3-0.7,16.6-1.1,24.9c13.4,0,26.8,0,40.2,0
			c0.1-3.2-1.1-5.6-4.6-5.8c-1.7-0.1-3.4,0.2-5.1,0.4c-0.9,0.1-1.6,0.4-2.1-0.7c-1.4-2.7,0.2-7.6,3.2-8.6c5.3-1.8,5.1-15.8,5.3-18.1
			c-6,0.3-11.4,2.7-17,4.9c-6.4,2.5-9.6,7.4-11.8,13.2c-1.3,3.4-3.3,2.1-5.2,1.3c-2.4-0.9-2.2-2.5-0.9-4.3
			C250.8,252.1,249,250,248.2,247.7z"/>
		<path class="st4" d="M330.4,78.1c1,0.4,2,0.7,3,1.1c-0.4,0.3-0.8,0.6-1.3,0.9c-2.6,0-5.1,0-7.7,0c-2-0.8-3.9-1.6-5.9-2.4
			c-4.5-2.6-9.4-4.7-13.4-8.3c-0.9-0.8-1.8-1.5-2.2-2.7c-1.2-1.1-2-2.9-4-2.9c-0.6-2.2-2.8-2.3-4.4-3.2c-1.4-0.8-2.7-1.4-3.1-3.1
			l0,0c1.4-0.3,2.6,1.3,4.7,0.2c-3.6-3.1-6.5-6.6-10.3-9.1c-2.4-1.6-1.2,1-1.7,1.6c-2.7-3.9-5.1-4-8-0.3c-0.9,1.1-1.9,2.2-2.6,3.5
			c-1.4,2.5-3.1,3.1-5.5,1.4c1.7-0.1,3-0.7,3-2.7c2.5-2.8,3.9-6.5,7.2-8.7c2.5-1.3,4.8-2.8,7.4-3.8c5.1-2,10.4-2.3,16.4-0.1
			c-3.9,0.4-7.2,0-10.5,1.6c4.4,1.3,8.5,2,12.3,3.6c3.9,1.7,7.7,3.6,11.3,5.9c1.3,0.9,2.9,1.9,2.3-1.3c-0.3-1.7,0.8-1.4,1.8-1.1
			c4.4,1.6,8.9,2.8,12.2,6.7c1.7,2,3.2,4.6,6.2,5.3l0,0c1.5,3.7,1.1,7.1,5.2,8.7c0,0,2,0.2,2,0.2c0.1,0.2-1,2.1-0.8,2.3
			c1,1.4,1.4,3.7-0.2,3.4c-0.9,0.1-1.7,0.1-2.6,0.2c-5.5-1.8-10.9-3.9-16.7-3.7c-5-1.4-9.7-3.4-14.2-5.8c-2.5-1.6-5.2-2.7-8.7-3.3
			c1.3,2.3,2.4,3.8,4.5,4.5c6.9,6.2,14.4,11,24.1,11.1C330.2,77.9,330.3,78,330.4,78.1z"/>
		<path class="st4" d="M370.5,182.5c-2.2,1.3-5,0.8-7.2,2.2c-1.8,0.2-3.6,0.4-5.3,0.5c-5-2.1-8.7-5.6-11.4-10.3
			c-3.9-6.8-6-14.1-6.1-21.9c-0.1-5.7,0-11.4,0-17.1c-1.4,5.9-1.8,11.9-2.3,17.9c-0.9,10.6,1.8,19.7,9.6,27.1
			c-5.9-3.5-9-8.9-10.1-15.4c-1.5-8.1-0.1-16.2,0.4-24.2c0.1-2,1.5-4.2-0.5-6.1c3.4-5.5,5.1-11.4,5.2-17.9c0-6.3,0.9-7.3,7.2-8.1
			c0.1,8.6,0.5,17.2,1.5,25.7c1,7.8,1.6,15.7,5,23c1.6,3.4,3.4,6.4-0.5,9.6c-1.6,1.3,0.6,2.5,1.4,3.5c0.5,0.5,1.1,1.1,1.8,0.1
			c2-2.8,2.4-2.9,4.4,0.1C365.9,175,368.2,178.8,370.5,182.5z"/>
		<path class="st6" d="M224.9,249.3c-3,2.1-3,3.9,0.2,5.5c3.1,1.6,6.4,2.2,9.8,2.5c0.9,0.1,2.2-0.1,2.4,1.1c0.3,1.2-0.8,1.6-1.6,2.2
			c-4.3,2.9-5.5,6.9-4.6,11.8c-16.9,0.3-33.9,0.3-50.8-0.1c2.6-1.9,5.8-2.4,8.5-4.1c3.2-2.1,6.8-3.9,10.3-5.4
			c6.2-2.7,8.1-7.7,8.9-13.8c0.6-4,1.9-7.9,3.2-12.6c1.5,2.2,1.1,3.6,0.7,4.9c-1.4,5.5-2.8,11.1-4.1,16.6c-0.3,1.1-1.2,2.6,0.4,3.1
			c1.6,0.5,2.8-0.7,3.4-2.1c1.5-3.5,3.1-6.9,4.3-10.5c1-3,3.1-5.6,3-8.9c4.4,3.3,9.2,6,13.9,8.8c0,0.4,0,0.8,0,1.2
			c-2.4-0.4-4.9-0.6-7.3-0.4C225.4,249.2,225.2,249.2,224.9,249.3z"/>
		<path class="st7" d="M347,186.1c-1.8-4.3-4.7-7.5-9.2-9.2c-2.9-4.4-3.4-9.6-4.4-14.6c-0.1-0.2-0.1-0.5-0.2-0.7
			c0-0.2-0.1-0.3-0.2-0.4c-0.2-2.5-0.1-5-1-7.5c-0.2,0.3-0.3,0.5-0.4,0.8c-0.2,0.8-0.4,1.6-0.7,2.5c-3.6,11.4-9.1,21.5-20,27.6
			c0-0.2-0.1-0.5-0.2-0.7c0,0,0-0.2,0-0.2c-0.1-7.6,1.2-15.3-1.3-22.8c-0.4-1.1,0.1-1.5,1.1-1.8c12.7-3.7,20.6-12.8,26.9-23.7
			c2,1.9,0.7,4.1,0.5,6.1c-0.5,8.1-1.9,16.1-0.4,24.2c1.2,6.5,4.2,11.9,10.1,15.4l-0.1,0c0.6,1.8,1.8,2.8,3.7,3l-0.1,0
			c0,1.1,1.1,1.4,1.7,2C351.1,186,349,186.1,347,186.1z"/>
		<path class="st4" d="M346.4,72.7c-3.1-8.4-8.4-19.9-14.1-26.9c-3.3-4-7.2-7.2-11.6-9.3c0.5,0.8,1.1,1.5,1.6,2.3c0,0,0,0,0,0.1
			c7.4,4.4,12.6,11.4,16.5,19.8c0.5,1,0.8,2.3-1.2,1.7c-4-7-9.8-12.2-16.2-16.8c-4.3-3.1-8.8-6.1-14.3-8c1.6-1.3,3.1-1,4.3-0.7
			c3,0.6,5.7,1.5,8.2,2.7c-0.5-0.7-1-1.4-1.6-2.1c-2.1-0.8-4.3-1.4-6.6-1.7c-7.3-1.1-14.6-2-21.9-3.5c-12.2-2.5-22,7-20.5,19.4
			c0.5,4-1,3.2-3.3,2.5c-5.6-1.5-11.2-2.2-16.7,0.5c-0.5,0.2-1,0.4-1.5,0.6c-0.4,0.4-0.8,0.9-1.2,1.4c0.4,0.2,0.8,0.3,1.2,0.5
			c4.3-2,8.6-3.7,13.5-2.1c2.2,0.2,4.4,0.3,6.3,1.6c0.3,0.1,0.5,0.2,0.8,0.3c1.7-0.1,3-0.7,3-2.7c-0.5-3.9-0.4-7.8,1.2-11.5
			c3-7.3,8.8-10.3,16.7-8.9c2,0.4,4.1,0.6,6.3,1.9c-6.8,1.7-13.3,3.6-17,9.9c2.5-1.3,4.8-2.8,7.4-3.8c5.1-2,10.4-2.3,16.4-0.1
			c-3.9,0.4-7.2,0-10.5,1.6c4.4,1.3,8.5,2,12.3,3.6c3.9,1.7,7.7,3.6,11.3,5.9c1.3,0.9,2.9,1.9,2.3-1.3c-0.3-1.7,0.8-1.4,1.8-1.1
			c4.4,1.6,8.9,2.8,12.2,6.7c1.7,2,3.2,4.6,6.1,5.3C339,64.1,342.4,71.1,346.4,72.7z"/>
		<path class="st5" d="M199.4,18.7c-6.3-1.3-12.5,0.1-18.7,1.1c-3.3,0.5-6.5,1.4-10.4,2.2c4-3.9,8.4-5.9,12.9-7.6
			c5.1-0.1,10.2,0,15.3-0.5c7.2-0.6,14-2.8,20.6-5.7c1.4-0.6,2.7-1.6,4.4-1.3c-2.6,4.7-6.7,8-11.3,10.5c-6.1,3.3-12.6,5.4-20.4,6.7
			C194.6,21.6,197.5,20.9,199.4,18.7c0-0.2,0.1-0.3,0.2-0.5c-0.1,0-0.2,0-0.3,0C199.3,18.4,199.4,18.6,199.4,18.7z"/>
		<path class="st1" d="M358.1,81.4c0.8,2.8,0.2,4.3-2.8,5.8c-2.7,1.3-4.4,4.5-6.5,6.9c-0.5,0.6-0.7,1.6-2.2,1.6
			c1.9-3.6,0.7-5.6-2.7-7.8c-2-1.3-3.3-4.6-4.6-7.1c-0.5-1.1,0-2.9,1.9-3.3c1.5-0.3,3-0.9,4.5-1.3c1.1,0,2.1,0.1,3.2,0.1
			c0.3,0,0.7,0.1,1,0.1c2.2,0.2,3.8,1.7,5.8,2.2c0,0,0,0,0,0c0.3,0.3,0.5,0.5,0.8,0.8c0,0-0.1,0-0.1,0c0.3,0.2,0.5,0.5,0.8,0.7
			c0,0,0.1,0.1,0.1,0.1c0,0.2,0.2,0.3,0.4,0.3C357.9,80.8,358,81.1,358.1,81.4z"/>
		<path class="st7" d="M347.8,181c-7.8-7.4-10.6-16.5-9.6-27.1c0.5-6,0.9-12,2.3-17.9c0,5.7,0,11.4,0,17.1
			c0.1,7.8,2.2,15.1,6.1,21.9c2.7,4.7,6.4,8.2,11.4,10.3c-0.9,0.5-1.9,0.5-2.9,0.3c-1.2-0.5-2.5-1.1-3.7-1.6c0,0,0.1,0,0.1,0
			C350.5,182.7,349.3,181.6,347.8,181L347.8,181z"/>
		<path class="st0" d="M417.4,187.4c-4.2-2.4-6.8-6.3-9.7-10C411.6,180,415.4,182.8,417.4,187.4z"/>
		<path class="st8" d="M351.4,183.9c1.2,0.5,2.5,1.1,3.7,1.6c-0.7,0.1-1.4,0.3-2,0.4C352.5,185.3,351.4,185,351.4,183.9z"/>
		<path class="st9" d="M249,52.5c-0.5,0.2-1,0.4-1.5,0.6c0.2-0.4,0.5-0.8,0.7-1.2C248.6,51.9,248.9,52,249,52.5z"/>
		<path class="st0" d="M407.8,177.4c-1-0.5-2-1-3-1.5C406.1,175.8,407.1,176.2,407.8,177.4z"/>
		<path class="st9" d="M422.5,218.9c-0.3-0.4-0.5-0.8-0.8-1.2C422.2,217.9,422.4,218.4,422.5,218.9z"/>
		<path class="st0" d="M357.8,80.4c-0.2,0-0.3-0.1-0.4-0.3C357.5,80.2,357.7,80.3,357.8,80.4z"/>
		<path class="st0" d="M357.3,80c-0.3-0.2-0.5-0.5-0.8-0.7C356.8,79.5,357,79.8,357.3,80z"/>
		<path class="st0" d="M356.6,79.4c-0.3-0.3-0.5-0.5-0.8-0.8C356.3,78.6,356.5,78.9,356.6,79.4z"/>
		<path class="st2" d="M284,239.5c-6,0.3-11.4,2.7-17,4.9c-6.4,2.5-9.6,7.4-11.9,13.2c-1.3,3.4-3.3,2.1-5.2,1.3
			c-2.4-0.9-2.2-2.5-0.9-4.3c1.7-2.5-0.1-4.6-0.8-6.8c0.1-4.4,0.2-8.9,0.3-13.3c1.9,1.1,3.7,2.3,5.6,3.4c2,1.2,5.1,0.5,5.7-1.8
			c0.9-3.1,0.4-6.3-1.5-9c-0.6-0.8-1.4-1.4-2.5-1.2c-1.2,0.2-1.8,1.2-2,2.3c-0.2,1.5-0.3,3-0.5,5.1c-2.1-2.2-3.6-3.8-5.2-5.5
			c0.4-2.5,0.4-4.9,0.1-7.4c0.2-2.2,0.3-4.3,0.5-6.5c0.5-8.1,0.1-16.3,3.4-24c0.6-0.6,0.8-1.3,0.7-2.2c0.5-0.7,1-1.5,1.5-2.2
			c0.2-0.2,0.5-0.4,0.7-0.7c0.4-0.3,0.9-0.7,1.3-1c1.1-0.2,2.2-0.6,3-1.4c0.3-0.2,0.6-0.3,1-0.5c3.7,0.1,7.5-0.4,11.2,0.2
			c8,1.2,16,2.3,24.2,2.8c-2.2,13.7-4.9,27.2-7.9,40.7C286.7,230.3,286.3,235.2,284,239.5z"/>
		<path class="st4" d="M254.3,185.5c-0.5,0.7-1,1.5-1.5,2.2c-4.4-4.5-4.5-10.5-6.1-16.1c-1.2,7,1.2,12.9,5.4,18.3
			c-3.3,7.7-2.9,15.9-3.4,24c-8.4-2.2-15.6-11.3-17.2-21.7c-1.6-10.3-0.3-20.4,1.1-30.5c1.8-13.1,5-26.1,6.6-39.2
			c1.2-9.5,5.3-17.6,9.1-26c0.4-0.8,0.8-1.5,1.6-1.9c0.6,8.2,1.6,16.4,3.8,24.3c0.9,3.1-1,6-0.2,9c-0.2,3.3-0.4,6.6-0.5,9.8
			c0,0.2-0.5,1.2,0.5,0.7c0.3-0.1,0.5-0.6,0.7-0.8c0.2,0,0.4,0,0.6,0c-0.2,3.1-1.2,5.9-2,8.9c-3.2,12.8-2.6,25.3,3.4,37.3
			c-0.4,0.3-0.9,0.7-1.3,1C254.8,185,254.5,185.2,254.3,185.5z"/>
		<path class="st7" d="M256.3,183.7c-6.1-12-6.6-24.4-3.4-37.3c0.7-2.9,1.8-5.8,2-8.9c0.5-2.7,1.1-5.4,1.9-9.2
			c1.7,4.6,3.9,7.7,5.9,11c-1.7,0.8-4.4,0.1-4.3,3.3c0.1,3.8,0.1,7.5,0.2,11.3c-0.1,0.2-0.1,0.4,0,0.6c-0.1,0.7-0.2,1.4-0.3,2
			c-0.7,8.5,0.6,10.3,9,11.6c9.5,1.6,18.5,5.1,27.9,7c1.6,0.3,2.2,1.1,1.9,2.9c-0.4,2.3-0.5,4.6-1.3,6.8c-8.1-0.5-16.1-1.6-24.2-2.8
			c-3.7-0.6-7.5-0.1-11.2-0.2c-2.9-5.8-3.6-12.2-4.7-18.4c-0.2,6.6,0.5,13,3.8,18.9C258.4,183.2,257.4,183.5,256.3,183.7z"/>
		<path class="st0" d="M279.1,123.6c3.1-0.2,6.1-0.9,8.8-2.6c0.8,0.2,1.7,0.3,2.2-0.6c0.2,0,0.4,0,0.7-0.1c6-1.6,11.4-4.6,16.6-7.9
			c1.9-1.3,4.4-2,5.4-4.5c0,0,0,0,0,0c0.6,0.3,1.1-0.1,1.5-0.5c4.1,2.7,5.2,6.9,5.8,11.3c-0.5,1.3-1,2.5-1.4,3.8
			c-0.1,0.2-0.2,0.4-0.1,0.6c0,0,0,0,0,0c-7.4,10.6-17.2,16.3-30.6,14.4c-2-0.7-4.3-1.1-6-2.6C279.6,131.6,278.9,127.7,279.1,123.6z
			"/>
		<path class="st1" d="M303.2,91.1c5.5-0.4,10.8-0.6,14.8-5.5c1.9-2.3,5.1-2.3,7.8-1.6c2.7,0.7,3.7,3.6,2.1,5.8
			c-0.9,1.3-1.6,2.7-3.1,3.5c-7.1,3.7-13.1,8.9-19.8,13.2c-3.3,2.1-7,2.6-10.4,4c-1.3,0.5-2.9,0.2-2.9,2.4c0,0.9-1.1,0.7-1.8,0.4
			c-2-0.9-4.3-1.6-4.4-4.3c0-1.5,0.2-3.2,0.8-4.6c0.9-2-1.3-4.5,0-5.4c1.2-0.9,3.6-0.2,5.4-1.2c2.3-1.3,4.9-2,7.6-2.6
			c0.1,0,0.2,0.1,0.3,0.2c1.7,1.1,1.8,0.9,2.1-2.3l0,0c0.3-0.4,0.5-0.9,0.8-1.3l0.1-0.1C302.8,91.6,303,91.3,303.2,91.1L303.2,91.1z
			"/>
		<path class="st1" d="M258.5,153.9c0-3.8,0-7.5-0.2-11.3c-0.1-3.2,2.6-2.6,4.3-3.3c2.1,0.5,4.2,1.2,6.4,1.4c5,0.3,7.9,2.9,8.9,7.7
			c0.6,2.7,2,3.6,4.6,3.4c5.6-0.3,11.2,0.4,16.7,0.8c2.6,0.2,5.2,0.8,7.9,3.5c-8.9-2.7-17.1-2.5-25.3-2.9c-2.3-0.1-4.6-0.4-5.3-3.4
			c-0.4-1.6-1.9-1.6-3.3-1.6c-1.5,0-2.6,0.5-3.1,2c-0.4,1.1-0.7,2.3-1.2,3.7c-1.2-0.3-1.6-3.2-3.2-1.2c-0.8,1.1-1.1,2.6-1.7,4
			c-1-1.6,0.3-3.5-1.2-5.1c-1.7,2.3-1.3,5.2-2.9,7.8C258.9,157.5,261.5,154.8,258.5,153.9z"/>
		<path class="st1" d="M311.1,184.5c10.9-6.2,16.3-16.2,20-27.6c0.3-0.8,0.4-1.6,0.7-2.5c0.1-0.2,0.2-0.4,0.4-0.8
			c0.9,2.5,0.8,5,1,7.5c-2.8,8.1-6.5,15.8-12.7,21.9c-1.8,1.8-3.8,3.4-5.9,4.9c-0.8,0.6-1.7,1.8-2.8,1.1c-0.9-0.5-0.4-1.8-0.5-2.8
			C311.2,185.7,311.1,185.1,311.1,184.5z"/>
		<path class="st8" d="M354.3,107.2c0.1,12.4-0.6,24.8,2.9,36.9c1.1,4,2.6,7.8,3.9,11.7c0.3,1,0.8,2,1.1,3.1
			c0.3,1.1,0.2,2.3-1.1,2.7c-1.2,0.4-1.7-0.6-2.1-1.5c-3-6.3-4.5-13-5.4-19.9c-1.3-10.8-0.4-21.6-0.7-32.4
			C353.4,107.6,353.8,107.4,354.3,107.2z"/>
		<path class="st7" d="M318.5,77.7c2,0.8,3.9,1.6,5.9,2.4c0.8,1.4,0.6,2.2-1.2,2.4c-2.8,0.3-5.5,0.7-8.2,1.3
			c-4.7,1.1-8.9,3.1-11.8,7.2c0,0,0,0,0,0c-0.2,0.3-0.4,0.5-0.6,0.8c0,0-0.1,0.1-0.1,0.1c-0.3,0.4-0.5,0.9-0.8,1.3c0,0,0,0,0,0
			c-0.7,0.8-1.4,1.6-2.1,2.3c0-0.1-0.1-0.2-0.3-0.2C299.7,86,307.4,78.9,318.5,77.7z"/>
		<path class="st7" d="M279.9,104.1c-8.7-2.2-15.1-0.2-20,6.2c-0.5,0.7-1.2,1.2-1.9,1.7c-0.8,0.5-1.7,1.4-2.6,0.8
			c-1.1-0.7-0.5-2-0.2-3c0.7-2.4,2.1-4.4,4-5.9C264.9,99.4,274.8,99.1,279.9,104.1z"/>
		<path class="st1" d="M265.5,110.6c2.3-0.6,5-0.8,5.2,2.1c0.2,2.6-1,5.2-4.2,6.1c-0.5,0.1-1,0.1-1.4,0.3c-1.5,0.9-3.5,2.1-4.4,0.2
			c-0.8-1.6-2.9-3.1-1.8-5.2c1.1-2,2.5-4,5.2-3.8C264.6,110.4,265.1,110.5,265.5,110.6z"/>
		<path class="st7" d="M320.1,118.8c-0.6-4.5-1.7-8.7-5.8-11.3c0,0-0.1-0.2-0.1-0.2l-0.2,0c2.1-3.2,5.6-5,8-7.8
			c1-1.1,1.7-0.5,1.8,0.8C324.1,106.8,323.6,113.1,320.1,118.8z"/>
		<path class="st1" d="M287.9,137.6c13.4,1.9,23.1-3.7,30.6-14.4c-0.5,6.7-8.4,14.8-15.5,16C297.8,140.1,292.6,140.8,287.9,137.6z"
			/>
		<path class="st7" d="M250.6,94.1c-0.7-2.3,0.1-4.3,1.4-6.1c2.4-2,4.7-4.2,7.5-5.6c1.5-0.8,3.1-1.5,4.8-1.5c0.9,0,2.2-0.3,2.6,0.8
			c0.5,1.3-0.8,1.6-1.6,2C259.9,86.5,255.2,90.2,250.6,94.1z"/>
		<path class="st7" d="M324.4,71.4c5.9-0.2,11.3,1.9,16.7,3.7c-3,3.3-7,2.6-10.8,3c-0.1-0.1-0.2-0.2-0.3-0.2
			C328.7,75.3,326.2,73.6,324.4,71.4z"/>
		<path class="st7" d="M279.1,123.6c-0.2,4.1,0.5,7.9,2.8,11.4c-4.7-1.7-8-5.2-11-9c-1.3-1.7-0.6-2.3,1.3-2.3
			C274.5,123.7,276.8,123.6,279.1,123.6z"/>
		<path class="st7" d="M298.9,63.8c2,0,2.8,1.8,4,2.9c-3,1.2-6,2.4-9,3.6c-0.7,0.3-1.5,0.5-2-0.1c-0.5-0.7,0.1-1.4,0.5-1.9
			C294,66,296.5,65,298.9,63.8z"/>
		<path class="st1" d="M312.7,107.9c-1,2.5-3.4,3.2-5.4,4.5c-5.2,3.3-10.5,6.3-16.6,7.9c1.8-2.9,5.2-2.9,7.7-4.5
			C303.1,113,308,110.6,312.7,107.9z"/>
		<path class="st7" d="M332.1,80.1c0.4-0.3,0.8-0.6,1.3-0.9c1.5-0.2,3.1-0.4,5.3-0.7c-1.1,2.3-2.1,4.1-3.2,6.3
			C333.6,83.5,333.1,81.6,332.1,80.1z"/>
		<path class="st7" d="M254.2,137.6c-0.2,0.3-0.4,0.7-0.7,0.8c-1,0.5-0.5-0.5-0.5-0.7c0.1-3.3,0.3-6.6,0.5-9.8c0.3-1,0.5-2,1-3.9
			C256,129.2,254.5,133.4,254.2,137.6z"/>
		<path class="st1" d="M275.4,98.4c-2.9,0-5.8,0-8.7,0l0,0C269.5,96.3,272.5,96.2,275.4,98.4C275.4,98.3,275.4,98.4,275.4,98.4z"/>
		<path class="st8" d="M345.7,96.6c-0.8,0.4-1.1,0.7-1.4,0.8c-0.3,0-0.6-0.1-0.9-0.2c0.2-0.3,0.4-0.6,0.6-0.7
			C344.3,96.3,344.6,96.5,345.7,96.6z"/>
		<path class="st8" d="M258.1,156.6c0.1-0.7,0.2-1.4,0.3-2C258.3,155.2,258.2,155.9,258.1,156.6z"/>
		<path class="st8" d="M290.1,120.4c-0.6,0.9-1.4,0.8-2.2,0.6C288.5,120.3,289.3,120.3,290.1,120.4z"/>
		<path class="st8" d="M314,107.3l0.2,0c0,0,0.1,0.2,0.1,0.2c-0.5,0.3-0.9,0.7-1.5,0.5C313,107.4,313.5,107.3,314,107.3z"/>
		<path class="st8" d="M333.3,161.5c0.1,0.2,0.1,0.5,0.2,0.7C333.4,162,333.4,161.8,333.3,161.5z"/>
		<path class="st8" d="M276.8,99.2c-0.5-0.2-1-0.5-1.4-0.7c0,0,0.1-0.1,0.1-0.1C275.9,98.6,276.4,98.8,276.8,99.2L276.8,99.2z"/>
		<polygon class="st8" points="266.6,98.4 266.4,98.6 266.6,98.3 		"/>
		<path class="st8" d="M318.5,123.2c0-0.2,0-0.4,0.1-0.6C318.8,122.9,318.7,123.1,318.5,123.2z"/>
		<path class="st8" d="M310.8,183.6c0,0,0,0.2,0,0.2C310.8,183.8,310.8,183.6,310.8,183.6z"/>
		<polygon class="st8" points="276.9,99.1 277,99.3 276.8,99.2 		"/>
		<path class="st10" d="M291.4,57.4c-0.2-0.3-0.4-0.5-0.7-0.8c0,0,0-0.1,0-0.1C291,56.9,291.3,57.1,291.4,57.4L291.4,57.4z"/>
		<path class="st6" d="M168.7,201.9c2.9,2,5.8,4,8.8,6c-2.8,4.7-6.3,8.9-10.6,12.4c-5,4.1-7.4,4-11.7-0.8c-3.7-4.1-6.5-8.8-9.2-13.5
			c2.9-1.8,5.8-3.5,8.6-5.3c2.1,2,3.2,4.8,4.9,7.1c2.2,2.9,2.7,2.9,4.8-0.2C165.7,205.6,166.7,203.4,168.7,201.9z"/>
		<path class="st6" d="M248.2,220.4c0.3,2.5,0.3,4.9-0.1,7.4c-1.4-0.8-2.7-1.6-4.2-2.2c-0.8-0.4-1.9-1-2.7,0
			c-0.7,0.9,0.1,1.9,0.7,2.6c2.1,2.1,4.3,4.2,6.5,6.3c-0.1,4.4-0.2,8.9-0.3,13.3c-4.4-8.8-10.1-16.4-17.5-22.9
			c1.7-4.3,4.9-6.2,10.3-4.7C243.4,220.8,245.8,220.4,248.2,220.4z"/>
		<path class="st4" d="M236,120.8c-0.1-0.6-0.2-1.2-0.5-2.9c-1.7,5-3.3,9-4.5,13c-3.7,12.8-8,25.5-8.8,38.9
			c-0.1,1.9-0.4,3.9,0.1,5.8c-0.9,2.5,0.5,5,0.1,7.5c-1.6-0.2-3.6,0.8-4.8-1.1c2.4,0.7,4,0.5,3.2-2.7c-0.3-1.4-0.4-2.8-0.6-4.2
			c1.1-23.5,10.1-45,17.4-66.9c0.2-0.7,0.7-1.3,1-1.9C238,111.2,237.9,116.2,236,120.8z"/>
		<path class="st8" d="M228.9,154.1C228.9,154.1,228.9,154.1,228.9,154.1c2.7-3,2.4-7,3.3-10.6c1.6-6.5,3.2-12.9,5.2-19.3
			c-2.7,18.1-7.2,35.8-8.4,54.1c-0.3-5.8-1-11.6-0.1-17.4C229.4,158.7,229.5,156.4,228.9,154.1z"/>
		<path class="st9" d="M247.5,55c-2.2,2.3-4.5,4.5-5.3,7.8c-2.8,4.5-3.1,9.4-2.2,14.4c0.2,1-0.3,2.4,1.5,2.6
			c-0.6,1.7-1.1,3.5-1.7,5.2c-1.1-1.4-0.6-3.4-1.4-4.9c-0.3-6.1,0.6-12,1.9-18c0.9-4.1,3.4-5.6,6-7.7
			C246.7,54.7,247.1,54.8,247.5,55z"/>
		<path class="st6" d="M226.5,189.1c-1.4,9.5-6.1,18-8.8,27.1C218.4,206.4,222.7,197.9,226.5,189.1z"/>
		<path class="st6" d="M225.5,221.3c0-3.3,1.5-6.3,2.4-9.4c0.5-1.8,1.5-1.9,2.3-0.2c0.8,1.8,3.8,2.8,2.3,5.2
			C230.9,219.3,228.8,221.4,225.5,221.3C225.5,221.4,225.5,221.3,225.5,221.3z"/>
		<path class="st6" d="M146.8,237.9c5.1,3.1,11,2.7,16.6,3.7c2.2,0.4,3.6-1.2,5.3-2c-0.5,2.4-2,3.5-4.4,3.3c-4.7-0.2-9.4-0.5-14-1.5
			C148.4,241,146.8,240.3,146.8,237.9z"/>
		<path class="st7" d="M256.9,54.3c1.2-1,2.5-1.3,4-1.4c2.2,0.2,4.4,0.3,6.3,1.6c-0.6,0-1.2,0-1.8-0.1c-3.2-0.5-6-0.5-6.6,3.8
			c-0.1-0.6-0.2-1.3-0.3-1.9C258.5,55.1,257.9,54.6,256.9,54.3z"/>
		<path class="st9" d="M239.2,102.7c-0.1-2.6-0.1-5.2,0.6-7.8C240.3,97.5,241.1,100.2,239.2,102.7z"/>
		<path class="st9" d="M241.7,79.2c0.1-2,0.4-3.8,1.6-5.5C243.2,75.7,243.1,77.7,241.7,79.2z"/>
		<path class="st9" d="M243.6,72.7c-0.2-0.8,0.2-1.3,0.8-1.8C244.5,71.7,244.4,72.4,243.6,72.7z"/>
		<path class="st9" d="M244.5,70.5c0.2-0.5,0.4-1.1,0.6-1.6C245.2,69.5,245.1,70.1,244.5,70.5z"/>
		<path class="st9" d="M245.3,68.3c0.2-0.5,0.4-1,0.7-1.4C246,67.4,245.8,67.9,245.3,68.3z"/>
		<path class="st9" d="M210.5,178.7c0.5,0.2,0.9,0.4,1.4,0.7C211.2,179.4,210.8,179.2,210.5,178.7z"/>
		<path class="st9" d="M209.7,178.2c0.2,0.2,0.4,0.3,0.6,0.5C210.1,178.5,209.9,178.3,209.7,178.2z"/>
		<path class="st9" d="M214.1,180.3c0.3,0.2,0.5,0.3,0.8,0.5C214.6,180.7,214.4,180.5,214.1,180.3z"/>
		<path class="st9" d="M212.6,179.6c0.2,0.1,0.5,0.3,0.7,0.4C213.1,179.9,212.9,179.7,212.6,179.6z"/>
		<path class="st0" d="M172.9,104.2c1.1,0.8,2.3,1.5,3.4,2.3c8.4,5.8,17.4,10.2,27.8,11.2c0.9,4.2-1.6,7.3-3.3,10.7
			c-8.3,5.8-20.7,3.7-27.7-4.9c-2.2-2.7-4.2-5.6-5.2-9.1c0.3-1.2,0.4-2.4,0.9-3.5C169.7,108.5,170,105.5,172.9,104.2z"/>
		<path class="st7" d="M186.9,159.1c-1.9,4.6-2.2,9.7-5.1,13.9c-3.3-0.1-5.9-1.5-8.3-3.9c-5.5-5.6-10.2-11.9-15.2-17.9
			c-1-1.7-2-3.3-3.5-4.5c-0.2-0.5-0.4-1.1-0.6-1.6c1.6-0.3,2.4,0.9,3.5,1.6c8.9,6.4,18.5,10.7,29.9,9.1
			C187.2,157,187,158,186.9,159.1z"/>
		<path class="st7" d="M163.7,63.8c0-1.7,1.3-2.3,2.3-2.7c6.8-3,13.9-4.5,21.3-2.5c2.7,0.7,4.9,2.2,6.4,4.5c0.5,0.8,0.8,1.6,0.3,2.4
			c-0.5,0.9-1.5,0.6-2.3,0.5c-1.8-0.2-3.6-0.4-5.4-0.9c-7-2-14.1-2.6-21.3-1.3C164.7,64,164.2,63.9,163.7,63.8z"/>
		<path class="st7" d="M228.9,90.6c-2.7-6.6-6.7-11.1-12.9-13.3c-1.7-0.6-1.5-1.7-0.4-2.8c2.1-1.9,4.5-2.2,7.1-1.1
			C228.3,75.8,231.5,83.8,228.9,90.6z"/>
		<path class="st7" d="M185.8,85.2c-0.4,0.1-0.8,0.2-1.2,0.3c-0.2-0.3-0.4-0.5-0.7-0.8c-0.2-0.3-0.5-0.6-0.7-0.9
			c-0.2-0.2-0.5-0.5-0.7-0.7c0,0,0,0,0,0c-1.1-1.8-2.9-2.8-4.8-3.7c-5.4-2.4-11.2-2.5-17-2c-0.5-0.1-1.1-0.2-1.6-0.4
			c4.9-4.4,10.7-4.9,16.7-3.2C181.4,75.4,184.9,79.3,185.8,85.2z"/>
		<path class="st7" d="M172.9,104.2c-2.9,1.3-3.2,4.3-4.1,6.8c-0.4,1.1-0.6,2.3-0.9,3.5c-2.6-4.3-3.6-9.2-4.6-14
			c-0.3-1.6-2.4-3.7-0.9-4.6c1.8-1.1,2.7,1.7,4.1,2.7C168.7,100.3,171.3,101.7,172.9,104.2z"/>
		<path class="st7" d="M223.7,101.8c-3.7-6.6-9.2-7.8-15.9-6.8c3.2-3.7,10.3-5,14-2.9C224.6,93.8,225.5,97.1,223.7,101.8z"/>
		<path class="st7" d="M200.8,128.4c1.7-3.4,4.2-6.5,3.3-10.7c0.1-0.2,0.2-0.4,0.1-0.6c3.4,0,6.7,0,10.1,0c0.1,0.3,0.2,0.6,0.4,0.9
			C210.8,122.4,207.5,127.5,200.8,128.4z"/>
		<path class="st1" d="M131.4,93.2c1.9,0.4,3.9,0.8,5.8,1.1c-0.1,0.3-0.1,0.7-0.2,1c-2.1,0-4.1,0-5.8-1.9L131.4,93.2z"/>
		<path class="st1" d="M172.9,71.7c1.7-0.3,3.6-0.9,5.8,0.7C176.3,72.6,174.6,71.6,172.9,71.7z"/>
		<path class="st7" d="M155,64.3c-0.6,0.8-1.3,1.2-2.2,1.5c-0.2-0.2-0.3-0.4-0.5-0.6c0.7-0.5,1.4-1.1,2-1.6
			C154.6,63.8,154.8,64.1,155,64.3z"/>
		<path class="st7" d="M152.8,65.8c-0.7,0.3-1.2,1.2-2.1,0.7c-0.1,0,0.2-0.7,0.4-1.1c0,0-0.1,0-0.1,0c0.4-0.1,0.9-0.2,1.3-0.3
			C152.5,65.4,152.6,65.6,152.8,65.8z"/>
		<path class="st7" d="M157.5,62.2c-0.6,0.5-1.1,1-1.7,1.5c-0.2-0.2-0.4-0.5-0.6-0.7c0.5-0.5,1-0.9,1.5-1.4
			C157,61.8,157.2,62,157.5,62.2z"/>
		<path class="st1" d="M131.2,93.3c-0.2-0.2-0.5-0.5-0.7-0.7c0,0,0.2-0.2,0.2-0.2c0.2,0.2,0.5,0.5,0.7,0.7
			C131.4,93.2,131.2,93.3,131.2,93.3z"/>
		<path class="st7" d="M155.8,63.7c-0.3,0.2-0.5,0.4-0.8,0.6c-0.2-0.2-0.4-0.5-0.7-0.7c0.3-0.2,0.5-0.4,0.8-0.6
			C155.4,63.2,155.6,63.5,155.8,63.7z"/>
		<path class="st7" d="M158.2,61.5c-0.3,0.2-0.5,0.5-0.8,0.7c-0.3-0.2-0.5-0.4-0.8-0.6c0.2-0.3,0.5-0.5,0.7-0.8
			C157.7,61,158,61.3,158.2,61.5z"/>
		<path class="st7" d="M159,60.7c-0.2,0.3-0.5,0.5-0.7,0.8c-0.3-0.2-0.6-0.4-0.8-0.6c0.2-0.2,0.5-0.5,0.7-0.7
			C158.4,60.3,158.7,60.5,159,60.7z"/>
		<path class="st7" d="M159.5,60.1c-0.2,0.2-0.4,0.4-0.6,0.6c-0.3-0.2-0.6-0.4-0.8-0.6c0.2-0.3,0.4-0.5,0.6-0.8
			C159,59.6,159.3,59.8,159.5,60.1z"/>
		<path class="st7" d="M158.7,59.3c-0.2,0.3-0.4,0.5-0.6,0.8c-0.2,0.2-0.5,0.5-0.7,0.7c-0.2,0.3-0.5,0.5-0.7,0.8
			c-0.5,0.5-1,0.9-1.5,1.4c-0.3,0.2-0.5,0.4-0.8,0.6c-0.7,0.5-1.4,1.1-2,1.6c-0.4,0.1-0.9,0.2-1.3,0.3c1.6-3.3,4.9-4.7,7.4-7.1
			C158.5,58.7,158.6,59,158.7,59.3z"/>
		<path class="st6" d="M52.3,241.7C52.3,241.7,52.3,241.7,52.3,241.7C52.3,241.7,52.3,241.7,52.3,241.7L52.3,241.7z"/>
		<path class="st8" d="M373.5,181.9c-0.4-0.1-0.9,0-1-0.3c-3.7-4.5-6.4-9.6-9.3-14.6c-0.3-0.6-0.2-1.2,0.7-1.3
			c1.1-0.2,1.9,0.2,2.5,1.2c1.7,2.9,3.5,5.8,5,8.8c1,1.9,1.8,4,2.7,5.9C373.9,181.8,373.7,181.9,373.5,181.9z"/>
		<path class="st9" d="M224.9,249.3c0.2-0.1,0.5-0.1,0.7-0.2C225.4,249.2,225.2,249.2,224.9,249.3z"/>
		<path class="st1" d="M157.7,160.8c-3.9-4.8-3.8-5.5,0.5-9.6c-1-1.7-2-3.3-3.5-4.5c-0.2-0.5-0.4-1.1-0.6-1.6
			c-0.1-1.8-2.1-2.1-2.9-3.4c-0.9,4.7-3.2,9.1-5.6,13.1c-0.5,0.8-1,1.6-1.5,2.3c-2.4,7-1.3,13.8,1.1,20.7c1.4,4,1.6,8.4,4.3,11.9
			c0.3,0.5,0.5,1,0.8,1.4c0,0,0,0,0,0c0.8,0.2,1.7,0.2,2.4,0.6c5.5,3.6,11.6,5.1,18.2,4.5c3.2-5.6,6.1-11.3,8.3-17.4
			C170.1,175.1,163.7,168.2,157.7,160.8z"/>
		<path class="st1" d="M150.3,191.3c0.8,0.2,1.7,0.2,2.4,0.6c5.5,3.6,11.6,5.1,18.2,4.5c-0.7,1.8-1.4,3.7-2.1,5.5
			c-1.9,1.5-3,3.7-4.3,5.7c-2.1,3.1-2.7,3.1-4.8,0.2c-1.7-2.3-2.8-5.1-4.9-7.1C153.4,197.4,150.8,194.8,150.3,191.3z"/>
		<path class="st8" d="M149.5,189.8c0.3,0.5,0.5,1,0.8,1.4C149.6,191,149.6,190.4,149.5,189.8z"/>
		<path class="st10" d="M52.3,241.7c-0.1-0.7,0.2-1.2,0.8-1.5C52.8,240.7,52.6,241.2,52.3,241.7z"/>
		<path class="st9" d="M324.4,71.4c1.8,2.2,4.3,3.8,5.6,6.5c-9.7-0.1-17.2-4.9-24.1-11.1c1.4-0.4,2.8-0.8,4.2-1.2
			C314.7,68,319.5,70,324.4,71.4z"/>
		<path class="st7" d="M310.2,65.6c-1.4,0.4-2.8,0.8-4.2,1.2c-2.1-0.6-3.2-2.2-4.5-4.5C304.9,62.9,307.6,64,310.2,65.6z"/>
		<path class="st8" d="M347.8,181c1.5,0.6,2.7,1.7,3.7,3C349.6,183.7,348.3,182.8,347.8,181z"/>
		<path class="st7" d="M199.4,18.7c0-0.1-0.1-0.3-0.1-0.4c0.1,0,0.2,0,0.3,0C199.5,18.4,199.4,18.5,199.4,18.7
			C199.3,18.7,199.4,18.7,199.4,18.7z"/>
		<path class="st9" d="M349,76.3c0.4-0.3,0.7-0.2,1,0.1C349.7,76.4,349.4,76.3,349,76.3z"/>
		<path class="st2" d="M258.3,227.1c-0.6-0.8-1.4-1.4-2.5-1.2c-1.2,0.2-1.8,1.2-2,2.3c-0.2,1.5-0.3,3-0.5,5.1
			c-1.8-1.9-3.2-3.4-4.5-4.8c0,1.4-0.1,2.7-0.1,4.1c0,0.6,0,1.3-0.1,1.9c1.8,1.1,3.7,2.2,5.5,3.4c2,1.2,5.1,0.5,5.7-1.8
			C260.6,232.9,260.2,229.8,258.3,227.1z"/>
		<path class="st4" d="M259.3,182.3c-3.2-5.9-3.9-12.3-3.8-18.9c1.1,6.3,1.8,12.6,4.7,18.4C259.9,182,259.6,182.2,259.3,182.3z"/>
		<path class="st10" d="M252.1,189.9c-4.2-5.4-6.6-11.3-5.4-18.3c1.6,5.5,1.7,11.6,6.1,16.1C252.9,188.5,252.7,189.3,252.1,189.9z"
			/>
		<path class="st10" d="M254.3,185.5c0.2-0.2,0.5-0.4,0.7-0.7C254.8,185,254.5,185.2,254.3,185.5z"/>
		<path class="st9" d="M299.7,95.6c0.7-0.8,1.4-1.6,2.1-2.3C301.5,96.5,301.3,96.7,299.7,95.6z"/>
		<path class="st9" d="M301.7,93.3c0.3-0.4,0.5-0.9,0.8-1.3C302.2,92.4,302,92.8,301.7,93.3z"/>
		<path class="st9" d="M302.6,91.8c0.2-0.3,0.4-0.5,0.6-0.8C303,91.3,302.8,91.6,302.6,91.8z"/>
		<g>
			<path class="st7" d="M287.8,54.5C287.8,54.5,287.8,54.5,287.8,54.5C287.8,54.5,287.8,54.5,287.8,54.5L287.8,54.5z"/>
			<path class="st7" d="M289.3,56C289.3,56,289.3,55.9,289.3,56C289.3,55.9,289.3,55.9,289.3,56C289.2,55.9,289.3,56,289.3,56z"/>
			<path class="st7" d="M286,54.2c-0.1,0-0.2,0.1-0.3,0.1C285.9,54.3,286,54.2,286,54.2z"/>
			<g>
				<path class="st7" d="M289.2,55.9C289.2,55.9,289.2,56,289.2,55.9C289.3,56,289.3,56,289.2,55.9L289.2,55.9z"/>
				<path class="st7" d="M286,55.5c0,0,1.8-1,1.8-1c0,0-0.6-0.3-0.5-0.3L286,55.5z"/>
				<path class="st7" d="M285.8,48.6c-2.3-1.5-1.9-3.6-2.3-3c0,0-1.2,1.2-1.2,1.2c-2.7-3.9-3.2-0.7-6.2,3c-0.9,1.1-1.9,2.2-2.6,3.5
					c-1.4,2.5-3.1,3.1-5.5,1.4c-0.3-0.1-0.5-0.2-0.8-0.3c-0.6,0-1.2,0-1.8-0.1c-3.2-0.5-6-0.5-6.6,3.8c-0.1-0.6-0.2-1.3-0.3-1.9
					c-1.9,1.7-3.4,5.5-3.9,8.9c-0.6,0.5-1.3,1-2,1.6c-0.2,1.4,1.4,7.2,1.2,8.6c0.1-0.1,0.1-0.2,0.2-0.3c-0.1,1.2-0.3,2.3-0.4,3.5
					c2.5-2.2,3.1-5.6,4.8-8.3c5.5-8.9,13-14.2,23.9-13.4c2.4,0.2,4.8,0,7.2,0c-0.1-0.1-0.1-0.3-0.2-0.4c0.4,0,1.1-0.1,1.4,0.2
					c0.2,0.3,0.4,0.5,0.7,0.8c1.4-0.3,2.6,1.3,4.7,0.2C292.6,54.5,289.7,51.1,285.8,48.6z M258.4,62.8c0.1-0.6,0.2-1.2,0.3-1.7l0,0
					C258.7,61.7,258.6,62.2,258.4,62.8z M284.9,50.9C284.9,50.9,284.9,50.9,284.9,50.9C284.9,50.8,284.9,50.9,284.9,50.9
					C284.9,50.9,284.9,50.9,284.9,50.9z"/>
			</g>
			<path class="st7" d="M285.8,54.4C285.6,54.4,285.4,54.5,285.8,54.4L285.8,54.4z"/>
		</g>
		<path class="st1" d="M179.1,179c-8.9-3.9-15.4-10.8-21.4-18.2c-3.9-4.8-3.8-5.5,0.5-9.6c5.1,6,9.7,12.3,15.2,17.9
			c2.3,2.3,4.9,3.8,8.3,3.9C181.5,175.3,180.5,177.3,179.1,179z"/>
		<path class="st7" d="M240,77.3c-0.9-5.1-0.6-9.9,2.2-14.4C243.4,68,241.9,72.6,240,77.3z"/>
		<path class="st9" d="M183.9,84.7c0.2,0.3,0.4,0.5,0.7,0.8C184,85.5,184,85.1,183.9,84.7z"/>
		<path class="st9" d="M182.5,83c0.2,0.2,0.5,0.5,0.7,0.7C182.9,83.5,182.7,83.3,182.5,83z"/>
		<path class="st2" d="M347.8,205.4c-0.1,1.7-0.3,11.1-0.2,14.2c1,15.8,3.4,31.6,6.4,47.1c0,0.2,0.1,0.4,0.1,0.6l7.5-0.3
			c0.1,0,0.3,0,0.4,0.1c0,0,0.1,0,0.1-0.1l66.9,0.5l-22.2-32.2c0,0,0.1-0.1,0.1-0.1c-2-10.3-4.1-20.6-7.2-30.7
			c-3.2,2.5-3.3,2.1-4.4-2.3c-1.2-4.9-2.8-9.8-4.1-14.7c-0.6-2.1-1.8-2.7-3.9-3c-8-1.4-16,0.4-24,0.2c-1.8,0.2-3.6,0.4-5.4,0.5
			c-0.9,0.5-1.9,0.5-2.8,0.3c-0.7,0.1-1.4,0.3-2,0.4c-2,0.1-4,0.1-6,0.2C348.2,192.5,348.1,198.9,347.8,205.4z"/>
		<path class="st4" d="M360,91.2c0,1.2-6.3,12.9,14.1,33.4c38.9,39.3,89.5,59,76.1,121.4c-3.1,14.3-14.9,25-28.7,20.2
			c-7.2-2.5-14-6.3-20-11.4c-28.4-23.9-52.3-65.7-57.9-86.3c-7-25.7-0.8-31.8-4.5-41.7c2.5-11.1,3.7-24.7,9.9-27.1
			C355.1,97.4,360,91.2,360,91.2z"/>
		<path class="st1" d="M273,57.7c0,0-19,3.9-22.7,42.1c0,12.3,7.4,64.1,60.4,57.9c13.6-4.9,29.6-12.3,33.3-48.1
			c14.8-1.2,23.4-17.3,12.3-30.8c-6.2-6.2-17.3-4.9-21,6.2C326.7,70.3,306.8,50.1,273,57.7z"/>
		<g>
			<defs>
				<path id="XMLID_00000116951208049405048470000012303554976410491583_" d="M270.6,122.7c0,0,22.2,6.2,51.8-23.4
					c1.2,14.8,0.2,26.7-19,36.8C287.3,144.2,268.1,126.4,270.6,122.7z"/>
			</defs>
			<use xlink:href="#XMLID_00000116951208049405048470000012303554976410491583_"  style="overflow:visible;fill:#7C576A;"/>
			<clipPath id="XMLID_00000126301505312851363200000002054580909141277880_">
				<use xlink:href="#XMLID_00000116951208049405048470000012303554976410491583_"  style="overflow:visible;"/>
			</clipPath>
			<path style="clip-path:url(#XMLID_00000126301505312851363200000002054580909141277880_);fill:#FBFBF8;" d="M278.6,120.8
				c0,1.2-2.1,12.5,14.4,19.2c15.6-2.7,24.6-7,26.3-11.8c4.9-13.6-7.5-24-8.6-23.4C305.7,107.3,278.6,120.8,278.6,120.8z"/>
		</g>
		<g>
			<g>
				<g>
					<path class="st7" d="M256.3,105.5c0,0-0.1-0.3-0.3-1c-0.1-0.6-0.3-1.6-0.1-2.8c0.1-1.2,0.5-2.7,1.4-4.1c0.9-1.4,2.2-2.9,4-3.8
						c1.8-1,3.7-1.3,5.4-1.2c1.7,0.1,3.1,0.5,4.2,1.1c1.1,0.6,1.8,1.2,2.3,1.7c0.5,0.5,0.7,0.8,0.7,0.8s-0.4,0-1-0.1
						c-0.6,0-1.5-0.1-2.5,0c-2,0.2-4.5,0.8-6.7,2c-2.2,1.2-4.2,2.9-5.4,4.5c-0.6,0.8-1.1,1.5-1.4,2.1
						C256.5,105.2,256.3,105.5,256.3,105.5z"/>
				</g>
			</g>
		</g>
		<g>
			<g>
				<g>
					<path class="st7" d="M320.7,84.1c0,0-0.5-0.2-1.3-0.6c-0.8-0.4-2-0.8-3.5-1.2c-2.9-0.8-6.9-1.2-11-0.3c-4,0.8-7.6,2.8-9.9,4.6
						c-1.2,0.9-2.1,1.8-2.7,2.5c-0.6,0.7-0.9,1-0.9,1s0.1-0.5,0.3-1.4c0.2-0.9,0.7-2.2,1.5-3.7c0.8-1.5,2.1-3.1,3.9-4.6
						c1.8-1.5,4.2-2.7,6.9-3.3c2.7-0.5,5.4-0.3,7.6,0.3c2.2,0.6,4.1,1.6,5.5,2.7c1.4,1,2.3,2.1,2.8,2.8
						C320.5,83.7,320.7,84.1,320.7,84.1z"/>
				</g>
			</g>
		</g>
		<g>
			<g>
				<g>
					<path class="st7" d="M253,94c0,0,0-0.3-0.1-0.9c0-0.3,0-0.6,0-1c0-0.4,0-0.9,0.1-1.4c0.1-1,0.4-2.2,0.9-3.5
						c0.5-1.3,1.3-2.6,2.3-3.8c1-1.2,2.2-2.2,3.3-2.9c1.2-0.7,2.3-1.2,3.3-1.5c0.5-0.2,0.9-0.3,1.3-0.3c0.4-0.1,0.7-0.1,1-0.2
						c0.6,0,0.9-0.1,0.9-0.1s-0.3,0.2-0.7,0.4c-0.2,0.1-0.5,0.3-0.8,0.5c-0.3,0.2-0.7,0.4-1.1,0.7c-0.8,0.5-1.6,1.2-2.5,2.1
						c-0.9,0.8-1.8,1.8-2.7,2.8c-0.9,1.1-1.6,2.1-2.3,3.2c-0.6,1-1.2,2-1.6,2.9c-0.2,0.4-0.4,0.8-0.5,1.2c-0.2,0.4-0.3,0.7-0.4,0.9
						C253.1,93.7,253,94,253,94z"/>
				</g>
			</g>
		</g>
		<g>
			<g>
				<g>
					<path class="st7" d="M313.5,70.8c0,0-0.4,0-1.1-0.1c-0.7-0.1-1.7-0.2-2.9-0.3c-2.4-0.2-5.8-0.2-9.4-0.1c-3.6,0.2-6.9,0.6-9.4,1
						c-1.2,0.2-2.2,0.4-2.9,0.6c-0.7,0.1-1.1,0.2-1.1,0.2s0.3-0.2,0.9-0.6c0.6-0.4,1.5-0.9,2.6-1.4c2.3-1,5.7-2.1,9.6-2.3
						c3.9-0.2,7.4,0.5,9.8,1.3c1.2,0.4,2.1,0.8,2.8,1.1C313.2,70.6,313.5,70.8,313.5,70.8z"/>
				</g>
			</g>
		</g>
		<g>
			<g>
				<g>
					<path class="st4" d="M443.9,239c0,0,0.2,0,0.6,0c0.4,0,0.9,0,1.7-0.1c1.5-0.2,3.6-0.5,6.2-1.3c2.6-0.8,5.8-2.1,9-4.2
						c3.2-2.1,6.6-5,9.3-9c2.7-3.9,4.8-8.8,5.6-14.3c0.4-2.7,0.5-5.6,0.2-8.5c-0.3-2.9-1.1-5.8-2.2-8.7c-2.3-5.7-6.3-11.1-11.3-15.6
						c-2.5-2.3-5.3-4.4-8.3-6.4c-3-1.9-6.2-3.7-9.5-5.3c-6.6-3.1-13.6-5.5-20.4-7.7c-6.8-2.2-13.5-4.3-19.8-6.6
						c-3.1-1.2-6.2-2.5-9.1-3.8c-1.4-0.7-2.9-1.4-4.2-2.1c-0.7-0.4-1.4-0.7-2-1.1c-0.6-0.4-1.3-0.7-1.9-1.1
						c-5.1-2.8-10-5.3-14.4-7.9c-4.3-2.6-8.1-5.4-10.9-8.4c-2.8-3-4.6-6.2-5.3-9c-0.7-2.8-0.7-5-0.6-6.5c0-0.7,0.2-1.3,0.2-1.7
						c0.1-0.4,0.1-0.6,0.1-0.6s0,0.2,0,0.6c0,0.4-0.1,0.9,0,1.7c0,1.5,0.2,3.6,1.2,6.2c0.9,2.6,2.8,5.4,5.7,7.9
						c2.9,2.6,6.7,4.9,11.1,7.1c4.4,2.2,9.4,4.4,14.8,6.9c2.7,1.3,5.3,2.5,8.2,3.7c2.8,1.1,5.8,2.2,8.9,3.3
						c6.2,2.1,12.8,3.9,19.8,5.9c6.9,2.1,14.1,4.4,21.3,7.7c3.6,1.7,7,3.6,10.2,5.8c3.2,2.1,6.2,4.5,9,7.1
						c5.5,5.2,9.8,11.4,12.2,18.1c1.1,3.3,1.9,6.7,2.1,10.1c0.2,3.3-0.1,6.6-0.7,9.6c-1.3,6.1-4,11.3-7.3,15.4
						c-3.3,4.1-7.2,6.9-10.7,8.8c-3.6,1.9-7,2.9-9.8,3.5c-2.8,0.5-5,0.6-6.5,0.6c-0.7,0-1.3,0-1.7,0C444.1,239,443.9,239,443.9,239z
						"/>
				</g>
			</g>
		</g>
		<g>
			<g>
				<g>
					<path class="st4" d="M359.6,100.9c0,0,0.2-0.1,0.7-0.3c0.2-0.1,0.5-0.2,0.8-0.4c0.3-0.2,0.6-0.4,1-0.7c1.5-1,3.4-2.9,4.7-5.7
						c1.4-2.8,1.9-6.6,0.5-10.4c-1.4-3.7-4.7-7.2-9.1-8.3c-2.2-0.6-4.5-0.6-6.7-0.4c-2.2,0.2-4.4,0.6-6.5,1c-4.2,0.7-8,1.3-11.2,1.8
						c-6.4,1-10.4,1.5-10.4,1.5s3.9-1.1,10.2-2.7c3.1-0.8,6.9-1.7,11.1-2.7c2.1-0.5,4.3-1,6.7-1.3c2.4-0.3,5-0.3,7.6,0.4
						c2.6,0.7,4.9,2.1,6.7,3.9c0.9,0.9,1.6,1.9,2.3,2.9c0.6,1,1.1,2.1,1.5,3.2c0.7,2.2,0.9,4.4,0.5,6.4c-0.3,2-1,3.8-1.9,5.2
						c-1.7,2.9-4,4.6-5.6,5.4c-0.4,0.2-0.8,0.4-1.1,0.5c-0.3,0.1-0.6,0.3-0.8,0.3C359.9,100.8,359.6,100.9,359.6,100.9z"/>
				</g>
			</g>
		</g>
		<path class="st1" d="M105.2,232l4.5-2c-0.4-1.9-0.9-3.7-1.5-5.5l-4.9,0.5c-0.9-2.8-2.1-5.4-3.5-7.9l3.7-3.3c-1-1.7-2-3.3-3.1-4.8
			l-4.5,2c-1.7-2.3-3.7-4.5-5.8-6.4l2.5-4.3c-1.4-1.3-2.9-2.5-4.4-3.6l-3.7,3.3c-2.4-1.7-4.9-3.1-7.5-4.4l1.1-4.8
			c-1.7-0.8-3.5-1.5-5.3-2.1l-2.5,4.3c-2.7-0.8-5.6-1.4-8.5-1.8l-0.5-4.9c-1.9-0.2-3.8-0.3-5.7-0.3l-1,4.9c-2.2,0-4.5,0.2-6.8,0.6
			c-0.6,0.1-1.2,0.2-1.8,0.3l-2-4.6c-1.9,0.4-3.7,0.9-5.5,1.5l0.5,4.9c-2.8,0.9-5.4,2.1-7.9,3.5l-3.3-3.7c-1.7,1-3.3,2-4.8,3.1
			l2,4.5c-2.3,1.7-4.5,3.7-6.4,5.8l-4.3-2.5c-1.3,1.4-2.5,2.9-3.6,4.4l3.3,3.7c-1.7,2.4-3.1,4.9-4.4,7.5l-4.8-1.1
			c-0.8,1.7-1.5,3.5-2.1,5.3l4.3,2.5c-0.8,2.7-1.4,5.6-1.8,8.5l-4.9,0.5c-0.2,1.9-0.3,3.8-0.3,5.7l4.9,1c0,2.2,0.2,4.5,0.6,6.8
			c0.1,0.6,0.2,1.2,0.3,1.8l-4.5,2c0.4,1.9,0.9,3.7,1.5,5.5l4.9-0.5c0.9,2.8,2.1,5.4,3.5,7.9l-3.7,3.3c1,1.7,2,3.3,3.1,4.8l4.5-2
			c1.7,2.3,3.7,4.5,5.8,6.4l-2.5,4.3c1.4,1.3,2.9,2.5,4.4,3.6l3.7-3.3c2.4,1.7,4.9,3.1,7.5,4.4l-1.1,4.8c1.7,0.8,3.5,1.5,5.3,2.1
			l2.5-4.3c2.7,0.8,5.6,1.4,8.5,1.8l0.5,4.9c1.9,0.2,3.8,0.3,5.7,0.3l1-4.9c2.2,0,4.5-0.2,6.8-0.6c0.6-0.1,1.2-0.2,1.8-0.3l2,4.5
			c1.9-0.4,3.7-0.9,5.5-1.5l-0.5-4.9c2.8-0.9,5.4-2.1,7.9-3.5l3.3,3.7c1.7-1,3.3-2,4.8-3.1l-2-4.5c2.3-1.7,4.5-3.7,6.4-5.8l4.3,2.5
			c1.3-1.4,2.5-2.9,3.6-4.4l-3.3-3.7c1.7-2.4,3.1-4.9,4.4-7.5l4.8,1.1c0.8-1.7,1.5-3.5,2.1-5.3l-4.3-2.5c0.8-2.7,1.4-5.6,1.8-8.5
			l4.9-0.5c0.2-1.9,0.3-3.8,0.3-5.7l-4.9-1c0-2.2-0.2-4.5-0.6-6.8C105.4,233.3,105.3,232.7,105.2,232z M88,236.6
			c2.7,18-9.6,34.8-27.6,37.5c-18,2.7-34.8-9.6-37.5-27.6c-2.7-18,9.6-34.8,27.6-37.6C68.5,206.2,85.3,218.6,88,236.6z"/>
		<g>
			<path class="st6" d="M231.5,192.2c-0.4-2.3-0.6-4.7-0.7-7c-0.7,0.3-1.4,0-1.9-0.5c-0.8-0.7-1.4-1.5-2-2.3
				c-0.1-0.2-0.2-0.3-0.4-0.5c0,0.1,0,0.1,0,0.2c0,1.1,0.8,2.6-0.9,3c-1.5,0.4-2.5-0.7-3-2c-1.6-0.2-3.6,0.8-4.8-1.1
				c-0.9-0.4-1.9-0.8-2.8-1.2c-0.3-0.2-0.5-0.3-0.8-0.5c-0.2-0.1-0.5-0.2-0.7-0.3c-0.2-0.1-0.5-0.3-0.7-0.4l-0.8-0.3
				c-0.6,0.1-1.1-0.1-1.4-0.7l-0.1-0.1l-0.6-0.5c-5.2-2.9-8.8-5.6-13.7-6.8c-1.2,1.1-1.8-0.6-1.6,0.1c3.7,13.5,2.7,27-0.6,40.4
				c-0.9,3.8-1.8,4.2-5.3,2.4c-3.8-2-7.4-4.2-11.1-6.4c-2.8,4.7-6.3,8.9-10.6,12.4c-0.6,0.5-1.1,0.9-1.7,1.3c-2.5,0-5.1,0.1-7.7,0.2
				c-0.7-0.6-1.5-1.3-2.3-2.2c-3.7-4.1-6.5-8.8-9.2-13.5c-3.2,1.8-6.4,3.5-9.5,5.5c-2.7,1.8-4.4,1.2-5.7-1.7
				c-4.3-10-5.5-20.4-3.5-31.1c0.6-3.4,1.5-6.8,2.3-10.1c-0.9-0.4-1.4,0-1.9,0.3c-11.9,7.3-25,11.4-38.7,13.8
				c-0.1,0-1.4,0.3-3.1,0.7c-6.2-0.1-12.4,0.4-18.5-0.9c-1.6-0.3-2.5,0.4-3.3,1.5l0.5,4.7c1.4,0.2,2.8,0.5,4.2,0.9l2.5-4.4l2.4,0.8
				c0.2,0.1,3.1,1.1,3.1,1.1c0.9,0.3,1.7,0.7,2.5,1.1l2.3,1l-1.1,4.9c1.2,0.7,2.5,1.4,3.7,2.1l3.8-3.4l2,1.5
				c1.6,1.2,3.2,2.5,4.7,3.8l1.9,1.7l-2.6,4.4c1,1,1.9,2.1,2.8,3.2l4.6-2.1l1.5,2c1.2,1.6,2.3,3.3,3.3,5.1l1.3,2.2l-3.8,3.4
				c0.6,1.3,1.2,2.6,1.7,3.9l5-0.5l0.8,2.4c0.6,1.9,1.1,3.9,1.5,5.8l0.5,2.5l-4.6,2c0.2,1.4,0.3,2.8,0.4,4.2l5,1l0,2.5
				c0,1.9-0.1,4-0.3,6l-0.3,2.5l-5.1,0.5c-0.2,1.4-0.5,2.8-0.9,4.2l4.4,2.5l-0.8,2.4c-0.6,1.9-1.4,3.8-2.2,5.6l-1,2.3l-4.9-1.1
				c-0.7,1.2-1.4,2.5-2.1,3.7l2,2.2c9.4,0.2,18.9,0.1,28.3,0l7.7,0c12.5,0.3,25,0.3,37.5,0l38.9,0c0,0-0.5-7.5-1.9-16.7
				c1-2.4,2-4.7,2.8-7.2c1-3,3.1-5.6,3-8.9c-2.6-3-5.5-5.7-7.4-9.3c-1.3-2.4-2.3-4.8-2.1-7.6c0.2-3.7,1.9-5.2,5.7-4.8
				c3.7,0.4,6.9,2,10.3,3.4c0-3.3,1.5-6.3,2.4-9.4c0.5-1.8,1.5-1.9,2.3-0.2c0.8,1.8,3.8,2.8,2.3,5.2c-1.5,2.4-3.6,4.6-6.9,4.5
				c1.5,1.5,3.4,2.5,5.2,3.4c1.7-4.3,4.9-6.2,10.3-4.7c2.4,0.7,4.8,0.3,7.2,0.3c0.2-2.2,0.3-4.3,0.5-6.5
				C240.2,211.7,233.1,202.6,231.5,192.2z M211.3,236.3c1.5,2.2,1.1,3.6,0.7,4.9c-0.3,1.2-0.6,2.3-0.9,3.5c-0.3-1.4-0.7-2.8-1-4.1
				C210.5,239.3,211,237.8,211.3,236.3z M217.7,216.2c0.7-9.7,5-18.3,8.8-27.1C225.1,198.6,220.5,207,217.7,216.2z"/>
		</g>
		<path class="st1" d="M51.9,218.4c-12.8,2-21.6,13.9-19.6,26.7c0.9,6.2,4.2,11.6,9.3,15.3c4.1,3,8.9,4.6,13.8,4.6
			c1.2,0,2.4-0.1,3.6-0.3c12.8-2,21.6-13.9,19.6-26.7C76.7,225.2,64.7,216.4,51.9,218.4z M58.4,260.7c-5.1,0.8-10.3-0.5-14.4-3.5
			c-4.2-3.1-6.9-7.6-7.7-12.7c-1.6-10.6,5.7-20.5,16.3-22.1c1-0.2,2-0.2,2.9-0.2c9.4,0,17.7,6.9,19.2,16.5v0
			C76.3,249.2,69,259.1,58.4,260.7z"/>
		<path class="st12" d="M308.1,158.3c0,0,2.8-0.1,2.7,17.6s1.5,36.2,1.9,60.2c0.4,24,1.7,36.3-3.3,36.3c8.6-1.2,8.6-1.2,8.6-1.2
			s-2.5-32.1-3.7-51.8C313.1,199.7,314.2,161.3,308.1,158.3z"/>
		<path class="st6" d="M119.5,173.3l26-18c0,0,2.6,21.9,22.7,20.7c7.7-0.5,14.4-5.4,17.3-12.5l0,0l19,11.8c0,0,5.2,30.7-4.7,41.8
			c-9.9,11.1-23.4,11.1-34.5,12.3c-11.1,1.2-34.5,6.2-40.7-7.4C118.4,208.4,119.5,173.3,119.5,173.3z"/>
		<g>
			<path class="st0" d="M199.1,172c-0.5,1-1.2,2-1.9,3.1c-2.5,3.7-6.3,7.6-11.3,10.5c-5,2.9-11.4,4.6-18.1,4.4
				c-6.7-0.3-12.9-2.4-17.7-5.7c-4.8-3.3-8.3-7.5-10.5-11.3c-2.2-3.9-3.4-7.4-3.9-9.8c0-0.2-0.1-0.3-0.1-0.5
				c-0.1,0.1-0.2,0.1-0.3,0.2c0,0.1,0,0.2,0,0.4c0.3,2.5,1.2,6.2,3.2,10.4c2.1,4.1,5.4,8.7,10.4,12.4c5,3.7,11.7,6.2,18.8,6.4
				c7.2,0.2,14-1.7,19.3-5c5.3-3.3,8.9-7.7,11.3-11.6c0.6-1.1,1.2-2.1,1.6-3.1C199.6,172.4,199.3,172.2,199.1,172z"/>
		</g>
		<g>
			<path class="st1" d="M230.9,69.8c-0.3-1.3-0.7-2.6-1-3.9c-1.2-4.1-3.7-6.3-8-8.3c-8.2-3.8-16.2-6.2-25.3-5.8
				c-7.2,0.3-13.6-2.8-20-5.6c-2.6-1.1-5.2-2-7.9-3c-1-0.4-2.5-0.9-2.3,1c0.7,6.6-3.3,11.2-7,15.8c-0.2,0.2-0.4,0.4-0.6,0.6
				c-0.2,0.3-0.5,0.5-0.7,0.8c-0.3,0.2-0.5,0.5-0.8,0.7c-0.5,0.5-1.1,1-1.7,1.5c-0.3,0.2-0.5,0.4-0.8,0.6c-0.6,0.8-1.3,1.2-2.2,1.5
				c-0.7,0.3-1.2,1.2-2.1,0.7c-0.1,0,0.2-0.7,0.4-1.1c-5.7,3.6-5.3,9.8-6.5,15.4c-0.1,0.6,0,1.4-0.2,2c-0.2-1.3-0.5-2.6-1.1-4.1
				c-0.2-0.5-0.5-1-0.8-1.5c-0.3-0.5-0.8-1.1-1.2-1.4c-0.8-0.8-1.8-1.6-2.9-2.3c-2.2-1.3-4.9-2.3-7.9-2.3c-3,0-6.2,1-8.8,3
				c-2.6,1.9-4.7,4.7-5.9,8c-1.2,3.3-1.3,6.8-0.6,9.9c0.7,3.1,2.1,5.9,3.8,8.1c0.9,1.1,1.8,2.1,2.8,3c1,0.9,2.2,1.7,3.2,2.3
				c2.2,1.2,4.4,1.8,6.4,2.2c3,0.6,5.5,0.7,7.6,0.6c0,0,0.1,0.1,0.1,0.1c1.7,10.5,4.7,20.5,10.4,29.5c0.7,1.1,1.5,2.2,1.6,3.6
				c0.5,1.6,2.9,1.7,3,3.7c1.6-0.3,2.4,0.9,3.5,1.6c8.9,6.4,18.5,10.7,29.9,9.1c14.3-3.6,23.5-13.2,30.6-25.5
				c1.1-1.9,2.1-3.8,3.1-5.7c2.2-7.5,4.4-15,6.5-22.5c0.8-3.3,1.7-6.6,2.5-9.9C231.4,84.8,232.4,77.3,230.9,69.8z M166,61.1
				c6.8-3,13.9-4.5,21.3-2.5c2.7,0.7,4.9,2.2,6.4,4.5c0.5,0.8,0.8,1.6,0.3,2.4c-0.5,0.9-1.5,0.6-2.3,0.5c-1.8-0.2-3.6-0.4-5.4-0.9
				c-7-2-14.1-2.6-21.3-1.3c-0.4,0.1-0.9,0-1.4-0.1C163.7,62.2,165,61.6,166,61.1z M159.1,77.1c-0.7,0.5-1.5,0.6-2.3,0.5
				C157.6,77.6,158.3,77.6,159.1,77.1c4.9-4.4,10.7-4.9,16.7-3.2c5.6,1.6,9.1,5.4,10,11.3c-0.4,0.1-0.8,0.2-1.2,0.3
				c-0.6,0-0.6-0.4-0.7-0.8c-0.2-0.3-0.5-0.6-0.7-0.9c-0.2-0.2-0.5-0.5-0.7-0.7l0,0c0,0,0,0,0,0c-1.1-1.8-2.9-2.8-4.8-3.7
				c-5.4-2.4-11.2-2.5-17-2C160.1,77.3,159.6,77.2,159.1,77.1z M200.8,128.4c-8.3,5.8-20.7,3.7-27.7-4.9c-2.2-2.7-4.2-5.6-5.2-9.1
				c-2.3-3.9-3.4-8.2-4.3-12.5c-0.4-2.4-0.6-4.6-0.7-6.3c0.1,0,0.1,0,0.2,0c2.6,4.8,12.7,10.5,12.7,10.5c0.2,0.1,0.4,0.3,0.6,0.4
				c0,0,0,0,0,0c8.4,5.8,17.4,10.2,27.8,11.2c0.1-0.2,0.2-0.4,0.1-0.6c3.4,0,6.7,0,10.1,0c0.1,0.3,0.2,0.6,0.4,0.9
				C210.8,122.4,207.5,127.5,200.8,128.4z M223.7,101.8c-3.7-6.6-9.2-7.8-15.9-6.8c3.2-3.7,10.3-5,14-2.9
				C224.6,93.8,225.5,97.1,223.7,101.8z M228.9,90.6c-2.7-6.6-6.7-11.1-12.9-13.3c-1.7-0.6-1.5-1.7-0.4-2.8c2.1-1.9,4.5-2.2,7.1-1.1
				C228.3,75.8,231.5,83.8,228.9,90.6z"/>
			<path class="st1" d="M224.3,123.1c6.1-5.1,7.4-13.5,3.4-21c-2.2,7.5-4.4,15-6.5,22.5C222.4,124.7,223.4,123.9,224.3,123.1z"/>
		</g>
		<line class="st13" x1="67.2" y1="106.6" x2="31.4" y2="96.8"/>
		<line class="st13" x1="87.2" y1="142.4" x2="60.9" y2="151.8"/>
		<line class="st13" x1="87.3" y1="77" x2="71" y2="49.8"/>
		<path class="st1" d="M309.4,272.5l-30.4-0.1c0,0,5.1-30.4,10.3-54.6c5.2-24.2,11.4,0.4,11.4,2.9S309.4,272.5,309.4,272.5z"/>
		<path class="st6" d="M249,214.5l-1,57.8c0,0-50.6,0.4-50.7,0.2c-0.1-0.1-12.5-40.8-2.6-53.1c9.9-12.3,8.8-44.9,8.8-44.9L231,188
			C231,188,230.5,217,249,214.5z"/>
		<path class="st4" d="M270.9,55.1c0.6,0.2,1.1-0.1,1.4-0.6c1.4-2.8,6.1-10.5,14.1-4.8c9.6,6.9,25.8,41,52.7,29.1
			c6.2-4.9,9.9-3.7,9.9-3.7s-11.3-13.6-21.7-27.1s-41.2-25.9-56,3.7c-14.8-2.5-39.5-3-31.5,31.8c0.1,15.3-0.4,20.2-4.2,30.5
			c-3.8,10.4-22.3,48.6-12.4,77c2.5,4.9,6.2,9.9,6.2,9.9s-9.7-12.5-6.7-34.6s12.9-43.1,16.6-57.9c-7.4,32.1-23.3,74.3-3,95.7
			c7.3,9.6,12.9,10.3,12.9,10.3s0.9-28.4,9.1-31.4c-12-22.2-6.7-37.2-3.5-45.6c3.8-10.2,2.7-18.4,0.8-25.5
			c-2.8-9.9-3.6-20.4-1.7-30.5c0.9-4.9,0.9-8.8,0.9-11.8C254.6,64.8,255.8,50.5,270.9,55.1z"/>
		<g>
			<path class="st14" d="M343.8,98.8c-0.2-2.7-0.3-5.4,0.3-8c0.6-2.6,2.2-5.1,4.7-6.2c2.4-1.1,5.7-0.3,6.9,2.1
				c0.9,1.7,0.4,4.1-1.2,5.3c-1.5,1.2-3.9,1.2-5.4-0.1c0.3-0.3,0.6-0.6,0.9-0.9"/>
		</g>
		<g>
			<path class="st14" d="M136.7,94.6c1.8-3.6-0.3-8.5-4.1-9.8c-1.6-0.5-3.5-0.4-4.8,0.7c-1.3,1.1-1.6,3.3-0.5,4.6
				c1.2,1.2,3.7,0.7,4-1"/>
		</g>
		<g>
			<g>
				<g>
					<path class="st4" d="M299.1,34.7c0,0,0.2-0.1,0.6-0.1c0.4-0.1,0.9-0.3,1.7-0.4c1.4-0.3,3.6-0.6,6.3-0.6c2.7,0,5.9,0.3,9.3,1.2
						c3.4,0.9,7.1,2.6,10.4,5c3.3,2.4,6,5.4,8,8.3c2,3,3.3,5.9,4.1,8.4c0.8,2.5,1.2,4.7,1.4,6.1c0.1,0.7,0.1,1.3,0.2,1.7
						c0,0.4,0,0.6,0,0.6s0-0.2-0.1-0.6c-0.1-0.4-0.2-0.9-0.4-1.7c-0.3-1.4-0.9-3.5-2-5.9c-2-4.8-6-11-12.4-15.6
						c-6.4-4.6-13.5-6.4-18.7-6.8c-2.6-0.2-4.7-0.1-6.2,0c-0.7,0-1.3,0.1-1.7,0.2C299.3,34.7,299.1,34.7,299.1,34.7z"/>
				</g>
			</g>
		</g>
		<g>
			<g>
				<g>
					<path class="st4" d="M362.2,193.1c0,0-0.2-0.3-0.6-0.8c-0.4-0.5-1-1.2-1.8-2.1c-0.8-0.9-1.9-1.8-3.2-2.9
						c-1.3-1.1-2.9-2.2-4.6-3.4c-1.7-1.2-3.7-2.6-5.7-4.2c-2-1.6-4-3.5-5.6-6c-3.3-4.8-5-11.2-5.2-17.9c-0.2-6.7,0.9-12.9,1.8-18.4
						c1-5.6,2.2-10.6,3.4-14.7c1.1-4.1,2.2-7.4,3-9.7c0.8-2.3,1.3-3.5,1.3-3.5s-0.4,1.3-1,3.6c-0.6,2.3-1.5,5.6-2.4,9.8
						c-0.9,4.2-1.9,9.1-2.7,14.7c-0.8,5.6-1.7,11.7-1.5,18.1c0.2,6.4,1.7,12.4,4.7,17.1c1.5,2.3,3.3,4.2,5.1,5.9
						c1.8,1.7,3.7,3.1,5.4,4.4c1.7,1.3,3.2,2.6,4.5,3.7c1.3,1.2,2.3,2.2,3,3.1c0.8,0.9,1.3,1.7,1.6,2.2
						C362,192.9,362.2,193.1,362.2,193.1z"/>
				</g>
			</g>
		</g>
		<g>
			<g>
				<g>
					<path class="st4" d="M339.7,135.6c0,0-0.1-1.4,0-3.7c0.1-2.3,0.4-5.4,1.2-8.8c0.8-3.4,1.9-6.4,2.8-8.5c0.9-2.1,1.6-3.3,1.6-3.3
						s-0.3,1.4-0.7,3.6c-0.5,2.2-1.1,5.3-1.8,8.6c-0.8,3.3-1.5,6.4-2.1,8.6C340.1,134.2,339.7,135.6,339.7,135.6z"/>
				</g>
			</g>
		</g>
	</g>
</g>
</svg>
