<?xml version="1.0" encoding="utf-8"?>
<!-- Generator: Adobe Illustrator 28.4.1, SVG Export Plug-In . SVG Version: 6.00 Build 0)  -->
<svg version="1.1" id="Layer_1" xmlns="http://www.w3.org/2000/svg" xmlns:xlink="http://www.w3.org/1999/xlink" x="0px" y="0px"
	 viewBox="0 0 543.1 588.1" style="enable-background:new 0 0 543.1 588.1;" xml:space="preserve">
<style type="text/css">
	.st0{fill:#C7BED3;}
	.st1{fill:#9D39B5;}
	.st2{fill:#E4DFEA;}
	.st3{fill:#FF5A2E;}
	.st4{fill:#E3F9FD;}
	.st5{fill:#EE4267;}
	.st6{fill:#FEFDFD;}
	.st7{fill:#FDA68C;}
</style>
<g>
	<path class="st0" d="M167.9,412.3c-0.5,1.6-0.9,3.2-1.3,4.8c-0.5,2-2,4.6-3.3,5.9c1,0.6,2.1,1,3.2,1.4c0.5,0.1,0.9,0.3,1.4,0.4
		c0-0.4,1-1.8,1.3-2.5c1.1-2.6,2-5.4,2.5-8.3c0.6-3.7,2.2-4.4,5.9-3.9c12.8,1.8,25.8,2.7,38.3-2c7.7-2.9,14.7-6.9,19.7-13.7
		c0.6-0.8,2.2-1.5,0.8-2.6c-0.9-0.8-2-0.1-3,0.6c-7.1,5.4-14.9,9.3-23.6,11.5c-7.5,1.9-15,1.5-22.6,1.8c-7.1,0.2-13.9,0-19.7-5
		c-1.3-1.1-3-1.4-4.6-0.1C162.9,402.1,169.1,408.6,167.9,412.3z"/>
	<g>
		<path class="st1" d="M412.1,539.3c-1.4-0.9-2.8-1.7-4.4-2.1c0.3,0.9,0.6,1.9,0.9,2.8c-0.4-0.9-0.6-1.9-0.9-2.8
			c-0.5-0.5-1.2-0.9-1.1-1.8c0,0,0,0,0,0c2.3-3.5,0.4-7.1-0.2-10.4c-2.4-13-5.1-25.9-7.7-38.9c-0.4-2.1-1.1-4-2.2-5.7
			c-11.2-2.9-22.6-4.3-34.1-5c-15.1-1-30.2-0.8-45.3-0.7c-1.1,0.9-2.4,0.5-3.6,0.2c-11.3,1.7-11.3,1.7-11.3,13.3
			c0,13.2-0.4,26.5,0.2,39.7c0.3,5.3-0.5,9.6-2.9,14.3c-5.6,10.8-7,22.8-8.1,34.8c-0.4,3.7-1.2,7.4-0.8,11.1c43.1,0,86.2,0,129.4,0
			c1.7,0,3.3,0,5,0c2.2,0,17.6,0,19.8,0c-0.6-1.4-0.2-2.8,0.3-4c4-10.6-2.1-8-2.8-18.6C436.3,554.1,418.5,543.7,412.1,539.3z
			 M385.8,510.7c0.1-0.7,0-1.6,0.3-2.3C385.8,509,385.9,509.9,385.8,510.7z"/>
		<path class="st1" d="M443,566.2c-4.2,6.7-4.7,14.5-6.6,21.9c5.5,0,11.1,0,16.6,0c0.1-0.4,0.1-0.9,0.2-1.3
			C450.5,579.5,447.8,572.3,443,566.2z"/>
	</g>
	<path class="st2" d="M396.4,480.3c-11.2-2.9-22.6-4.3-34.1-5c-15.1-1-30.2-0.8-45.3-0.7c-0.4-3.8-3-5.6-6.2-6.9
		c-5.3-2.2-8.7-6-9.9-11.8c-1.9-9-2.4-18.2-2.9-27.3c-0.7-12.7-0.6-25.6,2.3-38.2c1.2-5.3,1.1-11,3.1-15.9
		c2.7-6.6,4.3-13.2,5.2-20.2c1.2-9,2.1-18.1,5.5-26.5c7-17.6,9.5-36.3,15-54.3c0.6-2.1,0.1-3.6-2.3-3.9c2.2-5.7,3.9-8.3,5.8-12.5
		c1.2,1.3,1.6,0.7,2.8-0.4c5-4.5,9.5-9.7,15.5-13.2c3.1-1.8,6.8-2.1,9.4-0.5c2.8,1.6,1.6,5.2,0.9,8c-2.7,11.1-6.4,21.8-9.1,32.9
		c-2.6,10.7-5.6,21.3-7.6,32.1c-0.3,1.6-0.7,3.6,1.5,4.1c2.2,0.5,2.2-1.4,2.5-2.9c1.4-7.1,3.4-14.2,5.6-21.1
		c7.2-22.8,12.6-46.2,21.6-68.5c1.1-2.7,0.8-4.4-2.3-5c0.8-2.4,1.3-4.9,3.2-6.7c1.2-0.1,3,0.5,3.4-0.8c1.8-5.6,6.6-9.2,9.1-14.3
		c1.5-3,3.8-5.2,6.1-7.6c5.5-5.8,13-7.2,20.1-9.6c2.2,0.8,2.8,2.5,2.5,4.6c-0.4,2.7-13.6,42.1-18.8,59.4c-1.1,3.6-2.9,7.1-2,11.1
		c-0.2,0.7-0.3,1.3-0.5,2c-5.2,13-7.8,26.8-12.1,40c-0.5,1.6-1.5,3.8,1,4.5c2.6,0.8,3.1-1.3,3.6-3.3c1.5-5.8,3.4-11.6,4.8-17.4
		c3.7-15.9,9.2-31.3,15.1-46.5c7.2-18.9,15.8-37.2,29-52.8c5.2-6.1,10.7-11.8,19.3-12.8c1.8-0.2,3.9,0.2,5.5-1.2
		c1.8,2.7,1,5.6,0.3,8.3c-2.2,9.2-5.9,18-9.7,26.7c-2,1.4-0.3,3.7-1.6,5.6c-5.8,7.7-10.1,15.9-8.1,26.7c1.9-3.6,3.1-6.8,4.3-10.1
		c3.1-8.7,6.9-16.8,14.5-22.8c5.3-4.2,11.6-6,17.5-8.7c3.2,0,2.4,11.6,1.3,15c-1.7,5.3-3.6,10.6-6,15.7c-4,9.5-8.2,18.9-12.1,28.5
		c-2.4,6-18.7,60.6-20.9,67.9c-1.9,6.3-4.5,12.4-5.3,19c-0.6,1.5-2.4,6-2.7,7.9c-2,12.8-3.4,23.6-7.5,35.8c-1.2,3.6-3.8,5.3-5.2,8.8
		c-0.4,0.9-0.5,2,0.5,2.6c1.1,0.6,2.1,0.2,3-0.6c0.8-0.7,1-1.6,1.3-2.5c5.1-13.2,8.3-27,11.5-40.8c0.7-2.9,0.6-6.4,2.7-8.4
		c5.3-4.9,10.9-9.6,17.6-12.7c9.8-4.7,20-7.5,30.9-4.4c7,2,9.1,4.9,9.3,12.2c-14.2,5.5-28,11.5-36.2,25.5
		c-4.2,7.1-9.8,13.2-13.7,20.5c-10.9,14.4-20.8,29.6-30.6,44.8c-3.2,4.6-6.2,9.4-9.7,13.8C400,455.4,397.5,467.6,396.4,480.3z
		 M441.2,238.8c-2.2,2-3.2,4.6-4.1,7.4c-5.5,16.3-11.1,32.6-16.8,48.8c-0.5,1.5-0.9,2.8,0.8,3.5c1.7,0.7,2.5-0.7,3-2.1
		c1.3-3.8,2.2-7.7,3.7-11.4c5.4-13.4,9.5-27.3,14.5-40.8C443.2,242.1,443.5,240.2,441.2,238.8z M409.5,348.8c4.4-2.6,7.3-6.1,8-11.4
		c0.7-4.9,2.5-9.6,0.5-14.6c-0.4-0.9-0.5-2.5-2-2.2c-1.3,0.3-1.2,1.7-1.2,2.8c-0.2,2.9,0.1,5.7-0.4,8.6
		C413.3,337.8,411.5,343.2,409.5,348.8z M373.1,354.5c1.8,0.4,2.2-0.4,2.9-0.9c6.6-5.2,6.1-13,7.2-20.2c0.3-2.2,0-4.4-0.9-6.5
		c-0.3-0.7-0.7-1.4-1.4-1.4c-1.1,0.1-1,1.1-1,1.9C379.2,336.8,378,346,373.1,354.5z M349.3,339.6c-0.2-2.5,0.3-4.3-0.5-6
		c-0.4-0.9-0.7-2.4-2.1-2.1c-1.3,0.3-0.7,1.6-0.8,2.5c-0.6,7.7-1.3,15.3-5,22.3c-0.6,1.1-1.5,2.4-0.3,3.3c1.1,0.7,1.9-0.8,2.6-1.5
		C348.9,352.8,348.2,345.6,349.3,339.6z"/>
	<path class="st2" d="M249.9,253.9c8.8,18.2,15.9,37.1,21.4,56.5c2.1,7.4,8.6,45.9,5.7,57.2c-0.9,9.4-17.2,31.7-19.9,45.5
		c-0.5,1-0.9,2-1.4,2.9c-1.5,2.3-0.8,3.7,1.7,4.4c-8.8,0.3-17.1,4-25.9,4.8c-15.3,1.3-30.6,3.3-46.1,1.4c-4.8-0.6-9.6,0.4-14.4-0.7
		c-2.4-0.6-5.2-1-4.2-3.4c1.1-2.6,4.3-5.6,4.8-8.5c0.6-3.7,2.2-4.4,5.9-3.9c12.8,1.8,25.8,2.7,38.3-2c7.7-2.9,14.7-6.9,19.7-13.7
		c0.6-0.8,2.2-1.5,0.8-2.6c-0.9-0.8-2-0.1-3,0.6c-7.1,5.4-14.9,9.3-23.6,11.5c-7.5,1.9-15,1.5-22.6,1.8c-7.1,0.2-13.9,0-19.7-5
		c-1.3-1.1-3-1.4-4.6-0.1c-10.9-4.4-20-11.4-27.9-19.9c-3.9-4.2-7.9-8.6-9.7-14.2c-2.6-8.4-26.5-43.3-33.8-53.8
		c-0.4-0.3-11.6-16.2-13.5-24c1.6,0,22.6-3.5,30.9,1.6c4.1,2.6,7.6,6.1,10.5,9.8c1.6,2,4.7,1.5,5.5,4.4c2.6,8.7,11.2,13.6,17.3,19.6
		c6.6,6.5,13.2,10.8,21.7,14.2c2.4,0.9,4.3,1.3,6.5-0.6c2.1-1.8,3.9-1,3.5,1.8c-0.4,2.4,0.9,2.6,2.4,3c1.3,0.4,2.7,0.6,4,0.9
		c19,5,35,14.2,44.6,32.2c0.4,0.8,0.8,1.6,1.8,1.4c1.1-0.2,1.4-1.2,1.4-2.2c0.2-5.6-0.4-10.9-4.8-15.1c-6.6-6.3-14.1-11.4-22-16
		c-9.5-5.5-20.3-7.5-30.3-11.8c-8.6-3.7-17.2-7.4-25.6-11.5c-2.2-1.1-2.6-2.7-2.8-5c-0.4-5.6-3.1-4.4-4.1-9.9
		c-0.4-2.6,2.1-13.9-3.1-11.6c-0.3-1.4-0.7-2.8-1-4.2c1.7,0.1-4.4-17.8-1.5-21.9c6-8.5,17.5-17.1,28.3-17c3.8,0,9.7,0.5,13.4-0.4
		c4-0.9,1.6-6.3,5.4-7.2c0.5-0.1,2.4-2,3.9-1.3c1.3,0.6,3.5,1.8,3,2.9c-1.3,3.2,0.9,2.4,2.3,2.4c3.9,0.1,7.7,0.1,11.6,0
		c4.9-0.1,9.5-1.9,13.6-4.3c2-1.2,3.1-1.1,4.6,0.2c4.9,3.9,10.5,6.5,16.3,8.8C239.9,253.8,244.7,255.9,249.9,253.9z"/>
	<path class="st2" d="M142.1,116.1c4.1,0.9,10,9.3,11.6,13.1c5.4,13,8.6,26.6,11.8,40.2c0.9,3.8,0.5,8.2,3.7,11.3
		c1.7,4.7,1.9,9.6,3.1,14.4c3.1,12.5,7.5,24.7,9,37.6c0.8,6.4-1.2,9.8-7.5,11.3c-4.3,1-8.6,1.7-13.1,1.6c-1.7,0-2.7-0.2-3.1-2.3
		c-1.8-8.9-3.6-17.8-5.9-26.5c-1.6-5.8-3.6-7.6-5.8-17.2c-0.2-0.2-0.1-0.8,0-1.1c1.5-3,0.2-5.9-0.4-8.7
		c-3.6-15.4-6.7-30.9-10.8-46.1c-1.2-4.5-1.8-9.1-2.6-13.7c-0.9-5.6,0.9-11.9,6.5-13.1C140.4,116.6,140.5,115.1,142.1,116.1z"/>
	<path class="st2" d="M185,130.4c9.2,28.2,29,88.3,28.2,105.7c-0.1,1.6-0.7,2.4-2,3.2c-5.6,3.3-11.9,8.9-17.9,7.7
		c-1.3-0.3-4.2-2.8-5.7-1.9c-2.9,1.8-1.7-3.5-1.7-7c0-4.3-0.6-8.5-1.4-12.7c-2-11.4-6.3-22.2-8.6-33.5c-4-19.6-5.7-39.6-11.4-58.8
		c-2.4-8,1.6-11.5,10-10.6c0.8,0.1,1.6-0.3,2.4-0.5C181,123.4,182.4,127.5,185,130.4z"/>
	<path class="st0" d="M176.9,122.1c-0.8,0.2-14.8,3.1-12.4,11.1c5.8,19.3,7.5,39.3,11.4,58.8c2.3,11.3,6.6,22.1,8.6,33.5
		c0.7,4.2,1.4,8.4,1.4,12.7c0,3.5,13,7,25.3,1.2c1.4-0.7,1.9-1.6,2-3.2c0.8-9.8-4.8-42.5-6.5-54.5c-0.8-5.8-2.2-11.6-1.9-17.6
		c0.4-7,16.6-7,15.7-3.8c-1.1-0.1-2.1-0.1-3.2-0.6c-5.2-2.4-8-0.5-8.3,5.3c-0.2,4.3,0.7,8.5,1.3,12.7c1.5,10,3.2,20,4.5,30.1
		c1.1,9.4,1.8,18.8,2.5,28.3c0.1,1.6,1,2.1,2.3,2.5c9.5,3,18.2,8.4,28.4,9.7c1.3,1.7,1.8,3.6,1.9,5.7c-5.2,2-10.1-0.1-14.7-1.9
		c-5.7-2.3-11.4-4.9-16.3-8.8c-1.5-1.2-2.6-1.3-4.6-0.2c-4.1,2.4-8.7,4.2-13.6,4.3c-3.9,0.1-7.7,0.1-11.6,0
		c-1.4,0-10.6,2.3-14.6,3.1c-3.8,0.8-7.5,1.9-11.3,1.8c-10.8-0.1-19.3,4.5-25.3,13c-6.9,8.2-1.8,24.5-3.5,24.4
		c-4.1-13-9.4-25.7-12.6-39c-4.2-17.5-9.5-34.6-15.6-51.4c-2-8.1-4.8-15.9-6.2-24.1c-0.6-3.2-0.9-6.5-0.8-9.7c2.9-2.2,4-1.5,3.6,2.1
		c-0.3,2.6,1.1,4.8,1.5,7.2c2.9,16,8.8,31.2,13.6,46.6c2.5,7.9,4.8,15.7,6.5,23.8c1.5,7.2,3.8,14.1,6.8,21.6c0.4-1.3,0.6-1.6,0.6-2
		c0.9-6.7,3.7-12,10-15.6c3.8-2.1,7.9-1.7,11.6-3.4c-0.2-1.5-0.2-3-0.5-4.5c-3.2-15.2-8-30-10.8-45.2c-1.4-7.8-2.8-15.7-5.4-23.2
		c-2.6-11.8-5.2-23.6-7.8-35.4c-1.1-5.1-2.1-10.3,0.2-15.4c2.1-4.8,6.2-7.6,10.5-7.2c1,0.1,1.9,0.3,2.3,1.4c-7.2,0.9-10.9,8.4-10,14
		c0.8,4.6,1.4,9.2,2.6,13.7c4.1,15.2,7.2,30.7,10.8,46.1c0.7,2.8,4.6,21.1,6.2,26.9c2.4,8.7,4.1,17.6,5.9,26.5
		c0.4,2.1,1.5,2.3,3.1,2.3c4.4,0.1,8.8-0.6,13.1-1.6c6.3-1.5,8.3-4.9,7.5-11.3c-1.6-12.9-6-25.1-9-37.6c-1.2-4.8-1.4-9.8-3.1-14.4
		c-2.1-15.4-4.6-30.7-8.4-45.8C158.1,124.3,177.2,118.2,176.9,122.1z"/>
	<path class="st2" d="M153.5,245.6c-3.7,1.7-7.8,1.3-11.6,3.4c-6.3,3.6-9.1,8.8-10,15.6c0,0.4-0.2,0.7-0.6,2
		c-3-7.5-5.3-14.4-6.8-21.6c-1.7-8.1-4-15.9-6.5-23.8c-4.8-15.4-17.2-51.5-18.7-55.9c-0.7-5,1.4-9.5,4.9-10.6
		c4.8-1.4,12.9,1.5,16.1,5.7c4.7,6.2,10,21.1,10.1,21.4c6.5,20.7,12.9,41.4,20.7,61.6C151.5,244.6,151.9,245.7,153.5,245.6z"/>
	<path class="st3" d="M511.5,406.4c-2.7-0.5-4.9-2.5-6.6-5.1c-1.4-2.3,0.1-4.1,1.5-5.9c8-9.8,16-19.7,24.1-29.4
		c3.1-3.7,5.2-3.9,8.7-1c4.5,3.7,4.8,5.3,1.6,9.2c-8,9.8-16.1,19.6-24.2,29.4C515.6,405,514.3,406.5,511.5,406.4z"/>
	<path class="st1" d="M71.4,175.4c-0.4,4.2-1.4,8-4,11.2c-1.8,2.1-4.1,2.5-6.3,1.4c-2.5-1.2-3.4-3.5-2.6-6.3
		c0.4-1.3,1.1-2.5,1.5-3.8c1.4-5.2-0.1-8.1-5.2-9.9c-9.3-3.3-15.9-9.1-18.3-19c-0.6-2.5-0.9-4.9-0.2-7.3c0.6-2.1,1.9-3.7,4.4-3.8
		c2.3-0.1,3.6,1.2,4.4,3.1c0.6,1.5,1.1,3.1,1.5,4.7c1,5.2,3.9,8.6,8.8,10.6c5.1,2,9.7,4.6,12.9,9.2
		C70.4,168.5,70.9,171.9,71.4,175.4z"/>
	<path class="st3" d="M328.1,145.9c-7.7,1.1-14.5-0.1-19.5-6.9c-1.4-1.9-2-4.2-3-6.3c-2.4-12.7,8-23.4,20.8-21.2
		c7.4,1.3,12.6,7.1,13.8,15c1.1,7-2.6,14.2-8.9,17.6C330.3,144.8,329.2,145.4,328.1,145.9z M333.6,128.6c-0.1-6-4.9-10.7-10.9-10.7
		c-5.6,0-10.8,5.4-10.6,11c0.2,6.1,5,10.7,11,10.6C329.2,139.5,333.7,134.8,333.6,128.6z"/>
	<path class="st1" d="M508.9,272.2c-4.6,0-7.2-1.8-6.8-5.2c0.3-2.7,1.6-4.5,4.7-4.8c7.7-1,9.9-4.2,8.2-11.8
		c-2.2-10.1,0.8-18.5,8.6-25.2c0.9-0.8,2.1-1.5,3.2-1.7c2-0.4,4.3-0.8,5.7,1.3c1.3,2.1,1,4.2-0.7,6.1c-0.8,0.9-1.4,2.1-2.3,2.9
		c-4.4,3.7-5.1,8.4-4.1,13.8c0.9,4.7,1.1,9.5-0.9,14.2C521.7,268.1,515.9,272.1,508.9,272.2z"/>
	<path class="st3" d="M515.2,151.3c-0.3,3.1-2.6,4.8-4.9,6.1c-2,1.1-3.9,0.2-5.6-1.4c-9.3-9.4-18.7-18.7-28-28.1
		c-2.9-3-2.7-4.8,0.4-8.1c3.1-3.2,5.1-3.5,8-0.6c9.5,9.4,19,18.9,28.4,28.3C514.5,148.6,515.3,149.8,515.2,151.3z"/>
	<path class="st3" d="M6.7,226.4c1.9-0.1,3.2,0.9,4.3,2.2c8.5,10.3,17.1,20.6,25.6,31c2.5,3,1.3,5.3-1.2,7.5
		c-3.4,2.9-5.6,3.1-8.2,0.1c-6.1-7.1-12-14.4-18-21.7c-2.5-3-4.9-6-7.3-9c-1.3-1.7-2.6-3.5-1.2-5.6C2,228.7,3.9,226.8,6.7,226.4z"/>
	<path class="st0" d="M502,334c-1.2-3.2-3.8-6.2-7.2-8c-3.7-2-7.5-2.8-11.4-3c-4.6-0.3-9.2,0.2-13.6,1.3c-1.7,0.4-3.4,0.9-5,1.4
		c-10.6,3.4-19.2,10.1-27.5,17.1c0,0-0.1,0-0.1,0c-0.3,0.6-0.6,1.1-0.9,1.7c-1,2.1-1.6,4.5-2.3,6.8c-1.3,4.7-2.2,9.5-3.1,14.3
		c-1.1,5.9-2.8,11.7-5.3,17.1c-1.5,4.5-3.1,8.8-3.9,12.6c-0.4,0.9-0.5,2,0.5,2.6c1.1,0.6,2.1,0.2,3-0.6c0.8-0.7,1-1.6,1.3-2.5
		c5.7-14.9,9.1-30.4,12.8-45.8c0.4-1.6,1.2-3.1,2.5-4.2c5-4.6,10.4-8.9,16.6-11.9c9.8-4.7,20-7.5,30.9-4.4c7,2,9.1,4.9,9.3,12.2
		l0.1,0C501.4,339.6,503,336.7,502,334z"/>
	<path class="st1" d="M26.5,364.2c-2.3,0.3-4.7-0.2-6-2.8c-0.9-1.8-0.7-3.7,0.7-5.4c1.2-1.4,2.7-1.6,4.4-1.8
		c6.4-0.4,8.6-3.4,7.9-9.7c-1-8.9,0.4-17.1,7.7-23.3c0.4-0.4,0.8-0.8,1.2-1.1c3.5-2.7,7.5-3,9.4-0.8c1.7,2.1,0.6,5.8-2.9,8.5
		c-4.6,3.6-6.2,8-5.1,13.8C46,353.8,38.1,364.1,26.5,364.2z"/>
	<path class="st0" d="M453.5,206c4.5-3,13-13.7,26.7-9.3c-5.9,2.7-12.2,4.5-17.5,8.7c-7.6,6-11.4,14.2-14.5,22.8
		c-1.2,3.3-6.1,17-8,20.6c-0.5-2.7-2.9-1.2-1.9-5.7C441.3,230,452,207.1,453.5,206z"/>
	<path class="st4" d="M90.6,311.9c0.4,0.3,0.7,0.6,1.1,0.8C91.3,312.4,90.9,312.2,90.6,311.9z"/>
	<path class="st5" d="M257.4,420.4c-8.9,0.3-17.1,4-25.9,4.8c-15.3,1.3-30.6,3.3-46.1,1.4c-4.8-0.6-9.6,0.4-14.4-0.7
		c-1-0.2-1.6-0.5-2-0.8c-0.7-0.2-1.5-0.3-2.2-0.6c-1.2-0.4-2.5-0.9-3.6-1.6c-0.7,0.5-1.6,0.8-2.7,1c-2.8,0.5-4.4,3.2-5.8,5.6
		c-3.5,5.9-6.9,11.9-10.3,17.8c-2.4,5.7-5.4,11-9.2,15.9c-1,1.3-2.4,2.7-2.3,4.2c0.3,3.7-1.9,4.4-4.6,4.8
		c-6.3,2.5-11.4,6.9-17.1,10.4c-3.5,3.4-7,6.8-10.4,10.2c-1,1-1.8,1-2.7-0.1c-0.4,3.8-2.8,6-6,7.5c-2.4,6-7.8,9.5-11.8,14.2
		c-2.8,4.1-5.4,8.3-10,10.8c-1.3,3.9-4.5,6.2-7.3,8.8c-6.5,7.6-12.5,15.5-20.5,21.7c-2.1,2.9-3.7,6.4-7.6,7.5c0,2.1-1.3,3.3-2.8,4.3
		c-2.7,2.6-4.6,6-8.2,7.6c-1.1,4.6-5.7,6.4-7.9,10.1c-1.1,0.7-2.2,1.3-2.1,2.8H171c1.9,0,3.9,0,5.8,0H234c3.2-15.9,7-31.7,11.4-47.4
		c2-7.1,3.3-14.2,4-21.5c0,0,0,0,0,0c0.6-1,0.5-2.2,0.4-3.3c1.1-10.6,1.3-21.2,0.3-31.8c-0.2-1.9,0-3.3,1.8-4.6
		c3.9-2.8,7.2-5.7,4.9-11.6c-0.8-2.1,0.7-5.1,1-7.7c1.3-11.1,2.6-22.2,2.9-33.4C260.7,424.2,260.5,421.6,257.4,420.4z M115,559.1
		c-0.6,0.6-1.1,1.2-1.2,1.9C113.9,560.3,114.4,559.6,115,559.1c0.8-0.8,1.5-1.7,2.4-2.5C116.6,557.4,115.8,558.3,115,559.1z
		 M146.2,535.8c0.1-0.1,0.3-0.1,0.4-0.1c0,0,0,0,0,0C146.5,535.7,146.4,535.8,146.2,535.8z M173.5,501.4c0,0.9,0.9,1.8,1.6,2.5
		C174.3,503.1,173.5,502.3,173.5,501.4z M185.5,495L185.5,495c0.1,0.2,0.2,0.5,0.3,0.7C185.8,495.5,185.7,495.2,185.5,495z
		 M237.5,529.2c0.1-0.4,0.2-0.9,0.1-1.5c-0.1-0.6,0.1-1.4,0.5-2c-0.3,0.7-0.5,1.4-0.5,2C237.7,528.4,237.7,528.8,237.5,529.2z
		 M243.3,514.8c0.4-0.4,0.9-0.9,1.3-1C244.2,513.9,243.7,514.4,243.3,514.8z M246.4,520.3c0.4-0.4,0.8-0.7,1.3-0.9
		C247.2,519.6,246.8,519.9,246.4,520.3z"/>
	<path class="st6" d="M451.7,515.3c0.2,0.1,0.4,0.2,0.4,0.4c0,0.1-0.1,0.3-0.1,0.4c-0.2,0.4-0.4,0.4-0.5,0
		C451.5,515.8,451.6,515.6,451.7,515.3z"/>
	<path class="st6" d="M449.7,443.5c0.2-0.4,0.4-0.9,0.6-1.3C450.4,442.8,450.3,443.3,449.7,443.5z"/>
	<path class="st0" d="M397.2,258.6c3.3-10.2,7.3-20.2,11.1-30.3c6-15.7,14.1-30.1,24.2-43.4c3.9-5.1,8.5-9.5,13.7-13.2
		c6-4.3,12-4.5,16.7-0.7c-1.6,1.4-3.7,1-5.5,1.2c-8.7,1.1-14.1,6.7-19.3,12.8c-13.3,15.6-21.8,33.8-29,52.8
		c-5.8,15.2-11.4,30.6-15.1,46.5c-1.4,5.9-3.3,11.6-4.8,17.4c-0.5,2-1,4.1-3.6,3.3c-2.5-0.7-1.5-3-1-4.5c4.3-13.3,6.9-27,12.1-40
		C396.9,260,397,259.3,397.2,258.6z"/>
	<path class="st0" d="M441.2,238.8c2.2,1.4,2,3.4,1.2,5.4c-5,13.5-9.1,27.4-14.5,40.8c-1.5,3.7-2.4,7.6-3.7,11.4
		c-0.5,1.3-1.3,2.7-3,2.1c-1.7-0.7-1.3-2-0.8-3.5c5.6-16.3,11.2-32.5,16.8-48.8C438,243.4,439,240.8,441.2,238.8z"/>
	<path class="st0" d="M396.6,186.5c-10.1,7.4-19.4,25.5-23.8,36.9c0.1,0,0.1,0,0.2,0.1c-3.1,6.5-5.1,13.4-7.6,20.2
		c-5.2-6.3-12-7.2-19-2.5c-0.7,0.5-1.5,1.1-2.3,1.7c-4.5,4.5-8.4,9.6-11.7,14.9c-0.7,1.2-2.7,4.7-2.9,5.2c-0.8,1.7-3.1,8-3.4,9.4
		c1.1,1.1,2.4,2.2,3,1c9.4-18.8,15.9-26.4,21.9-29.9c3.1-1.8,6.8-2.1,9.4-0.5c2.8,1.6,1.6,5.2,0.9,8c-2.7,11.1-6.4,21.8-9.1,32.9
		c-2.6,10.7-5.6,21.3-7.6,32.1c-0.3,1.6-0.7,3.6,1.5,4.1c2.2,0.5,2.2-1.4,2.5-2.9c1.4-7.1,3.4-14.2,5.6-21.1
		c5-15.7,13.7-43.2,18.5-58.9c2.8-9.1,6.5-17.8,11-26.2c2.4-4.4,4.5-8.2,5.5-10.2c1.5-3,3.8-5.2,6.1-7.6c5.5-5.8,13-7.2,20.1-9.6
		C411.8,181,401.2,183.1,396.6,186.5z"/>
	<path class="st0" d="M409.5,348.8c2-5.6,3.8-11,4.8-16.7c0.5-2.9,0.3-5.8,0.4-8.6c0.1-1.1,0-2.5,1.2-2.8c1.5-0.3,1.6,1.2,2,2.2
		c2,4.9,0.2,9.7-0.5,14.6C416.8,342.7,413.9,346.2,409.5,348.8z"/>
	<path class="st0" d="M373.1,354.5c4.9-8.6,6.1-17.7,6.8-27c0.1-0.8-0.1-1.8,1-1.9c0.7,0,1.1,0.7,1.4,1.4c0.8,2.1,1.2,4.3,0.9,6.5
		c-1.1,7.2-0.6,15-7.2,20.2C375.4,354.1,374.9,354.9,373.1,354.5z"/>
	<path class="st0" d="M349.3,339.6c-1.1,6-0.4,13.2-6,18.4c-0.8,0.7-1.5,2.2-2.6,1.5c-1.2-0.8-0.3-2.1,0.3-3.3
		c3.6-7,4.3-14.6,5-22.3c0.1-0.9-0.5-2.2,0.8-2.5c1.4-0.3,1.7,1.2,2.1,2.1C349.6,335.3,349.1,337.2,349.3,339.6z"/>
	<path class="st2" d="M248,248.2c-10.1-1.2-18.9-6.6-28.4-9.7c-1.2-0.4-2.1-0.8-2.3-2.5c-0.8-9.4-1.4-18.9-2.5-28.3
		c-1.2-10.1-3-20.1-4.5-30.1c-0.6-4.2-1.5-8.4-1.3-12.7c0.2-5.8,3.1-7.7,8.3-5.3c1.1,0.5,2.1,0.5,3.2,0.6
		c5.9,6.1,8.7,13.9,11.8,21.5c6.2,15,8.6,30.9,10.8,46.9C244.1,235.2,246.4,241.6,248,248.2z"/>
	<path class="st0" d="M303.4,374.4c2.7-6.6,20.2-83,25.7-100.9c0.6-2.1,0.1-3.6-2.3-3.9c-0.2,0.6-6.3,18.4-7.8,26.1
		c-3.9,20.3-18.2,75.7-19.8,83.5c0.6,0,1.4-0.2,1.5,0.7c0,0.1-0.3,0.3-0.5,0.5c-0.3-0.4-0.7-0.7-1-1.1c-0.4,0.6-5.4,21.2-5.6,31.4
		c-0.3,14.2,1.1,28.3,2,42.5c1.9,8.8,6.1,15.8,15.1,19c1.2,0.4,2,1.5,2.6,2.6c1.2,0.3,2.5,0.7,3.6-0.2c-0.4-3.8-3-5.6-6.2-6.9
		c-5.3-2.2-8.7-6-9.9-11.8c-1.9-9-2.4-18.2-2.9-27.3c-0.7-12.7-0.6-25.6,2.3-38.2C301.5,385.1,301.4,379.4,303.4,374.4z"/>
	<path class="st0" d="M299.2,379.2c0.6,0,1.4-0.2,1.5,0.7c0,0.1-0.3,0.3-0.5,0.5c-0.3-0.4-0.7-0.7-1-1.1
		C299.2,379.4,299.2,379.2,299.2,379.2z"/>
	<path class="st6" d="M468,196c-0.3,0.4-0.6,0.7-0.9,1.1C467.4,196.7,467.7,196.3,468,196z"/>
	<path class="st7" d="M211.8,217.4c0.1,0.4,0.3,0.8,0.4,1.2C212,218.2,211.9,217.8,211.8,217.4z"/>
	<path class="st7" d="M279.5,333.2c-0.3,0-0.5-0.1-0.8-0.1C279,333.1,279.3,333.1,279.5,333.2z"/>
	<path class="st0" d="M78.1,288.7c-0.3-3.3,2.3-4.5,4.5-5.7c7.7-4.1,15.4-3.3,23,0.5c7.7,3.8,13.7,9.7,18.9,16.3
		c4.3,5.4,8.5,10.8,13.2,16c1-7.6-1-14.8-2.3-22.1c5.2-2.3,6.7,15.9,7.1,21.6c0.2,2.3,0.6,4,2.8,5c8.4,4.1,17,7.8,25.6,11.5
		c10,4.3,20.8,6.3,30.3,11.8c7.9,4.6,15.3,9.7,22,16c4.5,4.2,5,9.5,4.8,15.1c0,1-0.3,2-1.4,2.2c-1,0.2-1.4-0.6-1.8-1.4
		c-9.6-18-25.6-27.3-44.6-32.2c-1.3-0.3-2.7-0.6-4-0.9c-1.4-0.4-9.9-3.2-12.3-4.1c-8.5-3.3-16.8-7.1-23.4-13.6
		c-6.1-6-19.5-22.7-21.1-24.7c-3-3.8-6.4-7.3-10.5-9.8C100.8,285.2,79.8,288.7,78.1,288.7z"/>
	<g>
		<path class="st5" d="M194.6,73.5c-1.4,0-2.9-0.4-4.1-1.3c-2.5-1.8-3.5-4.9-2.5-7.8l5.8-17.9l-15.2-11.1c-2.4-1.8-3.5-4.9-2.5-7.8
			c0.9-2.9,3.6-4.8,6.6-4.8h18.8l5.8-17.9C208.3,1.9,211,0,214,0c3,0,5.7,1.9,6.6,4.8l5.8,17.9h18.8c3,0,5.7,1.9,6.6,4.8
			c0.9,2.9-0.1,6-2.5,7.8l-15.2,11.1l5.8,17.9c0.9,2.9-0.1,6-2.5,7.8c-2.5,1.8-5.7,1.8-8.2,0L214,61.1l-15.3,11.1
			C197.5,73,196.1,73.5,194.6,73.5z M184.4,30.3l14.2,10.3c2.5,1.8,3.5,4.9,2.5,7.8L195.7,65l14.2-10.3c2.4-1.8,5.7-1.8,8.2,0
			L232.2,65l-5.4-16.7c-0.9-2.9,0.1-6,2.5-7.8l14.2-10.3H226c-3,0-5.7-1.9-6.6-4.8L214,8.8l-5.4,16.7c-0.9,2.9-3.6,4.8-6.6,4.8
			H184.4z"/>
	</g>
</g>
</svg>
