<?xml version="1.0" encoding="utf-8"?>
<!-- Generator: Adobe Illustrator 28.4.1, SVG Export Plug-In . SVG Version: 6.00 Build 0)  -->
<svg version="1.1" id="Layer_1" xmlns="http://www.w3.org/2000/svg" xmlns:xlink="http://www.w3.org/1999/xlink" x="0px" y="0px"
	 viewBox="0 0 541 306.3" style="enable-background:new 0 0 541 306.3;" xml:space="preserve">
<style type="text/css">
	.st0{filter:url(#Adobe_OpacityMaskFilter);}
	.st1{filter:url(#Adobe_OpacityMaskFilter_00000104701007707017200330000008116867088632462503_);}
	.st2{mask:url(#SVGID_1_);fill:url(#SVGID_00000158021303920282865730000007054274059725453196_);}
	.st3{fill:#E4DFEA;}
	.st4{fill:#EE4267;}
	.st5{fill:#9D39B5;}
	.st6{fill:#B573E0;}
	.st7{fill:#1F1647;}
	.st8{fill:#EE5080;}
	.st9{fill:#E9997E;}
	.st10{fill:#FFFFFF;}
	.st11{fill:#F18E65;}
	.st12{fill:#FF5A2E;}
	.st13{fill:#632B6B;}
	.st14{fill:#C7BED3;}
	.st15{fill:#AFA7BC;}
</style>
<g>
	<g>
		<defs>
			<filter id="Adobe_OpacityMaskFilter" filterUnits="userSpaceOnUse" x="178.3" y="194.9" width="109.7" height="109.8">
				<feFlood  style="flood-color:white;flood-opacity:1" result="back"/>
				<feBlend  in="SourceGraphic" in2="back" mode="normal"/>
			</filter>
		</defs>
		<mask maskUnits="userSpaceOnUse" x="178.3" y="194.9" width="109.7" height="109.8" id="SVGID_1_">
			<g class="st0">
				<defs>
					
						<filter id="Adobe_OpacityMaskFilter_00000037682364744665342310000006950175833718450600_" filterUnits="userSpaceOnUse" x="178.3" y="194.9" width="109.7" height="109.8">
						<feFlood  style="flood-color:white;flood-opacity:1" result="back"/>
						<feBlend  in="SourceGraphic" in2="back" mode="normal"/>
					</filter>
				</defs>
				<mask maskUnits="userSpaceOnUse" x="178.3" y="194.9" width="109.7" height="109.8" id="SVGID_1_">
					<g style="filter:url(#Adobe_OpacityMaskFilter_00000037682364744665342310000006950175833718450600_);">
					</g>
				</mask>
				
					<linearGradient id="SVGID_00000093170601504603650780000005821859624522615217_" gradientUnits="userSpaceOnUse" x1="178.3113" y1="249.7995" x2="288.0591" y2="249.7995">
					<stop  offset="0" style="stop-color:#666666"/>
					<stop  offset="1" style="stop-color:#FFFFFF"/>
				</linearGradient>
				<path style="mask:url(#SVGID_1_);fill:url(#SVGID_00000093170601504603650780000005821859624522615217_);" d="M277.9,282.1
					l-9.8-13.9c0.5-0.9,0.9-1.8,1.3-2.7l17-1c0.8-3,1.4-6,1.7-9l-15.5-7.1c0-1-0.1-2-0.2-3l14.2-9.4c-0.8-3-1.8-5.9-3-8.7l-17,1.6
					c-0.5-0.9-1.1-1.7-1.7-2.5l7.6-15.2c-1.1-1.1-2.2-2.1-3.4-3.2c-1.2-1-2.4-1.9-3.6-2.8l-13.9,9.8c-0.9-0.5-1.8-0.9-2.7-1.3l-1-17
					c-3-0.8-6-1.4-9-1.7l-7.1,15.5c-1,0-2,0.1-3,0.2l-9.4-14.2c-3,0.8-5.9,1.8-8.7,3l1.6,17c-0.9,0.5-1.7,1.1-2.5,1.7l-15.2-7.6
					c-1.1,1.1-2.1,2.2-3.2,3.4c-1,1.2-1.9,2.4-2.8,3.6l9.8,13.9c-0.5,0.9-0.9,1.8-1.3,2.7l-17,1c-0.8,3-1.4,6-1.7,9l15.5,7.1
					c0,1,0.1,2,0.2,3l-14.2,9.4c0.8,3,1.8,5.9,3,8.7l17-1.6c0.5,0.9,1.1,1.7,1.7,2.5l-7.6,15.2c1.1,1.1,2.2,2.1,3.4,3.2
					c1.2,1,2.4,1.9,3.6,2.8l13.9-9.8c0.9,0.5,1.8,0.9,2.7,1.3l1,17c3,0.8,6,1.4,9,1.7l7.1-15.5c1,0,2-0.1,3-0.2l9.4,14.2
					c3-0.8,5.9-1.8,8.7-3l-1.6-16.9c0.8-0.5,1.7-1.1,2.5-1.7l15.2,7.6c1.1-1.1,2.1-2.2,3.2-3.3C276,284.6,277,283.4,277.9,282.1z
					 M250.2,262.6c-8.7,10.2-24.1,11.3-34.2,2.6c-10.2-8.7-11.3-24.1-2.6-34.2c8.7-10.2,24.1-11.3,34.2-2.6
					C257.8,237.1,259,252.4,250.2,262.6z"/>
			</g>
		</mask>
		<path class="st3" d="M277.9,282.1l-9.8-13.9c0.5-0.9,0.9-1.8,1.3-2.7l17-1c0.8-3,1.4-6,1.7-9l-15.5-7.1c0-1-0.1-2-0.2-3l14.2-9.4
			c-0.8-3-1.8-5.9-3-8.7l-17,1.6c-0.5-0.9-1.1-1.7-1.7-2.5l7.6-15.2c-1.1-1.1-2.2-2.1-3.4-3.2c-1.2-1-2.4-1.9-3.6-2.8l-13.9,9.8
			c-0.9-0.5-1.8-0.9-2.7-1.3l-1-17c-3-0.8-6-1.4-9-1.7l-7.1,15.5c-1,0-2,0.1-3,0.2l-9.4-14.2c-3,0.8-5.9,1.8-8.7,3l1.6,17
			c-0.9,0.5-1.7,1.1-2.5,1.7l-15.2-7.6c-1.1,1.1-2.1,2.2-3.2,3.4c-1,1.2-1.9,2.4-2.8,3.6l9.8,13.9c-0.5,0.9-0.9,1.8-1.3,2.7l-17,1
			c-0.8,3-1.4,6-1.7,9l15.5,7.1c0,1,0.1,2,0.2,3l-14.2,9.4c0.8,3,1.8,5.9,3,8.7l17-1.6c0.5,0.9,1.1,1.7,1.7,2.5l-7.6,15.2
			c1.1,1.1,2.2,2.1,3.4,3.2c1.2,1,2.4,1.9,3.6,2.8l13.9-9.8c0.9,0.5,1.8,0.9,2.7,1.3l1,17c3,0.8,6,1.4,9,1.7l7.1-15.5
			c1,0,2-0.1,3-0.2l9.4,14.2c3-0.8,5.9-1.8,8.7-3l-1.6-16.9c0.8-0.5,1.7-1.1,2.5-1.7l15.2,7.6c1.1-1.1,2.1-2.2,3.2-3.3
			C276,284.6,277,283.4,277.9,282.1z M250.2,262.6c-8.7,10.2-24.1,11.3-34.2,2.6c-10.2-8.7-11.3-24.1-2.6-34.2
			c8.7-10.2,24.1-11.3,34.2-2.6C257.8,237.1,259,252.4,250.2,262.6z"/>
	</g>
	<g>
		<path class="st3" d="M92.6,108.2l8.3-1.9c0.5-3.8,0.6-7.6,0.3-11.3l-8.2-2.2c-0.3-1.7-0.7-3.3-1.2-4.9l6.2-5.8
			c-1.4-3.5-3.2-6.8-5.4-9.9l-8.2,2.1c-1.1-1.3-2.2-2.5-3.5-3.6l2.5-8.1c-2.9-2.3-6.2-4.3-9.6-5.8l-6,6c-1.2-0.4-2.3-0.8-3.6-1.1
			c-0.4-0.1-0.8-0.2-1.3-0.3L61,53.2c-3.8-0.5-7.6-0.6-11.3-0.3l-2.2,8.2c-1.7,0.3-3.3,0.7-4.9,1.2l-5.8-6.2
			c-3.5,1.4-6.8,3.2-9.9,5.4l2.2,8.2c-1.3,1.1-2.5,2.2-3.6,3.5l-8.1-2.5c-2.3,2.9-4.3,6.2-5.8,9.6l6,6c-0.4,1.2-0.8,2.3-1.1,3.6
			c-0.1,0.4-0.2,0.8-0.3,1.3L7.8,93c-0.5,3.8-0.6,7.6-0.3,11.3l8.2,2.2c0.3,1.7,0.7,3.3,1.2,4.9l-6.2,5.8c1.4,3.5,3.2,6.8,5.4,9.9
			l8.2-2.1c1.1,1.3,2.2,2.5,3.5,3.6l-2.5,8.1c2.9,2.3,6.2,4.3,9.6,5.8l6-6c1.2,0.4,2.3,0.8,3.6,1.1c0.4,0.1,0.8,0.2,1.3,0.3l1.9,8.3
			c3.8,0.5,7.6,0.6,11.3,0.3l2.2-8.2c1.7-0.3,3.3-0.7,4.9-1.2l5.8,6.2c3.5-1.4,6.8-3.2,9.9-5.4l-2.1-8.2c1.3-1.1,2.5-2.2,3.6-3.5
			l8.1,2.5c2.3-2.9,4.3-6.2,5.8-9.7l-6-6c0.4-1.2,0.8-2.3,1.1-3.6C92.4,109.1,92.5,108.7,92.6,108.2z M85.1,107.6
			c-4.4,17-21.7,27.2-38.8,22.8c-17-4.4-27.2-21.7-22.8-38.8c4.4-17,21.7-27.2,38.8-22.8C79.3,73.3,89.5,90.6,85.1,107.6z"/>
	</g>
	<path class="st4" d="M402.9,69.9c15.2-0.6,30.2,0.6,44.7,5.6c13,4.4,22,13.6,28.3,25.6c6.2,12,10.1,24.8,13.4,37.8
		c4,15.9,8.1,31.7,11.2,47.8c2,10.4,1.9,20.9-2.6,30.8c-2.8,6.1-6.9,11.2-12.4,15.1c-0.8-0.8,0-1.5,0.2-2.1c1.1-3.3,1.3-6.6,0.6-9.9
		c-2.7-12.6-9-22.7-20-29.7c-6.4-4.1-13.3-7.2-20.1-10.6c-0.1-1-0.2-2-0.5-2.9c-4.3-16.4-7.8-33-9.8-49.9c-0.1-1.2,0.3-2.9-1.3-4
		c-0.7,6.3,3,26.7,10.3,56.5c-5.5-1.6-10.8-4.1-16.5-5c-2.1-0.8-4.3-1.5-6.5-1.7c-5.4-1.5-11-1.8-16.6-2.1
		c-10.6-0.4-21,1.2-31.4,2.4c-5.6-5.6-10.6-11.7-14.6-18.5c0.4-0.9,0.1-1.7-0.2-2.6c-1.3-3.5-2.7-7-3.8-10.6c-1.3-4-2.4-8-3.6-12.1
		c-1.2,0.5-1,1.2-0.8,1.9c1.7,5.6,3.5,11.1,5.1,16.7c0.5,1.8,1.7,3.4,1.5,5.4c-8.2,13.4-16.4,26.8-24.5,40.1
		c-2.5,0.6-3.8,2.3-4.6,4.5c-0.4,1.1-1,2.1-1.5,3.2c-0.3,0.1-0.6,0.2-1,0.3c-1.9-0.1-3.8-0.2-5.8-0.4c0.4-1.4,0.9-2.8,1-4.3
		c0.3-4.3,2.4-6.1,6.8-5.9c2.1,0.1,3.8-1.4,4-3.7c0.3-5.5-0.1-11-1.7-16.4c-0.6-2-1.9-3-3.9-3c-1.5,0-3,0.1-4.4,0.4
		c-1.4,0.3-2.2-0.1-2.8-1.4c-1.3-2.7-2.2-5.6-4.2-7.8c-1.7-1.8-1.4-3.2,0.2-5c3.9-4.6,3.8-6-0.6-10.1c-0.7-0.7-1.5-1.3-2.2-1.9
		c-3-2.3-6-4.6-9.1-6.9c10.2-14.8,20.7-29.4,33.3-42.3c8.2-8.3,18-14,29.1-17.5c0.4,1.2,1.2,2.3,2,3.2c7,7.9,20,8.3,28.5,0.8
		C399,77.2,401.8,74.2,402.9,69.9z"/>
	<path class="st5" d="M302.9,135.6c2.9,2.2,5.9,4.5,8.8,6.7c0.7,0.6,1.9,1.5,2.5,2.2c4.3,4,4.5,5.5,0.6,10.1c-1.6,1.8-1.8,3.2-0.2,5
		c2,2.2,2.9,5.1,4.2,7.8c0.6,1.3,1.3,1.7,2.8,1.4c1.4-0.3,2.9-0.4,4.4-0.4c2,0,3.3,1.1,3.9,3c1.6,5.4,2,10.9,1.7,16.4
		c-0.1,2.3-1.9,3.7-4,3.7c-4.4-0.2-6.5,1.7-6.8,5.9c-0.1,1.4-0.7,2.8-1,4.3c-2,3.7-2,3.7,1.5,5.7c3.9,4.4,4.1,4.8,1,9.3
		c-1.4,2-2.9,3.9-4.5,5.8c-5,5.8-6.4,7-10.3,4c-0.6-0.5-1.3-0.9-1.8-1.5c-1.5-1.6-2.8-1.6-4.7,0.1c-2,1.8-4.4,2.9-6.9,3.7
		c-1.9,0.6-2.6,1.2-2.5,3.2c0.7,7.8,0.2,8.3-7.5,9.4c-3.3,0.5-6.7,0.9-10,0.7c-3.3-0.1-4.6-1.2-5.1-4.5c-0.7-5.1-0.7-5.1-5.9-6.3
		c-0.5-0.1-1.2-0.4-1.7-0.6c-4.2-1.9-7.9-2.3-10.6,2.8c-0.8,1.5-2.8,1.7-4.5,0.8c-4.9-2.7-9.2-6.2-12.9-10.3
		c-1.5-1.6-1.4-3.4-0.2-5.1c0.5-0.7,1-1.5,1.7-2.1c1.9-1.8,2.2-3.3,0.3-5.5c-1.7-2-2.9-4.5-3.8-7c-0.6-1.7-1.4-2.2-3.3-2.1
		c-7.8,0.5-7.8,0.4-9.2-7.4c-0.6-3.4-1.1-6.8-0.9-10.3c0.1-3.2,1.5-4.7,4.6-5c5-0.5,5-0.5,6.2-5.5c0.2-0.7,0.2-1.4,0.5-2
		c2.4-4.3,2.2-7.6-2.5-10.3c-1.9-1.1-1.8-3.4-0.7-5.3c2.6-4.5,5.9-8.4,9.6-12c1.6-1.6,3.5-1.5,5.5-0.9c0,0-0.1,0-0.1,0
		c0.2,0.1,0.4,0.2,0.6,0.3c4.1,3.8,4.1,3.8,8.8,0.9c0.2-0.1,0.3-0.3,0.5-0.3c5.5-1.5,8.1-4.8,6.6-10.7c-0.1-0.3,0.1-0.6,0.1-0.9
		c1.3-1.6,2.9-2.5,5-2.8c3.4-0.5,6.8-1,10.2-1.5c0.7,0,1.3,0,2,0l4.1,0.8l-0.1-0.1c0.2,0.2,0.5,0.4,0.7,0.6l0,0
		c0.2,0.3,0.4,0.7,0.7,1l0,0.1c0.1,0.2,0.3,0.5,0.4,0.7l0,0c0.1,1.7,0.2,3.5,0.3,5.2c0,1,0.4,1.6,1.4,1.9c3.2,0.7,6.4,1.5,9.6,2.3
		c1.3,1.4,2.5,1.6,3.7-0.3C297.6,138.2,299.8,136.3,302.9,135.6z M258.2,200l0,0.3l0.3,0.1c0,0.1,0.1,0.2,0.2,0.2
		c0.1,0.1,0.2,0.2,0.4,0.4c0,0.1,0.1,0.2,0.2,0.2c0.1,0.1,0.2,0.2,0.4,0.4l0.2,0.2c0.1,0.6,0.5,0.9,1.1,1c0,0.1,0.1,0.2,0.2,0.2
		c0,0.3,0.1,0.4,0.3,0.3c0.2,0.1,0.4,0.2,0.6,0.3c0.4,0.7,1,1,1.8,1.2l0,0c0.2,0.5,0.6,0.6,1.1,0.6c0.4,0.2,0.8,0.4,1.2,0.6
		c6.7,3,13.2,2.7,19.5-1.2l0.1,0c0.5,0,0.9-0.1,1.1-0.6l0.1-0.1c0.7-0.1,1.3-0.4,1.6-1.1l0.2-0.2c0.1-0.1,0.3-0.2,0.4-0.4
		c0,0,0.2-0.2,0.2-0.2c0.2-0.1,0.3-0.3,0.5-0.4l0.1-0.1c0.2-0.2,0.3-0.3,0.5-0.5l0.1-0.1c0.2-0.2,0.4-0.3,0.5-0.5l0.1-0.1
		c0.4,0,0.5-0.2,0.5-0.5l0-0.1c0.1-0.2,0.3-0.4,0.4-0.5l0.1-0.2c2-1.9,3.2-4.2,3.6-6.9l0,0c2-5.2,1.8-10.3-0.7-15.2l-0.1-0.2
		c-0.1-0.9-0.3-1.6-1.1-2.1c0-0.2-0.1-0.3-0.2-0.3c0-0.8-0.3-1.3-1-1.6l-0.1-0.1c-0.2-0.9-0.6-1.6-1.5-1.9l0,0
		c-0.6-1.3-1.7-2.3-3-2.8l-0.1-0.1c-0.4-0.7-0.9-1.1-1.7-1.1l-0.1,0c-0.5-0.9-1.3-1.2-2.3-1.2l-0.1,0c-0.8-0.8-1.8-1.1-2.9-1.1
		l-0.1,0c-5.8-2-11.2-1.4-16.4,1.8l-0.1,0.1c-0.5-0.1-0.8,0.1-0.9,0.5c-0.1,0-0.2,0-0.2,0.2c-0.3-0.1-0.5,0.1-0.5,0.4l-0.1,0.1
		c-0.5,0-0.8,0.1-1,0.6l-0.2,0.1c-0.3-0.1-0.5,0.1-0.5,0.4l-0.1,0.1c-0.2,0.2-0.3,0.3-0.5,0.5l-0.1,0.1c-1,0.2-1.5,0.8-1.7,1.7
		l-0.1,0.1c-0.2,0.2-0.3,0.3-0.5,0.5l-0.1,0.1c-0.6,0.2-0.9,0.5-1,1.1c-0.1,0-0.2,0.1-0.2,0.2c-0.8,0.5-1.1,1.2-1.2,2.1l-0.1,0.1
		c-0.1,0.2-0.2,0.3-0.3,0.5c-0.1,0.2-0.2,0.4-0.3,0.6c-2.9,5.6-3.4,11.3-0.6,17.2c0,0.2,0.1,0.4,0.2,0.5c0,0.9,0.1,1.7,1,2.2
		c0,0.1,0,0.2,0.1,0.2c0,0.8,0.4,1.3,1,1.7l0.1,0.1c-0.1,0.5,0.1,0.7,0.6,0.9c0,0.2,0.1,0.3,0.3,0.3l0,0.2l0.2,0
		C257.9,199.8,258,199.9,258.2,200z"/>
	<path class="st5" d="M390.9,216.8c-0.1-0.1-0.3-0.3-0.4-0.4c-0.8,0.7-1.6,1.4-2.4,2.1c-3.1,2.5-5.6,5.7-9.2,7.6
		c-0.2,0.5-0.5,0.8-1.1,0.8c-0.1,0.2-0.3,0.3-0.5,0.3c-2.3,2-5,2-7.8,1.6c-5.8,2.6-11,1.2-15.6-2.6c-4.9-4.1-6.5-9.6-4.8-15.7
		c1.5-5.5,5.1-9.4,11-10.7c3.9-3.8,7.9-7.6,11.8-11.4c0,0,0-0.2,0-0.2c-1.6-0.4-3.2-0.9-4.8-1.3c-2.7-0.7-4.9-1.9-5.7-4.8
		c-2.1,0.4-3.8,0.1-4.5-2.4c-0.7-2.3-2.6-2.9-4.8-2.3c-3,0.8-5.7,2.2-8.3,3.8c-2.3,1.4-2.6,3.5-1.3,5.6c1.1,1.7,0.8,2.8-0.7,3.9
		c-0.9,0.7-1.7,1.6-2.5,2.5c-2.6,3.1-2.6,3.1-6.4,0.8c-2.5,0.6-3.8,2.3-4.6,4.5c-0.4,1.1-1,2.1-1.5,3.2c0.4,1.2-0.3,2.3-0.6,3.4
		c-0.5,2.2,0.2,4,2.2,4.5c2.9,0.8,3.7,2.5,3.3,5.2c-0.1,1-0.1,2,0.1,3c0.4,2-0.2,3.1-2.2,3.8c-2.7,0.9-3.3,2.9-2.5,5.4
		c0.8,2.7,2.1,5.1,3.5,7.5c1.1,1.8,2.8,2.9,4.7,1.8c2.6-1.5,4.3-0.8,5.9,1.4c0.6,0.9,1.5,1.6,2.4,2.2c1.6,1,1.9,2.1,1.1,3.9
		c-1.3,3.1-0.6,4.5,2.4,5.9c2.5,1.2,5.1,2.2,7.8,2.8c1.7,0.4,3.6,0,4-1.7c0.9-3.8,3.4-4,6.4-3.6c0.5,0.1,1,0,1.5-0.1
		c2.4-0.8,3.8-0.2,4.7,2.4c0.6,2,2.3,3,4.5,2.3c3-0.9,5.9-2.2,8.6-3.9c1.6-1,2.5-2.7,1.5-4.3c-1.8-3-0.7-4.8,1.7-6.5
		c0.5-0.3,0.8-0.9,1.2-1.3c-0.6-0.9-1.5-3.6-2.3-5.6C387.9,225.8,389.4,221.3,390.9,216.8z"/>
	<path class="st4" d="M253,24.8c-10,0-20-0.1-30,0.1c-3.8,0.1-6.6-1.8-8.8-4.5c-3.3-4.1-3.5-8.8-1.5-13.4c2-4.6,5.9-6.8,10.9-6.9
		c6.4-0.1,12.8,0,19.3,0C256.5,0,270.2,0,283.8,0c5.5,0,9.5,2.5,11.7,7.5c2.1,4.7,1,10.1-2.6,13.7c-2.5,2.5-5.6,3.6-9.1,3.6
		C273.5,24.8,263.3,24.8,253,24.8C253,24.8,253,24.8,253,24.8z M280.7,0.8c-3.9-0.4-6,2.3-7.6,4.9c-2.9,4.7-2.7,9.6,0.5,14.2
		c2.4,3.4,4.4,4.4,7.1,3.7c-5-2.4-7.9-5.9-7.9-11.3C272.8,6.7,276.2,3.4,280.7,0.8z"/>
	<path class="st6" d="M300.3,277.5c1.9-3.7-1.9-4.3-3.3-6.2c-0.6-0.9-1.4-0.2-2.1,0.1c-1.8,0.9-3.1,0.3-4-1.3
		c-0.8-1.4-1.5-2.8-2.1-4.2c-0.7-1.6-0.3-2.8,1.2-3.8c2.2-1.5,2.1-6.5-0.3-7.7c-1.8-0.9-2.3-2.1-1.8-3.9c0.4-1.6,1-3.2,1.6-4.8
		c0.5-1.2,1.5-1.7,2.9-1.5c3.7,0.4,6.4-2.7,5.5-6.2c-0.3-1.3,0-2.3,1.1-3.1c1.6-1.2,3.5-1.9,5.3-2.6c1-0.4,2.2,0,2.6,0.9
		c1.6,3.7,4.6,1.3,7,1.7c0.9,0.2,1-0.8,1.2-1.4c0.7-2.1,2.3-2.6,4.3-2c1.5,0.5,3,1.1,4.4,1.7c1.1,0.5,1.9,1.6,1.5,2.6
		c-1.4,3.7,2.3,4.2,3.7,6.2c0.3,0.4,0.9,0.3,1.4,0c2.8-1.6,4.2,0,5.3,2.3c0.6,1.2,1.1,2.3,1.5,3.5c0.4,1,0.2,2.3-0.7,2.7
		c-3.4,1.5-1.8,4.3-2,6.6c-0.1,1,0.6,1.3,1.4,1.6c2.3,0.8,2.6,2.5,1.9,4.5c-0.4,1.3-0.9,2.6-1.4,3.9c-0.5,1.3-1.6,1.9-3.1,1.8
		c-3.6-0.4-6.3,2.7-5.5,6.2c0.3,1.4,0,2.6-1.3,3.3c-1.5,0.8-3,1.5-4.5,2.2c-1.5,0.7-2.6,0.2-3.6-1.1c-2.1-2.7-6.4-2.3-8.1,0.7
		c-0.4,0.7-0.9,1.3-1.8,1.5c-1.5,0.4-6.8-1.5-7.6-2.7C300.6,278.7,300.5,278.1,300.3,277.5z M312.9,266.9c5.5,0,10.2-4.7,10.2-10.3
		c0-5.6-4.8-10.4-10.4-10.3c-5.4,0.1-10.2,5-10.1,10.4C302.7,262.1,307.5,266.9,312.9,266.9z"/>
	<path class="st7" d="M390.1,62.1c-2.5-0.2-3.3-2.3-4.5-3.9c-0.6-0.8,0.2-1.1,0.8-1.6c5.1-4.2,4.8-9.1-0.9-12.3
		c-2.1-1.2-0.7-2.4-0.4-3.5c0.5-1.8,1.6-3.6-0.8-4.9c-1.4-1.2-2.4-2.6-1.7-4.6c0.3-0.8,0.2-1.6-0.7-2c0,0,0,0,0,0
		c-1.4-1.8-3.5-1.6-5.4-1.7c-3.5-0.2-7.1,0.1-10.5-0.3c-2.1-0.3-2.7,0.2-2.8,2.1c0,0,0-0.1,0-0.1c-0.6,0.5-0.6,1.2-0.7,1.8
		c-0.2,0.2-0.3,0.5-0.5,0.7c-1-0.5-1.8-1.2-2.5-2c-2.7-3.2-2-6.9,1.8-8.8c1-0.5,2-0.6,2-2.3c-0.1-4.1,2.8-6.5,6.9-5.9
		c1.2,0.2,2.5,0.6,3.6,1.2c1.4,0.7,2.2,1,3-0.8c0.9-2.1,2.8-2.5,5-1.7c4.8,1.6,7.5,5.3,9.7,9.4c0.7,1.4,1.6,2.4,2.9,3.2
		c7.3,4.7,9,12.6,4.5,20c-0.8,1.3-1.5,2.7-2.6,3.6C391.9,51.4,391.2,56.8,390.1,62.1z"/>
	<path class="st4" d="M255.9,54.5c-2.4,0.2-4.8,0-7.2-0.3c-6.8-4.2-9.2-8.8-7.8-14.7c1.3-5.6,6.3-9.6,11.9-9.7
		c5.5-0.1,11,4.3,12.2,9.8c1.2,5.5-1.6,11.3-6.8,13.8C257.5,53.8,256.7,54.1,255.9,54.5z"/>
	<path class="st8" d="M371.9,73.8c1.9,0.6,3.9,1.5,5.9,1.9c5.7,1.1,10.7-0.2,14.2-5.3c3.4-0.2,6.7-0.7,10.1-0.4
		c-1.3,2.6-3,4.9-4.9,7c-8.4,9.4-24.1,9.7-30.9-1.4C368.2,75,370,74.4,371.9,73.8z"/>
	<path class="st9" d="M321.2,207.4c-3.5-2-3.5-2-1.5-5.7c1.9,0.1,3.8,0.2,5.8,0.4C324.9,204.5,323.1,206,321.2,207.4z"/>
	<path class="st7" d="M484.7,233.2c0-0.4-0.1-1,0.6-0.6C485.3,233.1,485.1,233.2,484.7,233.2z"/>
	<path class="st7" d="M484.1,233.9c0.1-0.4,0.1-0.8,0.6-0.7C484.5,233.4,484.3,233.7,484.1,233.9z"/>
	<path class="st3" d="M254.6,193.9c-0.2-0.1-0.2-0.3-0.2-0.5c-0.4-4-1.9-8-0.6-12.1c0.5-1.6,1.4-3.2,1.2-5.1
		c0.1-0.2,0.2-0.4,0.3-0.6c0.1-0.2,0.2-0.3,0.3-0.5c0,0,0.1-0.1,0.1-0.1c1.4-0.1,1.1-1.2,1.2-2.1c0-0.1,0-0.2,0.2-0.2
		c0.7-0.1,1-0.4,1-1.1c0,0,0.1-0.1,0.1-0.1c0.2-0.2,0.3-0.3,0.5-0.5c0,0,0.1-0.1,0.1-0.1c1.1,0,1.3-1,1.7-1.7c0,0,0.1-0.1,0.1-0.1
		c0.2-0.2,0.3-0.3,0.5-0.5c0,0,0.1-0.1,0.1-0.1c0.2-0.1,0.3-0.3,0.5-0.4c0,0,0.2-0.1,0.2-0.1c0.4,0,0.8-0.1,1-0.6
		c0,0,0.1-0.1,0.1-0.1c0.2-0.1,0.3-0.3,0.5-0.4c0-0.1,0.1-0.2,0.2-0.2c0.4,0,0.8-0.1,0.9-0.5c0,0,0.1-0.1,0.1-0.1
		c5.4-1.3,10.7-3.2,16.4-1.8c0,0,0.1,0,0.1,0c0.6,1.3,1.8,1.2,2.9,1.1c0,0,0.1,0,0.1,0c0.2,1.5,1.4,1.1,2.3,1.2c0,0,0.1,0,0.1,0
		c0.3,0.8,0.9,1.1,1.7,1.1c0,0,0.1,0.1,0.1,0.1c0.7,1.3,1.1,2.9,3,2.8c0,0,0,0,0,0c-0.1,1.1,0.5,1.7,1.5,1.9c0,0,0.1,0.1,0.1,0.1
		c0.1,0.7-0.1,1.5,1,1.6c0.1,0.1,0.2,0.2,0.2,0.3c0,0.9-0.2,1.9,1.1,2.1c0,0,0.1,0.2,0.1,0.2c1.3,5,0.9,10.1,0.7,15.2c0,0,0,0,0,0
		c-1.6,2.1-2.6,4.5-3.6,6.9c0,0-0.1,0.2-0.1,0.2c-0.1,0.2-0.3,0.4-0.4,0.5c0,0,0,0.1,0,0.1c-0.2,0.2-0.4,0.4-0.5,0.5
		c0,0-0.1,0.1-0.1,0.1c-0.2,0.2-0.4,0.3-0.5,0.5c0,0-0.1,0.1-0.1,0.1c-0.2,0.2-0.3,0.3-0.5,0.5c0,0-0.1,0.1-0.1,0.1
		c-0.2,0.1-0.3,0.3-0.5,0.4c0,0-0.2,0.2-0.2,0.2c-0.1,0.1-0.3,0.2-0.4,0.4c0,0-0.2,0.2-0.2,0.2c-0.8,0-1.3,0.4-1.6,1.1
		c0,0-0.1,0.1-0.1,0.1c-0.5,0-0.9,0.1-1.1,0.6c0,0-0.1,0-0.1,0c-3.9,1-7.7,2.8-11.9,2.2c0.1-1.6,1.2-1.9,2.2-2.1
		c1.6-0.4,2.5-1.6,3.4-2.6c0.6-0.7-1.8-0.7-2-2c0-0.2-0.4-0.3-0.2-0.2c-3.8,2.1-5.7,6.8-11,6c-0.4-0.2-0.8-0.4-1.2-0.6
		c-0.2-0.5-0.6-0.6-1.1-0.6c0,0,0,0,0,0c-0.1-1.2-0.9-1.2-1.8-1.2c-0.2-0.1-0.4-0.2-0.6-0.3c-0.1-0.2-0.2-0.3-0.3-0.3
		c-0.1,0-0.2-0.1-0.2-0.2c-0.1-0.6-0.4-1-1.1-1c0,0-0.2-0.2-0.2-0.2c0-0.2-0.2-0.3-0.4-0.4c-0.1,0-0.2-0.1-0.2-0.2
		c0-0.2-0.2-0.3-0.4-0.4c-0.1,0-0.2-0.1-0.2-0.2c0-0.2-0.1-0.3-0.3-0.3c-0.2-0.1-0.3-0.2-0.3-0.4c0-0.1-0.1-0.2-0.2-0.2
		c-0.2,0-0.3-0.2-0.3-0.3c-0.2-0.3-0.4-0.6-0.6-0.9c0,0-0.1-0.1-0.1-0.1c0-0.8,0-1.6-1-1.7c-0.1,0-0.2-0.1-0.1-0.2
		C255.5,195.3,255.8,194.3,254.6,193.9z"/>
	<path class="st3" d="M266.2,205.9c5.2,0.9,7.2-3.8,11-6c-0.1-0.1,0.2,0,0.2,0.2c0.2,1.3,2.7,1.3,2,2c-0.9,1-1.9,2.3-3.4,2.6
		c-1,0.2-2.1,0.6-2.2,2.1c4.3,0.6,8-1.2,11.9-2.2C279.5,208.6,272.9,208.9,266.2,205.9z"/>
	<path class="st3" d="M255,176.2c0.3,1.8-0.7,3.4-1.2,5.1c-1.3,4.1,0.2,8.1,0.6,12.1C251.6,187.6,252.1,181.8,255,176.2z"/>
	<path class="st3" d="M281,164.3c-5.7-1.4-11,0.5-16.4,1.8C269.8,163,275.2,162.3,281,164.3z"/>
	<path class="st3" d="M295.9,192.2c0.2-5.1,0.7-10.2-0.7-15.2C297.8,182,297.9,187.1,295.9,192.2z"/>
	<path class="st3" d="M292.3,199.1c1.1-2.4,2-4.8,3.6-6.9C295.5,194.9,294.3,197.3,292.3,199.1z"/>
	<path class="st3" d="M291.2,170.8c-1.9,0-2.3-1.5-3-2.8C289.6,168.5,290.6,169.4,291.2,170.8z"/>
	<path class="st3" d="M286.3,166.7c-0.9-0.1-2.1,0.4-2.3-1.2C285,165.5,285.8,165.9,286.3,166.7z"/>
	<path class="st3" d="M284,165.5c-1.1,0.1-2.3,0.2-2.9-1.1C282.2,164.4,283.2,164.7,284,165.5z"/>
	<path class="st3" d="M256.8,172.9c-0.1,0.9,0.2,2-1.2,2.1C255.7,174.1,256,173.4,256.8,172.9z"/>
	<path class="st3" d="M254.6,193.9c1.2,0.3,0.9,1.4,1,2.2C254.7,195.6,254.5,194.8,254.6,193.9z"/>
	<path class="st3" d="M292.8,172.7c-1.1-0.2-1.7-0.8-1.5-1.9C292.2,171.1,292.5,171.8,292.8,172.7z"/>
	<path class="st3" d="M295.2,176.8c-1.3-0.2-1-1.2-1.1-2.1C294.9,175.2,295.1,175.9,295.2,176.8z"/>
	<path class="st3" d="M260.3,169.1c-0.4,0.8-0.6,1.7-1.7,1.7C258.8,169.9,259.3,169.3,260.3,169.1z"/>
	<path class="st3" d="M255.7,196.4c1.1,0.1,1.1,0.9,1,1.7C256.1,197.7,255.7,197.1,255.7,196.4z"/>
	<path class="st3" d="M293.9,174.4c-1.1,0-1-0.9-1-1.6C293.6,173.1,293.9,173.6,293.9,174.4z"/>
	<path class="st3" d="M262.1,203.5c0.9,0,1.7,0,1.8,1.2C263.1,204.5,262.5,204.2,262.1,203.5z"/>
	<path class="st3" d="M287,204c0.3-0.7,0.8-1.1,1.6-1.1C288.4,203.6,287.8,203.9,287,204z"/>
	<path class="st3" d="M288.1,167.9c-0.8,0-1.4-0.4-1.7-1.1C287.2,166.8,287.8,167.2,288.1,167.9z"/>
	<path class="st3" d="M257.9,171.6c0,0.7-0.3,1-1,1.1C257,172.1,257.4,171.7,257.9,171.6z"/>
	<path class="st3" d="M259.9,201.7c0.6,0,1,0.4,1.1,1C260.4,202.6,260,202.2,259.9,201.7z"/>
	<path class="st3" d="M264.4,166.2c-0.2,0.4-0.5,0.6-0.9,0.5C263.6,166.2,264,166.1,264.4,166.2z"/>
	<path class="st3" d="M262.6,167.4c-0.2,0.5-0.5,0.6-1,0.6C261.8,167.5,262.2,167.3,262.6,167.4z"/>
	<path class="st3" d="M263.9,204.7c0.5,0,0.9,0.1,1.1,0.6C264.5,205.3,264.1,205.2,263.9,204.7z"/>
	<path class="st3" d="M256.8,198.2c0.2,0.3,0.4,0.6,0.6,0.9C256.9,198.9,256.7,198.6,256.8,198.2z"/>
	<path class="st3" d="M285.8,204.6c0.2-0.5,0.6-0.6,1.1-0.6C286.7,204.5,286.3,204.7,285.8,204.6z"/>
	<path class="st3" d="M291.7,199.9c0.1-0.2,0.3-0.4,0.4-0.5C292,199.5,291.9,199.7,291.7,199.9z"/>
	<path class="st3" d="M291.2,200.5c0.2-0.2,0.4-0.4,0.5-0.5C291.7,200.3,291.5,200.5,291.2,200.5z"/>
	<path class="st3" d="M258.7,200.5c0.2,0,0.3,0.2,0.4,0.4C259,200.8,258.8,200.7,258.7,200.5z"/>
	<path class="st3" d="M290.6,201c0.2-0.2,0.4-0.3,0.5-0.5C290.9,200.7,290.7,200.9,290.6,201z"/>
	<path class="st3" d="M259.3,201.2c0.2,0,0.3,0.2,0.4,0.4C259.6,201.4,259.4,201.3,259.3,201.2z"/>
	<path class="st3" d="M289.4,202.2c0.2-0.1,0.3-0.3,0.5-0.4C289.7,201.9,289.6,202,289.4,202.2z"/>
	<path class="st3" d="M288.8,202.7c0.1-0.1,0.3-0.2,0.4-0.4C289.1,202.4,288.9,202.6,288.8,202.7z"/>
	<path class="st3" d="M290,201.6c0.2-0.2,0.3-0.3,0.5-0.5C290.3,201.3,290.1,201.5,290,201.6z"/>
	<path class="st3" d="M261.5,168.1c-0.2,0.1-0.3,0.3-0.5,0.4C261,168.1,261.2,168,261.5,168.1z"/>
	<path class="st3" d="M261.1,202.9c0.2,0.1,0.3,0.2,0.3,0.3C261.2,203.3,261.1,203.2,261.1,202.9z"/>
	<path class="st3" d="M263.2,166.9c-0.2,0.1-0.3,0.3-0.5,0.4C262.8,167,262.9,166.8,263.2,166.9z"/>
	<path class="st10" d="M241.3,143.5c0.2,0.1,0.4,0.2,0.6,0.3C241.7,143.7,241.5,143.6,241.3,143.5z"/>
	<path class="st3" d="M258.5,170.9c-0.2,0.2-0.3,0.3-0.5,0.5C258.2,171.3,258.3,171.1,258.5,170.9z"/>
	<path class="st3" d="M257.7,199.4c0.1,0,0.2,0.1,0.2,0.2c0,0-0.2,0-0.2,0L257.7,199.4z"/>
	<path class="st3" d="M260.9,168.6c-0.2,0.2-0.3,0.3-0.5,0.5C260.5,168.9,260.7,168.8,260.9,168.6z"/>
	<path class="st3" d="M255.5,175.1c-0.1,0.2-0.2,0.3-0.3,0.5C255.3,175.4,255.4,175.3,255.5,175.1z"/>
	<path class="st3" d="M258.2,200c0.2,0,0.3,0.2,0.3,0.3c0,0-0.3-0.1-0.3-0.1L258.2,200z"/>
	<g>
		<path class="st3" d="M485.3,232.6C485.3,232.6,485.3,232.6,485.3,232.6C485.3,232.6,485.3,232.7,485.3,232.6
			C485.3,232.7,485.3,232.6,485.3,232.6z"/>
		<path class="st3" d="M484.7,233.2C484.7,233.2,484.7,233.2,484.7,233.2C484.7,233.2,484.7,233.2,484.7,233.2L484.7,233.2z"/>
		<path class="st3" d="M486.1,220.7c-2.7-12.6-9-22.7-20-29.7c-6.4-4.1-13.3-7.2-20.1-10.6c-0.4-0.1-0.8-0.2-1.2-0.4
			c-5.5-1.6-10.8-4.1-16.5-5c-2.1-0.8-4.3-1.5-6.5-1.7c-5.4-1.5-11-1.8-16.6-2.1c-10.6-0.4-21,1.2-31.4,2.4
			c-2.4,0.6-4.8,1.1-7.1,1.8c-3.1,1-5.3,2.9-5.4,6.5c0.8,2.9,3,4.1,5.7,4.8c1.6,0.4,3.2,0.9,4.8,1.3c4.3-4.3,9.7-7,15.2-9.9
			c0.1,0.7,0.2,1,0.1,1c-4.9,2.9-9.8,5.7-14.4,9.1c-0.2,0.1-0.6,0-0.9,0c-3.9,3.8-7.9,7.6-11.8,11.4c-2.3,2.7-4.6,5.4-6.8,8.1
			c-1.7,2.1-2.3,4.4-1,6.9c1.3,2.5,3.5,3.5,6.3,3.6c2.5,0,4.8-0.8,7.1-1.8c0-1.7,1.4-2.5,2.4-3.6c5.6-6.3,11.5-12.4,18.1-17.8
			c0.4-0.4,0.8-0.9,1.5-0.6c0.4,0.6,0,0.9-0.4,1.2c-7.2,6.1-13.8,12.7-20,19.7c-0.4,0.4-0.9,0.7-1.4,1.1c0.5,1.2-0.7,2.1-0.6,3.3
			c0,0,0,0,0,0c-1.1,1.7-1.1,3.5,0,5.2c0.1,0.7,0.5,1.3,1.1,1.7c0.4,0,0.6,0.2,0.7,0.6l0,0c0,0,0,0,0,0c0.4,1.1,1.7,0.9,2.4,1.5
			c2.8,0.4,5.5,0.4,7.8-1.6c0.2,0,0.4-0.1,0.5-0.3c0.1-0.6,0.4-0.9,1.1-0.8c3.6-1.9,6.2-5.1,9.2-7.6c0.8-0.7,1.6-1.4,2.4-2.1
			c1.8-3.1,5-4.8,7.7-6.9c-1.8,3-4.7,5.1-7.3,7.3c-1.6,4.6-3.2,9.3-4.8,13.9c0,0.4,0,0.8,0,1.2c0.8,1.3,1.7,2.5,2.5,3.8
			c4.5,1.7,7.5,1.1,10.7-2.4c3.2-3.4,5.6-7.5,7.7-11.6c1.3-2.5,2.3-2.7,4.7-1.2c13.4,8.7,27.7,15.7,43.6,18.8
			c10.3,2,20.3,2,28.8-5.4c0.1-0.4,0.1-0.7,0.6-0.7c0-0.4-0.1-0.9,0.5-0.6c-0.6-0.7,0.1-1.4,0.3-2
			C486.6,227.3,486.8,224,486.1,220.7z"/>
	</g>
	<path class="st9" d="M378.8,226.2c-0.2,0.5-0.5,0.8-1.1,0.8C377.9,226.4,378.2,226.1,378.8,226.2z"/>
	<path class="st9" d="M367,227.3c-0.2-0.2-0.5-0.4-0.7-0.6C366.7,226.8,367,227,367,227.3z"/>
	<path class="st3" d="M291.8,117.3c0-0.6,0.1-1.2,0-1.8c-2.1-21-9.3-40-21.5-57.2c-2.1-2.9-4.3-4.2-7.9-3.8c-2.1,0.3-4.3,0-6.5,0
		c-2.4,0.2-4.8,0-7.2-0.3c1.3,5.2,4.6,9.4,6.8,14.5c-1.3-0.2-2.2-0.4-3.2-0.5c-5.1-0.8-8.3,1.7-8.5,6.8c-0.1,2.1,0,4.2,0.5,6.2
		c0.5,2.3,0.9,3.5-2.3,2.4c-5.7-1.8-10.6,1.8-10.1,7.2c0.6,6.2,2.7,12.1,6.3,17.3c0.1,1.6,1,2.8,2.3,3.7c0,0,0,0,0,0
		c0,0.5,0.2,0.9,0.7,1c0,0,0,0.2,0,0.2l0.2,0c0.5,0.1,1,0.1,1.5,0.2c0,0,0,0,0,0c2.3,2,4.7,1.6,6.9-0.1c3.9-2.8,4.8-7.9,2.3-12.9
		c0,0,0,0,0.1,0c0,0,0,0,0,0c0,0,0,0,0,0l0,0c-0.1-0.7-0.1-1.3-0.8-1.8c0,0,0,0,0,0c-0.2-0.3-0.4-0.5-0.6-0.8
		c-2.6-4-4.7-8.2-6.1-12.8c3.7,4.2,4.4,10.4,9.4,13.7c0.3,0,0.5,0,0.7,0.1c-0.2-0.1-0.5-0.1-0.7-0.1c0.3,0.5,0.7,0.8,1.3,0.8
		c0,0,0,0,0-0.1c2.5,1.7,4.9,2,7.3-0.1l0,0c0.5,0,0.6-0.2,0.7-0.6c-0.2,0.2-0.4,0.4-0.7,0.6l0,0c0.2-0.2,0.4-0.4,0.7-0.6l-0.1,0
		c0.2-0.2,0.4-0.4,0.6-0.7c0,0,0,0,0,0c0,0,0,0,0,0l0,0c0,0,0,0,0,0c1.7-2.8,1.6-2.9-1.2-3l-0.2-0.1l-0.2,0.1c0,0,0,0,0,0
		c-1.2-0.7-2.5-0.5-3.8-0.7c-1.3-0.5-2.6-1-3.8-1.7c-2.5-1.5-4-3.6-3.6-6.6c0.4-3,2.6-4.5,5.3-5.3c4.1-1.2,4.1-1.2,2.2-5.2
		c-0.8-1.7-1.6-3.4-2.4-5.1c-0.1-0.1,0.1-0.4,0.2-0.8c1.9,1,2.3,2.9,2.8,4.5c1.4,4.3,3.7,6.6,8.6,5.4c1.3-0.3,2.7,0,4.1,0.1
		c0.2,0,0.5,0.3,0.7,0.4c-0.6,1.1-1.6,0.6-2.4,0.6c-3.8,0-7.5,0.1-11.2,0.7c-1.4,0.2-2.7,0.6-3.9,1.2c-3.2,1.7-3.8,4.9-1.4,7.6
		c1.9,2.1,4.5,2.8,7.2,3.1c4,0.5,8.1,0.2,12.1-0.1c0.7-0.1,1.6-0.5,2.4,0.6c-2.4,1.1-4.8,0.9-7.1,1.1c-1.3,0.1-2.1,0.2-2.3,1.9
		c-0.3,2.4-2.1,3.7-4,4.9c-2.1,0.2-4.1,0.5-6.1-0.4c-1.5-0.7-2,0.1-1.7,1.5c0.6,2.5,0.1,4.9-0.2,7.3c-3.1,5.3-5.9,6.5-11.4,4.8
		c-1,0.6-0.9,1.7-1,2.6c-0.9,8.7-0.2,17.5-0.4,26.3c0,0-0.1,0-0.1,0c0.2,0.1,0.4,0.2,0.6,0.3c4.1,3.8,4.1,3.8,8.8,0.9
		c0.2-0.1,0.3-0.3,0.5-0.3c5.5-1.5,8.1-4.8,6.6-10.7c-0.1-0.3,0.1-0.6,0.1-0.9c1.3-1.6,2.9-2.5,5-2.8c3.3-0.4,6.6-1,9.9-1.5
		c0.8,0,1.5,0,2.3,0c1.4,0.3,2.8,0.5,4.1,0.8c0,0-0.1-0.1-0.1-0.1c0.2,0.2,0.4,0.4,0.7,0.5c0.2,0.3,0.4,0.7,0.7,1c0,0,0,0.1,0,0.1
		c0.1,0.2,0.3,0.4,0.4,0.7c0,0,0,0,0,0c0.1,1.7,0.2,3.5,0.3,5.2c0,1,0.4,1.6,1.4,1.9c3.2,0.7,6.4,1.5,9.6,2.3c0.9-1,0.4-2.3,0.4-3.4
		C292.9,130.9,293.3,124,291.8,117.3z M263.9,96.1c-0.1-0.3-0.2-0.5-0.4-0.7C263.7,95.6,263.8,95.8,263.9,96.1z M261.8,94.8
		c-0.5,0-1,0.1-1.5,0.1C260.8,94.9,261.3,94.8,261.8,94.8z"/>
	<path class="st11" d="M440.7,219.5c-0.1,0-0.2-0.1-0.3-0.1C440.6,219.4,440.7,219.5,440.7,219.5L440.7,219.5z"/>
	<g>
		<g>
			<g>
				<path class="st4" d="M514.2,102.8c0-2.4-2-4.9-4.4-4.9c-2.3,0-4.3,1.8-4.4,4.1l0,0l0,0c-0.1-2.3-2-4.1-4.4-4.1
					c-2.4,0-4.4,2.5-4.4,4.9c0,0.3,0,0.6,0.1,0.8h0c0,0,1,6.7,8.7,9.8c7.8-3.1,8.7-9.8,8.7-9.8h0
					C514.2,103.3,514.2,103.1,514.2,102.8z"/>
			</g>
			<g>
				<path class="st4" d="M541,61.6c0-4.2-3.4-8.4-7.5-8.4c-4,0-7.3,3.1-7.5,7.1l0,0l0,0c-0.2-4-3.5-7.1-7.5-7.1
					c-4.2,0-7.5,4.3-7.5,8.4c0,0.5,0.1,1,0.1,1.5l0,0c0,0,1.6,11.4,15,16.7c13.3-5.3,15-16.7,15-16.7l0,0
					C540.9,62.6,541,62.1,541,61.6z"/>
			</g>
			<g>
				<path class="st4" d="M517.9,21.3c0-4.7-3.8-9.5-8.5-9.5c-4.5,0-8.2,3.5-8.4,8l0,0l0,0c-0.3-4.4-3.9-8-8.4-8
					c-4.7,0-8.5,4.8-8.5,9.5c0,0.6,0.1,1.1,0.2,1.6h0c0,0,1.8,12.8,16.8,18.8c14.9-6,16.8-18.8,16.8-18.8h0
					C517.9,22.4,517.9,21.9,517.9,21.3z"/>
			</g>
		</g>
	</g>
	<path class="st5" d="M370,280.8c-3.9,0-7.1-3.2-7.1-7.1s3.2-7.1,7.1-7.1c3.9,0,7.1,3.2,7.1,7.1S373.9,280.8,370,280.8z M370,267.6
		c-3.4,0-6.1,2.7-6.1,6.1s2.7,6.1,6.1,6.1c3.4,0,6.1-2.7,6.1-6.1S373.4,267.6,370,267.6z"/>
	<circle class="st12" cx="4.9" cy="254.3" r="4.9"/>
	<rect x="3.1" y="173.2" transform="matrix(0.707 -0.7072 0.7072 0.707 -120.8625 55.7291)" class="st10" width="7.4" height="1"/>
	<path class="st13" d="M24.9,306.3h119.8c4.1,0,7.4-3.5,7-7.6l-0.7-8.4H18.6l-0.7,8.4C17.5,302.7,20.7,306.3,24.9,306.3z"/>
	<path class="st12" d="M155.4,176.2c5.5-18.1,5.8-31.7-8.4-38.2s-14.8-16.4-14.8-33.8c0-0.8,0-1.7-0.1-2.5c0.2,0.9,0.3,1.9,0.4,2.9
		c1.6,17.4,3.2,27.4,18.2,32.8l0.3-0.9c-14.4-5.1-15.9-14.5-17.5-31.9c-0.4-4.6-1.7-8.6-3.3-12c-5.7-15.7-22.3-23.5-31.2-21.6
		c-12.1,2.6-19.6,6.1-24.4,10C64.7,86,62.3,94.7,59.6,104.5c-1.6,5.8-3.3,12-6.6,18.4c-7.4,4.8-15.6,7.8-19.3,17.1
		c-1,2.4-1.6,4.7-2,7.1c-10.4,10.1-15.2,18.1-15,24.9c0.1,3.7,1.7,7,4.8,9.9c-0.6,0.8-1.2,1.6-1.9,2.4c-17.3,21.2-19.2,50.5,9,69.1
		C56.8,272,150.4,282.9,166,242.9C175.4,218.6,149.9,194.2,155.4,176.2z M22,181.1c-2.8-2.7-4.3-5.7-4.4-9.1
		c-0.2-6.2,4.4-13.9,13.8-23.2C29.8,158.6,30.7,168.7,22,181.1z M54.6,121.7c2.9-6.1,4.5-11.8,6-17c2.4-8.6,4.4-15.8,11.1-20.8
		c-8.8,10.5-2.9,23.5-11.8,33.3C58.2,119,56.4,120.4,54.6,121.7z"/>
	<path class="st10" d="M87.3,157.2c4.3-0.2,8.7,0.1,12.9,0.9c8.8,1.7,21.9,4.9,29.8,10.7c9.9,7.3,4.5,122.9,4.5,122.9H60.9
		c0,0-3.7-121.5,2.6-128.3C67.6,159,79.5,157.6,87.3,157.2z"/>
	<path class="st3" d="M80.8,157.1c6.3-4.7,11.4-27.3,12.1-39.9l13.6,15.5c-5.7,21.2-1.5,20.5,7.4,29c8.8,8.4-2.3,24.1-24.7,18.9
		C69.4,175.9,74.5,161.8,80.8,157.1z"/>
	<path class="st14" d="M92.9,117.2l13.6,15.5c-1.3,4.7-2,8.4-2.4,11.2c-6.4-1.4-10.8-5.2-13.7-10.1
		C91.7,127.9,92.6,121.8,92.9,117.2z"/>
	<path class="st3" d="M125.3,102.8c1.8,16.6-3.2,49.4-26.7,34.6C66.6,117.4,119.9,54.9,125.3,102.8z"/>
	<path class="st5" d="M80.8,157.1c0,0-4.1,63.8-4.7,135.7H17.1c0,0,3.9-77.4,18.1-117.8C39.5,162.7,61.3,158.2,80.8,157.1z"/>
	<path class="st5" d="M138.9,177.5C145,188,174.6,217,175.5,236c1.5,32.2-22.2,52.2-29.8,42.8c-7.6-9.4-35.9-63.7-23.5-100.4
		C127.2,163.6,132.7,167,138.9,177.5z"/>
	<path class="st3" d="M122.1,279.3c-6.2-10.5-7-44.1-8-63.1c-1.5-32.2,9.7-51.3,17.3-41.9c7.6,9.4,36.8,60.7,24.5,97.4
		C150.9,286.5,128.3,289.8,122.1,279.3z"/>
	<path class="st3" d="M151,231.5c-1.1-3.4,0.1-7.2,3.1-9.1c2.1-1.3,3.7-3.2,5.1-5.3c2.5-3.7,2.1-6.3,6.7-4.7
		c4.7,1.7,12-0.8,7.7,10.4c-3,7.9-7.8,11.7-12,13.5C157.3,238.1,152.4,235.9,151,231.5L151,231.5z"/>
	<path class="st5" d="M111.5,159.6c0,0,1.1,61.1,0,133.2H153c0,0-7.5-94.3-15.8-115.3C132.7,166.2,123.6,161.9,111.5,159.6z"/>
	<path class="st12" d="M126,96.5c-0.8,0.6-1.5,1.1-2.3,1.5c2.2-1.6,2.9-4.2,0.8-8.8c0,0-17.7-11.1-31.2-10.5
		c-13.5,0.6-30.3,32.4-22.8,44.1c7.5,11.7,20-8,26.3-17.2c0.3-0.5,0.7-0.9,1.2-1.3c1.8,0,3.4,0.2,5,0.5c5.2,0.8,10.5,1.7,23.6-7.6
		L126,96.5z M103.1,103.9c-1.2-0.2-2.4-0.4-3.8-0.5c6.3-3.6,18.7-1.9,24-5.1C112.5,105.4,107.9,104.6,103.1,103.9z"/>
	<path class="st3" d="M130.9,230.2c-19.1,3.1-40,15.5-54.1,7.2c-11.9-7-18.5-41.6-35.1-42c-21.4-0.6-4.7,86.5,20.1,91.6
		c11.7,2.4,48-12.8,60.9-22C138.1,254,163.6,224.9,130.9,230.2z"/>
	<path class="st3" d="M146.4,215.3c1.2-2,4.6-4.8,6.4-6.9c1.9-2,2,3.3-0.9,7.2C149.2,219.3,146.4,215.3,146.4,215.3z"/>
	<polygon class="st5" points="161.6,240 142.3,240 156.2,195.7 175.5,195.7 	"/>
	<polygon class="st13" points="163.6,240 144.3,240 158.2,195.7 177.5,195.7 	"/>
	<path class="st3" d="M133.5,226.3c5-0.3,8.2-3.4,10.6-7.1c2.5-3.7,2.1-6.3,6.7-4.7c4.7,1.7,13.9-3.1,9.6,8.1
		c-6.4,16.6-22.4,17.4-22.4,17.4L133.5,226.3z"/>
	<path class="st5" d="M132.6,221.4c-8.3,0.8-33.7,6-50.8,10.6c-8.9-17.8-25.6-46.6-30.1-54.2c-6.2-10.5-11.7-13.9-16.7,0.9
		c-12,35.6,14.3,87.8,22.8,99.5c0.2,0.3,0.4,0.6,0.6,0.9c0,0,0.1,0.1,0.1,0.1c1.3,1.6,3,1.9,4.9,1.2c15.4-2.1,73-29.8,77.1-36.6
		C144.5,237.2,141.9,220.6,132.6,221.4z"/>
	<path class="st3" d="M93.6,117.4c0.4-4-0.8-11.8-6.4-8.3C79.5,114,92.4,128.9,93.6,117.4z"/>
	<g>
		<g>
			<g>
				<path class="st15" d="M102.4,114c0,0,0.1-0.1,0.2-0.3c0.1-0.2,0.4-0.5,0.7-0.8c0.7-0.6,1.8-1.2,3.2-1.2c1.4,0,2.6,0.5,3.3,1
					c0.4,0.3,0.6,0.5,0.8,0.7c0.2,0.2,0.2,0.3,0.2,0.3s-0.6-0.1-1.4-0.1c-0.8,0-1.8,0-2.9,0c-1.1,0-2.1,0.1-2.9,0.1
					C103,113.9,102.4,114,102.4,114z"/>
			</g>
		</g>
	</g>
	<g>
		<g>
			<g>
				<path class="st15" d="M126.5,116.4c0,0-0.5-0.2-1.1-0.3c-0.6-0.2-1.4-0.3-2.2-0.5c-0.8-0.2-1.5-0.4-2.2-0.6
					c-0.6-0.1-1.1-0.2-1.1-0.2s0.1-0.1,0.2-0.2c0.1-0.2,0.4-0.3,0.7-0.5c0.6-0.4,1.7-0.7,2.8-0.4c1.1,0.3,1.9,1,2.3,1.7
					c0.2,0.3,0.3,0.6,0.4,0.8C126.5,116.3,126.5,116.4,126.5,116.4z"/>
			</g>
		</g>
	</g>
	<g>
		<g>
			<g>
				<path class="st14" d="M119.2,130c0,0-0.2,0.1-0.5,0.4c-0.3,0.3-0.8,0.6-1.4,0.9c-0.6,0.3-1.5,0.7-2.4,0.9c-1,0.2-2,0.2-3.2,0.1
					c-1.1-0.2-2.1-0.5-3-1c-0.9-0.5-1.6-1-2.1-1.5c-0.5-0.5-0.9-1-1.1-1.3c-0.2-0.3-0.3-0.5-0.3-0.5s0.2,0.1,0.5,0.3
					c0.3,0.2,0.8,0.4,1.4,0.7c1.2,0.5,2.9,1,4.8,1.3c1.9,0.3,3.7,0.3,5,0.1c0.7-0.1,1.2-0.2,1.6-0.3C119,130.1,119.2,130,119.2,130z
					"/>
			</g>
		</g>
	</g>
	<path class="st12" d="M201.1,138.8c-0.5-4-4.2-6.9-8.3-6.4l-19.6,2.6c-4,0.5-6.9,4.2-6.4,8.3c0.5,4.2,4.6,7,8.7,6
		c0.4-0.1,0.7-0.2,1-0.2h0l2.4,2.5c0.5,0.6,1.5,0.2,1.6-0.5l0.4-2.6l13.7-1.4C198.8,146.6,201.6,142.8,201.1,138.8z M180.2,142.2
		c-0.6,0.1-1.2-0.4-1.2-1c-0.1-0.6,0.4-1.2,1-1.2c0.6-0.1,1.2,0.4,1.2,1C181.3,141.6,180.8,142.2,180.2,142.2z M184.1,141.8
		c-0.6,0.1-1.2-0.4-1.2-1s0.4-1.2,1-1.2s1.2,0.4,1.2,1C185.2,141.2,184.8,141.7,184.1,141.8z M188.1,141.4c-0.6,0.1-1.2-0.4-1.2-1
		c-0.1-0.6,0.4-1.2,1-1.2c0.6-0.1,1.2,0.4,1.2,1C189.1,140.8,188.7,141.3,188.1,141.4z"/>
	<path class="st12" d="M193,185.5c0.5-4-1.8-7.5-5.3-7.8l-16.6-1.4c-3.4-0.3-6.6,2.8-7.1,6.8c-0.5,4.2,2.1,7.7,5.7,7.6
		c0.3,0,0.6,0,0.9,0h0l1.4,2.9c0.3,0.6,1.2,0.5,1.4-0.2l0.9-2.4l11.5,1.3C189.2,192.6,192.4,189.5,193,185.5z M175.1,184.7
		c-0.5-0.1-0.9-0.6-0.8-1.2c0.1-0.6,0.6-1.1,1.1-1c0.5,0.1,0.9,0.6,0.8,1.2C176.1,184.3,175.6,184.8,175.1,184.7z M178.4,185.1
		c-0.5-0.1-0.9-0.6-0.8-1.2c0.1-0.6,0.6-1.1,1.1-1c0.5,0.1,0.9,0.6,0.8,1.2C179.4,184.7,178.9,185.1,178.4,185.1z M181.7,185.4
		c-0.5-0.1-0.9-0.6-0.8-1.2c0.1-0.6,0.6-1.1,1.1-1c0.5,0.1,0.9,0.6,0.8,1.2C182.7,185,182.2,185.5,181.7,185.4z"/>
	<path class="st4" d="M300.1,31.9c5.9,0,10.7,4.6,10.7,10.2s-4.8,10.2-10.7,10.2h-46.5V31.9H300.1 M300.1,29.7h-48.8v24.6h48.8
		c7.1,0,12.9-5.5,12.9-12.3C313,35.2,307.2,29.7,300.1,29.7L300.1,29.7z"/>
	<path class="st3" d="M390.1,62.1c-2.2-0.2-3.1-1.9-4.1-3.4c0,0,0,0,0,0c-0.1-0.3-0.3-0.7-0.5-1.2c0.2-0.3,0.6-0.5,0.9-0.8
		c5.1-4.2,4.8-9.1-0.9-12.3c-2.1-1.2-0.7-2.4-0.4-3.5c0.5-1.8,1.6-3.6-0.8-4.9c-0.2-0.1-0.4-0.1-0.6-0.2c0.2,0.1,0.4,0.2,0.6,0.2
		c-0.5-0.4-0.9-0.9-1.3-1.4c0-1.4,0-2.7-0.3-3.5c0.1-0.6,0-1.3-0.7-1.7c0,0,0,0,0,0l0,0c-1.4-1.8-3.5-1.6-5.4-1.7
		c-3.5-0.2-7.1,0.1-10.5-0.3c-1-0.1-1.7-0.1-2.1,0.2c-0.1,0-0.1,0-0.1,0s0,0.1-0.1,0.2c-0.2,0.2-0.3,0.5-0.4,0.8
		c-0.8,1.7-2.2,5-2.9,7.4c-0.4,0.6-0.5,1.2-0.4,1.8c0,0,0,0,0,0c-0.2,2.7,0.8,2.7-2.2,8.7s-4.4,17.9,4.8,21.5c0,0,0,0,0,0
		c0.6,0.3,1.2,0.5,2,0.4c0.9,0.3,1.8,0.3,2.7,0.2c0.1,0,0.2,0,0.3,0c0.6,0.2,1.2,0.2,1.7-0.2c0.4-0.1,0.8-0.1,1.2-0.2
		c0.4,0,0.8,0,1.1-0.1c0.1,0.3,0.1,0.6,0.2,0.9c-0.1,1.6-0.1,3.1-0.2,4.7c1.9,0.6,3.9,1.5,5.9,1.9c5.7,1.1,10.7-0.2,14.2-5.3
		C391.4,67.6,391.2,64.8,390.1,62.1z M385.7,47.8c0.1,0.1,0.2,0.3,0.3,0.4C385.9,48,385.8,47.9,385.7,47.8L385.7,47.8z M369.1,28.4
		C369.1,28.4,369.1,28.4,369.1,28.4c4.3,0,8.5-0.2,12.7,1C377.6,28.2,373.3,28.4,369.1,28.4z M382,30C382,30,382,30,382,30
		c0-0.2,0-0.3,0-0.5C382,29.6,382,29.8,382,30z M385.2,53.8C385.2,53.8,385.2,53.8,385.2,53.8c0-0.3,0.1-0.6,0.1-0.9
		C385.3,53.2,385.2,53.5,385.2,53.8z"/>
	<path class="st5" d="M205.7,159l-19.6-2.6c-4-0.5-7.8,2.3-8.3,6.4c-0.5,4,2.3,7.8,6.4,8.3l13.7,1.4l0.4,2.6
		c0.1,0.8,1.1,1.1,1.6,0.5l2.4-2.5h0c0.3,0,0.7,0.1,1,0.2c4.1,0.9,8.1-1.9,8.7-6C212.6,163.2,209.8,159.5,205.7,159z M197.9,164.5
		c0,0.1,0,0.2-0.1,0.3l0,0c0,0-0.7,2.5-3.9,3.3c-2.8-1.6-2.8-4.2-2.8-4.2l0,0c0-0.1,0-0.2,0-0.3c0.1-0.9,1-1.8,2-1.7
		c0.9,0.1,1.5,0.9,1.5,1.8l0,0l0,0c0.2-0.9,1-1.5,1.9-1.4C197.4,162.5,198,163.6,197.9,164.5z"/>
	<g>
		<g>
			<g>
				<path class="st15" d="M372.4,52.7c0,0-0.5,0.6-1.6,1.3c-1,0.7-2.6,1.5-4.5,1.9c-1.9,0.4-3.7,0.2-4.9-0.1
					c-1.2-0.3-1.9-0.6-1.9-0.6s0.8,0,2-0.1c1.2-0.1,2.8-0.3,4.6-0.6c1.7-0.3,3.3-0.7,4.5-1.1C371.7,53,372.4,52.7,372.4,52.7z"/>
			</g>
		</g>
	</g>
	<g>
		<g>
			<g>
				<path class="st15" d="M377.5,40.8c0,0-1.6,0.6-3.5,0.3s-3.3-1.2-3.3-1.2s1.6-0.6,3.5-0.3C376.1,39.9,377.5,40.8,377.5,40.8z"/>
			</g>
		</g>
	</g>
	<g>
		<g>
			<g>
				<path class="st15" d="M359.1,40.7c0,0,0.8-0.9,1.9-1.2c1.1-0.3,2.2,0.3,2.2,0.3s-0.8,0.9-1.9,1.2
					C360.2,41.2,359.1,40.7,359.1,40.7z"/>
			</g>
		</g>
	</g>
</g>
</svg>
