<?xml version="1.0" encoding="utf-8"?>
<!-- Generator: Adobe Illustrator 28.4.1, SVG Export Plug-In . SVG Version: 6.00 Build 0)  -->
<svg version="1.1" id="Layer_1" xmlns="http://www.w3.org/2000/svg" xmlns:xlink="http://www.w3.org/1999/xlink" x="0px" y="0px"
	 viewBox="0 0 626.3 453.3" style="enable-background:new 0 0 626.3 453.3;" xml:space="preserve">
<style type="text/css">
	.st0{fill:#E4DFEA;}
	.st1{opacity:0.5;fill:#AAAAAA;}
	.st2{fill:#FF5A2E;}
	.st3{fill:#FF9783;}
	.st4{fill:#9D39B5;}
	.st5{fill:#A456B7;}
	.st6{fill:#EE4267;}
	.st7{fill:#F75C85;}
</style>
<g>
	<g>
		<path class="st0" d="M607.5,317.4l9.9-2.3c0.7-4.6,0.8-9.1,0.3-13.5l-9.8-2.7c-0.4-2-0.8-3.9-1.4-5.9l7.5-6.9
			c-1.7-4.2-3.9-8.2-6.5-11.9l-9.8,2.6c-1.3-1.5-2.7-3-4.2-4.4l3-9.7c-3.5-2.8-7.4-5.1-11.6-7l-7.2,7.1c-1.4-0.5-2.8-0.9-4.3-1.3
			c-0.5-0.1-1-0.2-1.5-0.4l-2.3-9.9c-4.6-0.7-9.1-0.8-13.5-0.3l-2.7,9.8c-2,0.4-3.9,0.8-5.9,1.4l-6.9-7.5c-4.2,1.7-8.2,3.9-11.9,6.5
			l2.6,9.8c-1.5,1.3-3,2.7-4.4,4.2l-9.7-3c-2.8,3.5-5.1,7.4-7,11.6l7.1,7.2c-0.5,1.4-1,2.8-1.3,4.3c-0.1,0.5-0.2,1-0.4,1.5l-9.9,2.3
			c-0.7,4.6-0.8,9.1-0.3,13.5l9.8,2.7c0.4,2,0.8,3.9,1.4,5.9l-7.5,6.9c1.7,4.2,3.9,8.2,6.5,11.9l9.8-2.6c1.3,1.5,2.7,3,4.2,4.4
			l-3,9.7c3.5,2.8,7.4,5.1,11.6,7l7.2-7.1c1.4,0.5,2.8,1,4.3,1.3c0.5,0.1,1,0.2,1.5,0.3l2.3,9.9c4.6,0.7,9.1,0.8,13.5,0.3l2.7-9.8
			c2-0.4,3.9-0.8,5.9-1.4l6.9,7.5c4.2-1.7,8.2-3.9,11.9-6.5l-2.6-9.8c1.5-1.3,3-2.7,4.4-4.2l9.7,3c2.8-3.5,5.1-7.4,7-11.6l-7.1-7.2
			c0.5-1.4,1-2.8,1.3-4.3C607.3,318.4,607.4,317.9,607.5,317.4z M598.5,316.7c-5.3,20.4-26.1,32.7-46.5,27.4
			c-20.4-5.3-32.7-26.1-27.4-46.5c5.3-20.4,26.1-32.7,46.5-27.4C591.5,275.5,603.8,296.3,598.5,316.7z"/>
	</g>
</g>
<g>
	<path class="st0" d="M41,341.3c0-0.1,0-0.3-0.1-0.4c-0.1-0.2-0.1-0.3-0.2-0.5c0-0.1,0-0.2-0.1-0.3c0,0,0-0.1,0-0.1c0,0,0,0,0,0
		c0-0.1,0-0.2-0.1-0.4c-1.1-3.5-4.1-5.7-6.9-4.9l-30.4,9.2c-2.7,0.8-4.1,4.4-3,7.9c0,0.1,0.1,0.1,0.1,0.2c0,0.1,0,0.1,0,0.2
		c0,0.1,0.1,0.3,0.2,0.4c0,0.2,0.1,0.3,0.1,0.5c0.1,0.2,0.1,0.3,0.2,0.5c0,0.2,0.1,0.4,0.1,0.6c1.1,3.5,4.1,5.7,6.9,4.9l30.4-9.2
		c2.7-0.8,4.1-4.3,3-7.9C41.2,341.8,41.1,341.6,41,341.3z"/>
	<path class="st0" d="M41.1,266.8l-30.6-8.3c-2.7-0.7-5.7,1.5-6.7,5.1c0,0.1,0,0.1,0,0.2c0,0.1,0,0.1-0.1,0.2c0,0.1,0,0.3-0.1,0.4
		c-0.1,0.2-0.1,0.3-0.2,0.5c-0.1,0.2-0.1,0.4-0.1,0.6c-0.1,0.2-0.1,0.3-0.2,0.5c-1,3.5,0.5,7,3.2,7.8l30.6,8.3
		c2.7,0.7,5.7-1.5,6.7-5.1c0.1-0.2,0.1-0.4,0.1-0.7c0.1-0.2,0.1-0.3,0.2-0.4c0-0.2,0.1-0.3,0.1-0.5c0.1-0.1,0.1-0.3,0.2-0.4
		c0,0,0-0.1,0-0.1c0-0.1,0.1-0.2,0.1-0.3C45.3,271,43.9,267.6,41.1,266.8z"/>
	<path class="st0" d="M83.4,213.1l-21.6-23.3c-1.9-2.1-5.7-1.7-8.4,0.8c-0.1,0.1-0.1,0.1-0.2,0.2c0,0-0.1,0.1-0.1,0.1
		c-0.1,0.1-0.2,0.2-0.3,0.3c-0.1,0.1-0.3,0.2-0.4,0.3c-0.1,0.1-0.2,0.3-0.4,0.4c-0.2,0.1-0.3,0.2-0.5,0.4c-2.7,2.5-3.3,6.2-1.4,8.3
		l21.6,23.3c1.9,2.1,5.7,1.7,8.4-0.8c0.2-0.2,0.3-0.3,0.5-0.5c0.1-0.1,0.3-0.2,0.4-0.3c0.1-0.1,0.2-0.3,0.4-0.4
		c0.1-0.1,0.2-0.2,0.3-0.3c0,0,0-0.1,0.1-0.1c0.1-0.1,0.2-0.1,0.2-0.2C84.7,218.9,85.3,215.2,83.4,213.1z"/>
</g>
<g>
	<path class="st0" d="M539.5,3.5c-0.1,0-0.1,0-0.2-0.1c-0.1,0-0.1-0.1-0.1-0.1c-0.1-0.1-0.3-0.1-0.4-0.1c-0.2-0.1-0.3-0.2-0.5-0.3
		c-0.2-0.1-0.4-0.1-0.5-0.2c-0.2-0.1-0.3-0.2-0.5-0.3c-3.4-1.5-7-0.6-8.2,2l-13,28.9c-1.2,2.6,0.6,5.9,4,7.4
		c0.2,0.1,0.4,0.2,0.7,0.2c0.1,0.1,0.3,0.2,0.4,0.2c0.2,0.1,0.3,0.1,0.5,0.2c0.1,0.1,0.2,0.2,0.4,0.2c0,0,0.1,0,0.1,0
		c0.1,0,0.2,0.1,0.2,0.1c3.4,1.5,7,0.6,8.2-2l13-28.9C544.6,8.3,542.9,5,539.5,3.5z"/>
	<path class="st0" d="M603.8,63.9c0-0.1-0.1-0.1-0.1-0.2c0-0.1-0.1-0.1-0.1-0.2c-0.1-0.1-0.2-0.2-0.3-0.4c-0.1-0.1-0.1-0.3-0.2-0.4
		c-0.1-0.2-0.2-0.3-0.3-0.4c-0.1-0.2-0.2-0.3-0.3-0.5c-2-3.1-5.6-4.3-8-2.7l-26.4,17.6c-2.4,1.6-2.6,5.3-0.5,8.4
		c0.1,0.2,0.3,0.4,0.4,0.5c0.1,0.1,0.1,0.3,0.2,0.4c0.1,0.1,0.2,0.3,0.3,0.4c0.1,0.1,0.1,0.3,0.2,0.4c0,0,0,0,0.1,0.1
		c0.1,0.1,0.1,0.2,0.1,0.3c2,3.1,5.6,4.3,8,2.7l26.4-17.6C605.6,70.7,605.9,67,603.8,63.9z"/>
	<path class="st0" d="M626.3,149c0-0.1,0-0.1,0-0.2c0-0.2,0-0.3-0.1-0.5c0-0.2,0-0.3,0-0.5c0-0.2,0-0.4-0.1-0.5c0-0.2,0-0.4,0-0.6
		c-0.1-3.7-2.5-6.6-5.4-6.5l-31.7,1c-2.8,0.1-5,3.2-4.9,6.8c0,0.2,0,0.5,0.1,0.7c0,0.2,0,0.3,0,0.5c0,0.2,0,0.4,0.1,0.5
		c0,0.1,0,0.3,0,0.4c0,0,0,0,0,0.1c0,0.1,0,0.2,0,0.3c0.1,3.7,2.5,6.6,5.4,6.5l31.7-1c2.9-0.1,5.1-3.2,4.9-6.8
		C626.3,149.2,626.3,149.1,626.3,149z"/>
</g>
<g>
	<path class="st1" d="M176.3,333.4l10.6,119.1c0,0,76.7,5.3,117.5-9.9L176.3,333.4z"/>
	<path class="st2" d="M176.3,333.4c0,0,11.2,88.7,19.3,111.9c0,0,51.5,11.7,108.9-2.8l-12.3-121.6L176.3,333.4z"/>
	<path class="st3" d="M178.6,351c-1.5-10.6-2.3-17.7-2.3-17.7l115.8-12.5l1.7,16.3L178.6,351z"/>
</g>
<g>
	<g>
		<path class="st0" d="M223.3,395.1c6.8-1.5,12.3-7.7,14.4-14.1c2.1-6.5-1.9-16.5-10-15.9c-2,0.2-3.1,1.5-3.2,3
			c-0.1-0.2-0.2-0.3-0.5-0.4c-4.8-1.3-8.9-1.4-13.2,1.5c-4.1,2.8-6.4,7.6-6,12.6C205.7,390.7,214.7,396.9,223.3,395.1z M212.3,384.2
			c-5.2-7.2,3.6-16.3,11.3-15c0.5,0.1,0.8-0.2,0.9-0.5c0.1,1,0.6,1.9,1.5,2.7c1.5,1.1,3.5,1.5,4.5,3c0.8,1.2,0.7,2.7,0.4,4.2
			c-1,4-4.2,7.4-7.8,9.2C218.9,389.9,214.8,387.7,212.3,384.2z"/>
		<path class="st0" d="M263,389.2c6.8-1.5,12.3-7.7,14.4-14.1c2.1-6.5-1.9-16.5-10-15.9c-2,0.2-3.1,1.5-3.2,3
			c-0.1-0.2-0.2-0.3-0.5-0.4c-4.8-1.3-8.9-1.4-13.2,1.5c-4.1,2.8-6.4,7.6-6,12.6C245.4,384.9,254.4,391.1,263,389.2z M263.2,363.3
			c0.5,0.1,0.8-0.2,0.9-0.5c0.1,1,0.6,1.9,1.5,2.7c1.5,1.1,3.5,1.5,4.5,3c0.8,1.2,0.7,2.7,0.4,4.2c-1,4-4.2,7.4-7.8,9.2
			c-4.1,2.1-8.2-0.1-10.7-3.6C246.8,371.2,255.6,362.1,263.2,363.3z"/>
		<path class="st0" d="M260.8,376.9c3.3,0,3.3-5.2,0-5.2C257.5,371.7,257.5,376.9,260.8,376.9z"/>
		<path class="st0" d="M220.5,377.1c-3.9,0-3.9,6.1,0,6.1S224.4,377.1,220.5,377.1z"/>
		<path class="st0" d="M282.1,400.9c-2-0.5-3.9-0.2-5.9-0.2c-0.7-0.5-1.6-0.7-2.5-0.5c-0.7-0.3-1.4-0.6-2.1-1
			c-1.8-1-4.1,0.6-3.5,2.7c0.3,1.2,1.1,2.3,2,3.1c-0.7,5.2-1.8,9.6-5.6,13.6c-3.6,3.8-8.6,5.9-13.8,6.7c-4.9,0.8-10.4,0.1-14.8-2.2
			c-2.4-1.2-4.4-2.8-6.2-4.8c-1.9-2-2.9-4.5-4.3-6.8c0.7-1.2,1.1-2.6,1.1-4c0-2-2.2-2.6-3.6-1.5c-2.5,2.1-4.3,4.6-7.2,6.3
			c-1.7,1-6.3,3.2-3.9,5.7c2.3,2.3,7.2-0.5,9.2-1.8c0.2-0.1,0.4-0.3,0.6-0.5c1.5,5.3,6.1,10.1,10.4,12.8c5.9,3.7,13.2,4.7,20,3.8
			c12.7-1.7,24.8-12,25.4-25.1c2.2-0.1,4.3-0.9,5.7-2.2C284.5,403.6,283.9,401.4,282.1,400.9z"/>
	</g>
</g>
<g>
	<path class="st1" d="M483,320.3l-3.4,122l-116.4-5.8c0,0,12.4-74.7,14-97.6C378.9,315.9,483,320.3,483,320.3z"/>
	<path class="st2" d="M483,318.2c0,0-5.2,105-9.3,120.5L356.2,432c0,0,19.3-71.9,13.9-116.5L483,318.2z"/>
	<path class="st3" d="M371.2,333.2c-0.1-4.9-0.5-13.2-1.1-17.7l112.9,2.7c0,0-0.5,10.6-1,18.8L371.2,333.2z"/>
</g>
<g>
	<g>
		<path class="st0" d="M413.2,380c1.3,0.1,2.2-1.6,1.5-2.7c-2-3.3-5-5.3-8-7.8c-3.4-2.8-6.7-5.8-9.6-9.1c-3.3-3.8-9,1.9-5.6,5.6
			c3,3.2,6.3,6.1,9.9,8.6C405,377.3,408.6,379.7,413.2,380z"/>
		<path class="st0" d="M457.4,360.5c-3.9,2.5-7.7,5.1-11.6,7.6c-3.6,2.4-7.8,4.8-10.5,8.2c-1.9,2.4,0.4,5.5,3.2,4.2
			c3.7-1.8,7.1-4.4,10.7-6.4c4-2.3,8.2-4.4,12-6.8C465.6,364.6,461.7,357.8,457.4,360.5z"/>
		<path class="st0" d="M437.8,360.6c7.1,3.7,16.6-5.6,20.3-10.8c2-2.8-2.5-6.3-4.7-3.7c-2.2,2.6-4.2,5.2-7,7.2c-2.7,2-6.3,2.7-8.9,5
			C436.8,358.9,437,360.2,437.8,360.6z"/>
		<path class="st0" d="M404.5,357.8c1.7,1.2,3.9,2.1,6,2.5c2.3,0.4,4.1-0.3,6.3-0.8c1.4-0.3,1.4-2.5,0-2.8c-2.6-0.7-6-2.6-8.1-4.3
			c-2.7-2.1-3.7-5.5-6.3-7.4c-2.1-1.6-4.4,0.6-4.6,2.7C397.2,351.6,401.5,355.7,404.5,357.8z"/>
		<path class="st0" d="M448,402.6c-6.3,1.9-12.5,3.9-18.6,6.1c0,0,0,0,0,0c-0.6-1.7-1.4-3.3-2-5c-0.3-0.8-0.5-1.7-0.6-2.5
			c2.5-0.3,5.1-0.7,7.6-1.1c0,1.5,0.2,2.9,1,4c1.8,2.4,5,1.5,5.4-1.5c0.2-1.2-0.4-2.5-0.7-3.7c0,0,0,0,0,0c2.1-0.5,4.2-1.1,6.2-1.8
			c4.7-1.7,2.9-8.7-2.1-7.5c-8,1.9-15.7,3.9-23.8,5.3c-4,0.7-8.1,1.1-12.2,1.6c-4,0.5-8.5,0.3-12.2,1.7c-1.6,0.6-1.6,2.6,0,3.2
			c0.3,0.1,0.7,0.2,1.1,0.3c-0.3,0.3-0.6,0.8-0.6,1.3c-0.2,2.9,0.5,5.8,0.6,8.7c0.1,3.4-0.1,6.8-0.4,10.2c-0.3,3.6,3.7,4.4,5.9,2.5
			c7.3-1.2,14.6-4.6,21.6-6.9c8.6-2.8,17.2-5.4,26-7.7C454.6,408.6,452.6,401.2,448,402.6z M406.7,402.3c0,1.3,0.2,2.5,0.3,3.8
			c0.3,2.6,0.5,5.3,1.1,7.8c0.2,1,0.7,1.6,1.3,2.1c-1.8,0.8-3.6,1.7-5.4,2.6c0.2-5.5-0.7-12.4-3.9-16.5
			C402.3,402.4,404.5,402.4,406.7,402.3z M415.5,413.7c0.1-0.5,0.1-1.1,0-1.7c-0.5-2.3-1.1-4.5-1.7-6.7c-0.2-1-0.5-2-0.7-3
			c2.7-0.1,5.4-0.3,8.1-0.5c0.1,0,0.2,0,0.3,0c-0.2,3.2,0.7,6.7,2.3,9.1c-0.5,0.2-1,0.3-1.4,0.5C420.1,412,417.8,412.8,415.5,413.7z
			"/>
	</g>
</g>
<g>
	<path class="st1" d="M437.4,179.8l-10.6,119.1c0,0-76.7,5.3-117.5-9.9L437.4,179.8z"/>
	<path class="st4" d="M437.4,179.8c0,0-11.2,88.7-19.3,111.9c0,0-51.5,11.7-108.9-2.8l12.3-121.6L437.4,179.8z"/>
	<path class="st5" d="M435.1,197.5c1.5-10.6,2.3-17.7,2.3-17.7l-115.8-12.5l-1.7,16.3L435.1,197.5z"/>
</g>
<g>
	<g>
		<path class="st0" d="M348,243.5c7.1,2.5,12.8-5.7,15.2-11.2c1.8-4.1,2.8-8.5,2.8-13c0-3.6-0.7-9.9-4.7-11.3
			c-1-0.4-2.5,0.4-2.7,1.5c-0.4,2.8,1.5,5.7,1.7,8.5c0.3,3.1-0.2,6.2-1.1,9.2c-1.1,3.5-4.2,11-8.7,11.2c-2,0.1-3.2-2.7-3.9-4.2
			c-1.5-3.2-1.8-6.5-1.5-10c0.6-5.8,3-14.6,10.1-14.5c0.6,0,1.1-0.9,0.6-1.3c-7.4-6.4-13.6,7.1-15,12.5
			C339.1,227.9,339.8,240.5,348,243.5z"/>
		<path class="st0" d="M403.1,227.2c-0.3-3.4-1.3-9.6-5.6-10.1c-0.4,0-0.8,0.3-0.9,0.7c-1,2.7,0.9,6,1.3,8.7
			c0.4,3.2,0.1,6.4-0.7,9.5c-0.8,3-3.6,10-7.7,7.4c-2.6-1.7-4.2-6-5-8.8c-0.8-2.7-0.8-5.6-0.7-8.3c0.1-2.9,0.6-6,1.9-8.7
			c1.3-2.7,3.2-2.9,5.7-3.8c0.7-0.3,0.9-1,0.4-1.6c-2.2-2.8-6.1-1.6-8.3,0.4c-3,2.6-4.3,7.2-4.8,11c-1.3,8.4,0.2,19.1,7.5,24.6
			c7,5.2,13-2.3,15.4-8.3C403,235.9,403.5,231.4,403.1,227.2z"/>
		<path class="st0" d="M387.6,221.6c-0.5,1.3-0.8,3,0,4.3c0.7,1.2,2.4,1.2,3.1,0c0.8-1.3,0.4-3,0-4.3
			C390.1,220,388.1,220,387.6,221.6z"/>
		<path class="st0" d="M349.1,214.5c-1.2,1.9-1.2,4.8-0.7,6.9c0.3,1.3,2.1,1.8,3,0.8c1.1-1.2,1.4-2.2,1.6-3.8
			c0.2-1.2-0.1-2.8-0.8-3.9C351.5,213.3,349.9,213.3,349.1,214.5z"/>
		<path class="st0" d="M396.1,267.8c-0.3-0.1-0.6-0.2-1-0.2c-3.4-11.1-15.7-16.1-26.6-15.1c-8.8,0.8-21.3,5.5-25.4,14.3
			c-0.2-0.4-0.5-0.9-0.8-1.3c-0.3-0.4-0.7-0.8-1-1.1c-0.2-0.2-0.4-0.3-0.7-0.4c-0.9-1.1-2.4,0.1-2.2,1.3c-0.4,1.6,0.6,3.7,1,5.1
			c0.8,2.7,1,6.4,2.7,8.8c1.1,1.6,3.8,1.6,4.3-0.6c0.7-2.7-0.6-5.8-1.7-8.4c2.6-3.3,5.2-6.4,8.8-8.7c4.3-2.7,9.4-4.4,14.4-4.6
			c4.6-0.2,9.2,0.7,13.1,3c4.3,2.4,6.3,6.2,7.7,10.6c-1.3,1.4-2.2,3.2-2.2,5.1c0.1,2.6,3.5,3.6,4.9,1.3c0.7-1.2,1.1-2.3,2-3.4
			c0.2-0.3,0.5-0.5,0.8-0.8c0.1-0.1,0.2-0.2,0.3-0.2c0.8-0.6,1.7-1.1,2.3-1.8C397.8,269.7,397.3,268.3,396.1,267.8z"/>
	</g>
</g>
<g>
	<path class="st1" d="M405.1,120.6l20.7,117.7c0,0,76.9-1.2,116.3-19.9L405.1,120.6z"/>
	<path class="st2" d="M405.1,120.6c0,0,18.6,87.4,28.7,109.9c0,0,52.3,7.2,108.3-12L519.4,98.3L405.1,120.6z"/>
	<path class="st3" d="M408.9,138c-2.3-10.5-3.8-17.4-3.8-17.4l114.4-22.3l3,16.1L408.9,138z"/>
</g>
<g>
	<g>
		<path class="st0" d="M458,170.9c5.4-2.9,7.8-10.1,7.7-15.9c-0.1-5.3-4.1-14.9-11.1-12.8c-0.6,0.2-1,0.9-0.6,1.5
			c2.3,3.7,5.8,5.5,6.4,10.2c0.4,3.9-0.8,8.2-3.5,11.1c-3,3.2-6.6,1.6-9.4-1c-5-4.8-2.9-13.9,3.7-16.1c0.9-0.3,0.7-1.5-0.2-1.6
			c-2.1-0.2-3.4-0.5-5.3,0.4c-1.9,1-3.2,2.4-4.4,4.1c-2.4,3.7-2,9.1-0.2,12.8C444,170,451.3,174.5,458,170.9z"/>
		<path class="st0" d="M449.7,157.2c-0.5,0.6-0.4,1.5-0.3,2.2c0.2,1,1.3,1.7,2.2,1.7c0.9,0,1.8-0.6,2.1-1.5c0.2-0.3,0.3-0.7,0.4-1.1
			c0.1-0.3,0.1-0.6,0-0.9c-0.1-0.5-0.5-1-1-1.2c-0.4-0.3-0.9-0.4-1.3-0.4c-0.2,0-0.5,0-0.7,0.1C450.4,156.2,450,156.7,449.7,157.2z"
			/>
		<path class="st0" d="M490.8,161.9c11.9-1.9,12.6-21.5,3.5-27.1c-0.6-0.4-1.3,0.4-1,1c3,5.5,6.9,17.9-1.7,20.8
			c-4.2,1.4-8.9-1.9-10.9-5.4c-1-1.7-1.2-3.9-0.8-5.8c0.3-1.5,2-4.5,3.4-5.3c0.9-0.5,0.2-1.7-0.7-1.5c-1.4,0.3-2.4,0-3.9,0.7
			c-1.3,0.6-2.2,1.9-2.9,3.1c-1.6,2.7-1.6,6-0.8,9C476.7,158,483.9,163,490.8,161.9z"/>
		<path class="st0" d="M486.7,151c0.7,0,1.4-0.3,1.8-0.8c0.3-0.3,0.5-0.7,0.7-1.2c0.1-0.5,0.1-0.9,0-1.4c0-0.1,0-0.3-0.1-0.4
			c-0.1-0.4-0.3-0.8-0.7-1.1c-0.5-0.5-1.1-0.7-1.8-0.7c-0.5,0-0.9,0.1-1.3,0.3c-0.5,0.3-1.1,0.9-1.2,1.5c0,0.1,0,0.3-0.1,0.4
			c-0.1,0.7-0.1,1.4,0.3,2C485,150.5,485.8,151,486.7,151z"/>
		<path class="st0" d="M509.4,171.4c-0.6-1.7-3-1.9-3.6,0c-0.1,0.2-0.1,0.4-0.1,0.5c-9.5,1.3-18.9,4.6-28.2,6.9
			c-5.5,1.4-10.9,2.7-16.5,3.8c-4.4,0.9-9.4,1.2-13.7,2.9c-1.2-0.1-2.6,1-2.2,2.5c2.4,10.8,10.5,20.1,19.4,26.2c9,6.2,20,7.7,30,3.2
			c7.9-3.6,12.3-11.6,14.2-19.7c1.1-4.3,1.5-8.9,1.7-13.3C510.7,179.9,510.9,175.5,509.4,171.4z M504.9,182c0,3.8-0.3,7.5-0.9,11.2
			c-1.2,7.2-4,14.1-10.5,17.9c-8.3,4.9-18.2,2.6-25.9-2.2c-7.9-4.9-13.5-12.5-17.8-20.6c3.5,0.2,7.2-0.5,10.5-0.9
			c5.6-0.8,11.1-1.9,16.6-3.1c5.4-1.1,10.8-2.4,16.1-3.7c4-1,8-1.7,12-2.8C504.9,179.2,504.9,180.6,504.9,182z"/>
	</g>
</g>
<g>
	<path class="st1" d="M364.5,2l32,117.8l-113.1,28.1c0,0-9.7-75.1-14.8-97.5C263.5,27.9,364.5,2,364.5,2z"/>
	<path class="st2" d="M363.9,0c0,0,25.4,102,26,118l-114.4,27.6c0,0-2.4-74.4-20.4-115.6L363.9,0z"/>
	<path class="st3" d="M261.2,46.6c-1.5-4.6-4.3-12.5-6.1-16.6L363.9,0c0,0,2.6,10.3,4.5,18.2L261.2,46.6z"/>
</g>
<g>
	<g>
		<path class="st0" d="M305.1,70.8c-4.4-1.4-9.2-2.6-13.9-2.8c-2.7-0.1-3.3,4.2-0.6,4.7c4.4,0.8,8.8,1.6,13.2,2.7
			c3.8,1,7.8,2.6,11.8,2.4c0.8-0.1,1.4-1.1,0.7-1.7C313.2,73.3,308.9,72,305.1,70.8z"/>
		<path class="st0" d="M356.1,49.5c-0.1-0.7-0.7-1-1.3-0.8c-2,0.9-3.4,2.8-4.7,4.5c-1.9,2.4-3.9,4.8-5.9,7.3
			c-2.1,2.6-7.8,7.6-6.7,11.3c0.1,0.3,0.4,0.6,0.8,0.6c1.9-0.2,2.9-1.5,4.1-2.8c1.9-2.1,3.7-4.4,5.5-6.6c1.9-2.3,3.8-4.8,5.5-7.2
			C354.8,54,356.3,51.8,356.1,49.5z"/>
		<path class="st0" d="M346.5,92.6c-3.1-1.2-6.4-2-9.7-2.7c-0.6-0.1-1.2-0.3-1.7-0.4c1.6-2.6,3.1-5.2,4.4-7.9c0.3-0.7-0.2-1.6-1-1.3
			c-3.9,1.2-6.6,4.7-8.8,8.2c-1.3-0.2-2.6-0.4-3.9-0.6c-2.3-0.3-5.7-1.1-7.9,0.1c-0.6,0.3-0.8,1.3-0.2,1.8c1.8,1.5,4.8,1.8,6.9,2.3
			c0.9,0.2,1.7,0.4,2.5,0.7c-1.5,2.6-2.8,5.3-4.2,8c-1.2,2.3-3,4.9-2.5,7.5c0.1,0.8,1,1.1,1.7,1c2.4-0.5,3.8-3,5-4.9
			c1.6-2.6,2.9-5.3,4.2-8.1c0.3-0.7,0.7-1.4,1-2c0.7,0.2,1.5,0.4,2.2,0.6c3.1,0.9,6.2,1.9,9.2,3c2,0.7,4.5,2.4,6.5,1.3
			c0.7-0.4,1.2-1.2,1.2-2.1C351.6,94.2,348.6,93.4,346.5,92.6z"/>
		<path class="st0" d="M332,61.7c8.7-0.7,12.7-11,12.9-18.4c0-1.5-2.2-1.4-2.3,0c-0.5,3.6-1.7,6.8-3.9,9.8c-2,2.8-5.2,4.4-7.4,6.9
			C330.8,60.6,331.1,61.8,332,61.7z"/>
		<path class="st0" d="M313.9,64.7c0.8-0.3,0.7-1.6,0-1.9c-2.8-1.4-6.3-1.6-9.3-2.7c-3.6-1.3-6.3-3.9-9.4-6.1
			c-1.1-0.8-2.2,0.7-1.7,1.7C296.9,61.9,307,67.9,313.9,64.7z"/>
	</g>
</g>
<g>
	<path class="st1" d="M125.7,147.2L146.5,265c0,0,76.9-1.2,116.3-19.9L125.7,147.2z"/>
	<path class="st2" d="M125.7,147.2c0,0,18.6,87.4,28.7,109.9c0,0,52.3,7.2,108.3-12L240.1,125L125.7,147.2z"/>
	<path class="st3" d="M129.6,164.6c-2.3-10.5-3.8-17.4-3.8-17.4L240.1,125l3,16.1L129.6,164.6z"/>
</g>
<g>
	<g>
		<path class="st0" d="M178.2,172.4c-5.2,0-5.2,7.9,0,8.1c2.6,0.1,4.8,0.2,6.6,2.1c1.6,1.6,2.2,4.1,2.3,6.3c0.3,5.8-3.6,11-9,12.7
			c-5.3,1.6-11.9-0.3-12.6-6.4c-0.8-6.8,3.7-10.6,8.5-14.5c1.2-1-0.1-2.7-1.4-2.4c-7.3,1.6-12.8,10.8-11.8,18
			c1.2,9.3,10.6,12.5,18.8,10.7C197.2,203.2,197.9,172.5,178.2,172.4z"/>
		<path class="st0" d="M202.1,199.1c6.1,4.9,13.7,2.9,18.4-2.8c4.5-5.5,7.2-13.6,5-20.6c-1.1-3.5-3.6-6.4-6.9-8
			c-4-1.9-10.3-2.5-14.1,0.3c-0.5,0.3-0.7,0.7-1,1.2c-0.5,0.8-0.1,1.7,0.6,2.2c2.7,2,7.1,1,10.3,1.9c2.2,0.6,3.6,1.9,4.5,3.7
			c1.8,3.6,0.3,9.2-1.9,13.1c-1.1,1.8-2.7,3.7-4.3,4.7c-1.8,1.2-3.2,1.3-5.1,0.6c-2.6-0.9-4.8-4.3-5.4-7c-1.3-5.4,3-9.5,6.6-12.6
			c0.5-0.4,0.2-1.2-0.4-1.4c-5.9-1.6-10.5,5.4-11.7,10.2C195.3,190.1,197.8,195.6,202.1,199.1z"/>
		<path class="st0" d="M173.8,193.8c0.1,0.1,0.2,0.2,0.2,0.3c0.5,0.5,1.3,0.9,2.1,0.9c0,0,0,0,0,0c0.8-0.1,1.5-0.3,2.1-0.9
			c0.6-0.6,0.9-1.3,0.9-2.1c0-0.8-0.3-1.5-0.9-2.1c-0.6-0.6-1.3-0.8-2.1-0.9c0,0,0,0,0,0c-0.5,0-1,0.1-1.5,0.4
			c-0.3,0.2-0.5,0.4-0.7,0.6C172.8,191.1,172.8,192.8,173.8,193.8z"/>
		<path class="st0" d="M212.7,188.5c4.7,0,4.7-7.3,0-7.3S207.9,188.5,212.7,188.5z"/>
		<path class="st0" d="M230.3,202.4c-1.5-1.9-3.8-0.6-4.5,1.2c-0.2,0-0.4,0-0.6,0.1c-3.4,0.8-6.8,2.5-10.1,3.7
			c-4.2,1.4-8.5,2.7-12.7,4c-4.5,1.3-9,2.4-13.5,3.3c-3.7,0.8-7.9,1.1-11.3,2.7c-0.7,0.1-1.3,0.6-1.3,1.4c-0.2,2.3-0.5,4.2,0.1,6.5
			c0.5,1.9,1.2,3.9,2.3,5.6c2,3.3,5.1,5.9,8.5,7.8c7.3,4,16.1,4.4,24.1,2.7c7.9-1.7,15.5-6.2,19.9-13.1
			C235.4,221.1,235.8,209.1,230.3,202.4z M179.1,219.2c2.4,0.5,5,0.2,7.5-0.1c-0.2,3.7,1.7,8.4,2.7,11.3c0.4,1,0.7,2.4,1.3,3.7
			c-0.1-0.1-0.3-0.1-0.4-0.2C184.4,231.3,180.5,225.5,179.1,219.2z M197.8,236.1c0.2-2.7-1.9-5.6-2.9-8c-0.9-2.1-1.7-4.2-2.5-6.3
			c-0.4-1-0.7-2.2-1.2-3.3c2.8-0.4,5.5-1,8.2-1.6c0.8,6.8,3.6,12.8,5.7,19.3C202.7,236.4,200.3,236.4,197.8,236.1z M210.7,235.1
			c-2.2-6.5-5.8-12.4-8-19c0.3-0.1,0.6-0.1,0.9-0.2c3.4-0.9,6.8-1.8,10.2-2.9c-0.8,2-0.2,4.4,0.2,6.4c0.7,3.7,2.1,7.4,3.5,10.8
			c0.3,0.7,0.7,1.2,1.3,1.5C216.2,233.3,213.4,234.4,210.7,235.1z M225.4,225.5c-0.7,1.1-1.6,2.1-2.5,3.1c-1.1-3.2-2.5-6.3-3.7-9.5
			c-0.8-2.1-1.3-5.1-2.8-6.9c3.2-1.1,7.1-2.1,10-3.8c0.8,2.7,1.8,5.2,1.8,8.2C228.2,219.7,227.1,222.8,225.4,225.5z"/>
	</g>
</g>
<g>
	<path class="st1" d="M77.9,22.1l0.6,122.1l116.5-3.1c0,0-10.7-75-11.7-97.9C182.1,20.1,77.9,22.1,77.9,22.1z"/>
	<path class="st4" d="M78,20.1c0,0,2.8,105.1,6.4,120.7l117.6-3.9c0,0-17.6-72.3-11.2-116.8L78,20.1z"/>
	<path class="st5" d="M189.4,37.6c0.2-4.9,0.8-13.2,1.5-17.6L78,20.1c0,0,0.3,10.6,0.5,18.8L189.4,37.6z"/>
</g>
<g>
	<g>
		<path class="st0" d="M168.5,63.1c-3.8-0.8-7.9-0.1-11.7,0.4c-3.5,0.4-8.4,0.5-11.2,2.9c-0.4,0.4-0.3,1.1,0.2,1.4
			c3,1.8,7.7,0.9,11,0.8c0.1,0,0.3,0,0.4,0c-0.4,0.9-0.4,2.1-0.5,3.1c-0.1,1.3-0.1,2.7-0.1,4c0.1,1.8,1.4,3.2,3.2,3.2
			c2.2,0,3.5-2,3.1-4.1c-0.2-1.2-0.5-2.3-0.8-3.5c-0.3-0.9-0.4-2-0.8-2.9c2.2,0,4.3,0,6.5-0.1C170.8,68.2,171.6,63.7,168.5,63.1z"/>
		<path class="st0" d="M116,84.1c1.6-1,1.9-2.8,1.2-4.4c0.5,1.1,0-0.5-0.1-0.8c-0.2-0.8-0.4-1.6-0.6-2.4c-0.3-1.2-0.6-2.6-1.3-3.7
			c4.3-0.3,8.6-0.6,12.8-0.9c3.8-0.3,3.8-6.3,0-6c-4.9,0.4-9.8,1-14.7,1.5c-4.7,0.5-10.2,0.3-14.6,2.3c-0.8,0.4-0.9,1.9,0,2.3
			c3.8,1.6,8.2,1.3,12.3,1c-0.6,1.4-0.5,3.2-0.4,4.7c0.1,1.8,0.3,3.6,1,5.2C112.3,84.6,114.6,85,116,84.1z"/>
		<path class="st0" d="M165.9,107.2c-0.4,0.3-0.8,0.7-1.2,1.1c-8.3-5.4-18.7-7.8-28.5-7.6c-8.3,0.2-20.6,5-19.9,15.2
			c-1.4-0.1-2.8,0.2-4,1.3c-0.6,0.6-0.2,1.4,0.4,1.7c1,0.4,2.2,0.5,3.2,1.1c1,0.5,1.5,1.5,2.1,2.5c0.6,0.9,1.7,1.4,2.8,1.1
			c1.2-0.3,2.2-1.8,1.7-3c-0.6-1.6-2-3-3.7-3.8c1.6-3.6,2.5-6.8,6.2-9.1c3.6-2.2,8.2-2.5,12.4-2.3c7.7,0.3,17.6,3.1,23.3,8.5
			c0.1,0,0.1,0.1,0.2,0.1c-0.1,0.3-0.3,0.6-0.4,0.9c-1.4,3,2.9,5.6,4.5,2.6c1.4-2.7,2.5-6.2,2.4-9.3
			C167.4,107.3,166.6,106.7,165.9,107.2z"/>
	</g>
</g>
<g>
	<path class="st1" d="M201.5,289.3L180.7,407c0,0-76.9-1.2-116.3-19.9L201.5,289.3z"/>
	<path class="st6" d="M201.5,289.3c0,0-18.6,87.4-28.7,109.9c0,0-52.3,7.2-108.3-12L87.1,267L201.5,289.3z"/>
	<path class="st7" d="M197.6,306.7c2.3-10.5,3.8-17.4,3.8-17.4L87.1,267l-3,16.1L197.6,306.7z"/>
</g>
<g>
	<g>
		<path class="st0" d="M111.6,322.3c0.1,1.6,0.2,3.2,0.5,4.8c0.6,4,1.5,9.1,4.9,11.6c2,1.5,4.1-0.9,3.8-2.9
			c-0.3-1.6-1.2-2.9-1.8-4.3c-0.8-1.9-1.2-3.9-1.6-5.9c-0.8-3.9-0.6-7.9-0.6-11.9c0-2.2-3.3-3.4-4.4-1.2c-1.5,3-3.3,5.9-5.3,8.6
			c-2.1,3-5.1,5.1-7.3,7.9c-0.8,1-0.1,2.8,1.4,2.3C105.2,330,108.7,326.3,111.6,322.3z"/>
		<path class="st0" d="M162.2,338.3c-1.5-3.8-3.9-6.8-5-10.8c-1.1-4.1-1.1-8.3-1.6-12.5c-0.2-2.3-3.7-3.2-4.3-0.6
			c-1,4.4-3.8,8.3-6.6,11.7c-2.4,2.9-5.9,5.6-7.5,9c-0.6,1.3,0.6,2.5,1.9,1.9c3.6-1.7,6.6-5.7,9.2-8.8c0.8-1,1.6-2,2.3-3.1
			c0.5,6.5,2.7,13.1,7.2,16.5C159.8,343.3,163.2,340.7,162.2,338.3z"/>
		<path class="st0" d="M154.1,360.7c-2.7,0.3-4,2.5-5.6,4.4c-1.7,2-3.7,3.6-6,4.9c-4.2,2.5-9.1,3.3-13.9,3
			c-4.4-0.3-8.8-2.2-11.9-5.4c-3.9-4-4-9.4-5.3-14.5c-0.3-1.3-2.4-1.7-3-0.4c-6.3,12.6,6.4,24.9,18.1,26.7c6.3,1,12.6-0.1,18.4-2.8
			c4.2-2,14.2-9.4,10.8-15C155.4,361.1,154.7,360.6,154.1,360.7z"/>
	</g>
</g>
</svg>
