<?xml version="1.0" encoding="utf-8"?>
<!-- Generator: Adobe Illustrator 28.4.1, SVG Export Plug-In . SVG Version: 6.00 Build 0)  -->
<svg version="1.1" id="Layer_1" xmlns="http://www.w3.org/2000/svg" xmlns:xlink="http://www.w3.org/1999/xlink" x="0px" y="0px"
	 viewBox="0 0 550.7 402.7" style="enable-background:new 0 0 550.7 402.7;" xml:space="preserve">
<style type="text/css">
	.st0{fill:#E4DFEA;}
	.st1{fill:#FF5A2E;}
	.st2{fill:#9D39B5;}
	.st3{fill:#FFFFFF;}
	.st4{fill:#632B6B;}
	.st5{fill:#C7BED3;}
	.st6{fill:#FF7357;}
	.st7{fill:#AFA7BC;}
</style>
<g>
	<g>
		<g>
			<circle class="st0" cx="417.1" cy="248.1" r="133.6"/>
			<g>
				<path class="st1" d="M492.2,150.4c-8.2,0-14.8-6.6-14.8-14.8s6.6-14.8,14.8-14.8c8.2,0,14.8,6.6,14.8,14.8
					S500.3,150.4,492.2,150.4z M492.2,122.1c-7.4,0-13.5,6.1-13.5,13.5c0,7.4,6.1,13.5,13.5,13.5c7.4,0,13.5-6.1,13.5-13.5
					C505.7,128.1,499.6,122.1,492.2,122.1z"/>
				<path class="st2" d="M465,109.7c-3.9,0-7.1-3.2-7.1-7.1c0-3.9,3.2-7.1,7.1-7.1c3.9,0,7.1,3.2,7.1,7.1
					C472.1,106.5,468.9,109.7,465,109.7z M465,96.8c-3.2,0-5.8,2.6-5.8,5.8c0,3.2,2.6,5.8,5.8,5.8s5.8-2.6,5.8-5.8
					C470.8,99.4,468.2,96.8,465,96.8z"/>
				<path class="st2" d="M293.2,206c-5,0-9.1-4.1-9.1-9.1c0-5,4.1-9.1,9.1-9.1s9.1,4.1,9.1,9.1C302.3,201.9,298.2,206,293.2,206z
					 M293.2,189c-4.3,0-7.9,3.5-7.9,7.9c0,4.3,3.5,7.9,7.9,7.9c4.3,0,7.9-3.5,7.9-7.9C301.1,192.6,297.5,189,293.2,189z"/>
				<circle class="st1" cx="309.1" cy="133.6" r="4.2"/>
				
					<rect x="311" y="152" transform="matrix(0.7071 -0.7071 0.7071 0.7071 -23.3868 267.8323)" class="st2" width="1.3" height="20.4"/>
				
					<rect x="504.5" y="196.3" transform="matrix(0.7071 -0.7071 0.7071 0.7071 9.9258 417.7433)" class="st3" width="9.5" height="1.3"/>
			</g>
		</g>
		<g>
			<path class="st1" d="M500.3,245c-6.6-8-9.9-15.3-11.7-22.2c7.2,6.3,13.6,13.3,16.6,25.4l1.2-0.3c-3.3-13.3-10.5-20.5-18.4-27.3
				c-2.7-11.6-1.6-22-5.9-32.8c-4.6-11.5-14.4-15.5-23.6-21.3c-1.8-14.3-4.2-29.1-21.7-45.5c-4.4-8.9-14.3-16.8-38.9-22.1
				c-13.9-3-42.7,12.7-42.7,42.8c0,22.5-0.8,35.1-19,43.5c-18.2,8.4-17.9,25.9-10.8,49.2c7.1,23.2-25.6,54.6-13.5,85.8
				c20,51.5,140.5,37.6,176.9,13.6C525.1,310.1,522.5,272.3,500.3,245z M448.4,158.6c-9.2-10.1-6.2-22.8-10.4-34.4
				c14.8,14.9,17.3,28.4,19,41.5C454,163.8,451.1,161.5,448.4,158.6z"/>
			<path class="st2" d="M358.4,222.8c-18,11.1-45.9,85-46.8,100.5c-2.1,15.8-5.9,54.4-1.8,78.7h30.3c4.1-10,15.1-65.1,18.7-80
				c0,0,0,0,0,0c5.5-14.3,15.5-72.7,17.3-87C378.1,219.3,375.5,212.2,358.4,222.8z"/>
			<path class="st0" d="M349.7,257.7c-10.1,6.4-19.1,39.3-21.3,55s-7.1,51.4-5.6,68c1.6,17.7,20.5,19.2,21.4,17
				c2.3-5.7,7.1-68.5,9.1-77c0,0,0,0,0,0c3.1-8.2,8.7-41.6,9.7-49.8C364,262,359.3,251.7,349.7,257.7z"/>
			<path class="st4" d="M493.4,401.9H339.3c-5.3,0-9.5-4.6-9-9.8l0.9-10.8h170.3l0.9,10.8C502.9,397.4,498.7,401.9,493.4,401.9z"/>
			<path class="st3" d="M413.1,210.1c-5.6-0.3-11.1,0.1-16.6,1.2c-11.3,2.2-28.2,6.3-38.3,13.7c-12.8,9.5-5.7,158.1-5.7,158.1h94.7
				c0,0,4.7-156.4-3.4-165.1C438.4,212.4,423,210.7,413.1,210.1z"/>
			<path class="st0" d="M421.5,209.9c-8.1-6.1-14.7-35.1-15.6-51.3l-17.5,20c7.3,27.3,1.9,26.4-9.5,37.3c-11.4,10.9,3,31,31.8,24.3
				C436.1,234.2,429.6,216,421.5,209.9z"/>
			<path class="st5" d="M405.8,158.6l-17.5,20c1.6,6.1,2.6,10.8,3.1,14.5c8.2-1.8,13.9-6.6,17.6-13
				C407.3,172.4,406.2,164.6,405.8,158.6z"/>
			<path class="st0" d="M379,127c-11.2,18.3-23.1,59.4,12.3,54.9C439.5,175.8,411.4,73.9,379,127z"/>
			<path class="st2" d="M421.5,209.9c0,0,5.3,82.1,6.1,174.7h75.8c0,0-5.1-99.6-23.2-151.6C474.6,217.2,446.5,211.4,421.5,209.9z"/>
			<path class="st0" d="M495.9,307.1c-0.3,0-0.5-0.1-0.7-0.1c-6.7,0.1-44.7,17-68.5,28.9c0.3,12.9,0.6,26.3,0.7,40
				c15.4-0.7,48.6-7,74.3-13.8C500.6,347.8,498.8,327.9,495.9,307.1z"/>
			<path class="st2" d="M381.8,213.1c0,0-1.4,78.6,0,171.4h-53.4c0,0,9.6-121.3,20.4-148.4C354.7,221.7,366.3,216.1,381.8,213.1z"/>
			<path class="st1" d="M405.4,109.1c-17.4-0.8-27.7,2.6-27.7,2.6c-1.9,16.1,15.1,20.3,23.2,32.1c1,1.5,2.2,3.3,3.5,5.2
				c-13.5-7-24.4-20.8-26.1-25.2l-1.2,0.5c1.8,4.8,14.1,20,28.8,26.9c8.6,12.3,21,27.2,28.9,14.8
				C444.4,150.9,422.8,109.9,405.4,109.1z"/>
			<path class="st2" d="M452.1,235.7c4.6,15,31.7,88,37.7,93.7c6,5.8,53.2,16.6,50.8,1.2c-2.3-15.4-53.6-102.1-73.2-110
				C448.8,213.2,447.5,220.7,452.1,235.7z"/>
			<path class="st0" d="M405.9,164.5c0.4-5.1,3.8-14.8,10.1-8.9C424.5,163.4,404.8,179.3,405.9,164.5z"/>
			<path class="st0" d="M374.9,285.2c-1.5-1.2-2.7-2.6-3.8-4.1c-1.9-2.7-5.7-3.2-7.9-1l-13.3,13.3c-2.2,2.2-2.1,5.8,0.1,8.1
				l14.2,14.2c2.1,2.1,1.8,5.5-0.6,7.2c-1.2,0.8-2.3,1.7-3.3,2.8c-7,7.5-6.7,19.7,0.5,27.4c8,8.5,21.1,9,29,1.1
				c0.9-0.9,1.7-1.9,2.4-2.9c1.6-2.4,5-2.6,7.1-0.5l14.2,14.2c2.3,2.3,5.9,2.4,8.1,0.2l13.3-13.3c2.2-2.2,1.8-5.9-0.8-7.8
				c-1-0.7-1.9-1.5-2.8-2.3c-8.2-8.3-8.2-21.5,0.2-29.1c7.6-6.9,19.8-6.4,27.5,0.9c1,1,1.9,2,2.7,3.1c1.9,2.6,5.5,3.2,7.8,1
				l13.4-13.4c2.2-2.2,2.1-5.8-0.1-8.1L468.4,282c-2.1-2.1-1.8-5.5,0.6-7.2c1.2-0.8,2.3-1.7,3.3-2.8c7-7.5,6.7-19.7-0.5-27.4
				c-8-8.5-21.1-9-29-1.1c-0.9,0.9-1.7,1.8-2.4,2.9c-1.6,2.4-5,2.6-7.1,0.5l-14.2-14.2c-2.3-2.3-5.9-2.4-8.1-0.2l-13.4,13.3
				c-2.2,2.2-1.8,5.9,0.8,7.8c1,0.7,1.9,1.5,2.8,2.3c8.5,8.5,8.2,22.4-1.1,29.9C393,291.6,382.3,291.3,374.9,285.2z"/>
			<path class="st1" d="M487.7,304.9l-13.9,13.4c-2.3,2.2-6,1.7-7.7-0.9c-0.7-1.1-1.6-2.1-2.5-3.1c-7.4-7.4-19.6-7.8-27.4-0.9
				c-8.7,7.6-9.2,20.8-1.3,29.1c0.8,0.9,1.7,1.7,2.7,2.4c2.6,1.9,2.9,5.6,0.6,7.8l-13.9,13.3c-2.3,2.2-5.9,2.1-8-0.2l-2-2.1
				l-11.7-12.1c-0.1-0.1-0.2-0.2-0.4-0.3c-1-0.9-2.3-1.3-3.6-1.1c-1.2,0.2-2.4,0.8-3.2,1.9c-0.7,1-1.5,2-2.5,2.9
				c-5.9,5.6-14.2,7-21.3,4.2c-2.8-1.1-5.5-2.9-7.6-5.3c-6.9-7.8-6.7-19.9,0.5-27.4c1.1-1.1,2.2-2,3.4-2.8c2.5-1.6,2.9-5,0.9-7.2
				l-13.6-14.2c-2.2-2.3-2.1-5.9,0.2-8.1l13.8-13.3c2.4-2.2,6.1-1.7,7.9,1c1,1.5,2.2,2.9,3.6,4.1c3.8,3.2,8.6,4.9,13.4,4.8
				c4.2-0.1,8.4-1.4,11.9-4.1c9.6-7.5,10.4-21.4,2.3-29.9c-0.7-0.8-1.5-1.5-2.3-2.1c-0.1-0.1-0.2-0.2-0.4-0.3
				c-2.6-1.9-2.8-5.6-0.5-7.8l5.2-5l8.7-8.3c2.3-2.2,5.9-2.1,8.1,0.2l7.4,7.7l2.9,3.1l3.3,3.4c2,2.1,5.4,1.9,7.1-0.5
				c0.7-1,1.5-2,2.5-2.9c1.3-1.3,2.7-2.3,4.2-3.1c8-4.4,18.3-2.9,24.7,4.2c6.9,7.8,6.7,19.9-0.5,27.4c-1.1,1.1-2.2,2-3.4,2.8
				c-2.5,1.6-2.9,5-0.9,7.2l13.6,14.2C490.1,299.1,490,302.7,487.7,304.9z"/>
			<path class="st6" d="M434.3,241L398.5,350c-1.2,0.2-2.4,0.8-3.2,1.9c-0.7,1-1.5,2-2.5,2.9c-5.9,5.6-14.2,7-21.3,4.2l22.5-68.5
				c4.2-0.1,8.4-1.4,11.9-4.1c9.6-7.5,10.4-21.4,2.3-29.9c-0.7-0.8-1.5-1.5-2.3-2.1l4.3-13.1l8.7-8.3c2.3-2.2,5.9-2.1,8.1,0.2
				L434.3,241z"/>
			<path class="st6" d="M454.4,241l-40.3,122.6l-11.7-12.1c-0.1-0.1-0.2-0.2-0.4-0.3L437.3,244l3.3,3.4c2,2.1,5.4,1.9,7.1-0.5
				c0.7-1,1.5-2,2.5-2.9C451.4,242.8,452.9,241.8,454.4,241z"/>
			<path class="st0" d="M422.6,346.8c-5.1,4-10.8,3.7-16.3,2.3c-2.4-0.6-4-1.5-5.4-1.9l0,0c0,0,0,0-0.1,0c-0.1,0-0.2,0-0.3-0.1
				c-2.9-0.7-7.7,0.2-11.1-0.2c-3.1-0.3,0.4,3.7,5.3,4.9c-4.2,4.7-13.6,8-1.2,14.4c20.3,10.5,36.4-2.4,36.4-2.4L422.6,346.8z"/>
			<path class="st2" d="M420.3,338.9c12.6-9.3,69.6-40.9,77.9-41.7c8.3-0.7,52.1,27.4,40.7,38c-11.4,10.5-97.2,35.1-107.4,31.9
				C422.4,364.3,410.6,346.1,420.3,338.9z"/>
		</g>
	</g>
	<g>
		<path class="st0" d="M24.3,116.2c-4.8,4.6-7.1,13.8-4.9,20.1c1.6,4.7,4.6,8.3,8.2,10.6c2.1,1.3,2,4.4-0.1,5.7L3.6,166.8
			c-3.5,2.1-4.6,6.6-2.6,10.1l49.5,83.4c2,3.4,6.4,4.5,9.8,2.5l83.3-49.4c2.4-1.4,3.7-3.9,3.7-6.5l0.7,1.1l-1.2-3.5l0,0
			c-0.2-0.4-0.3-0.8-0.6-1.2l-1.1-1.8l0,0l0,0l-12.7-21.4c-1.8-3-6.1-3-7.9,0c-1.7,2.9-4.2,5.4-7.4,7.2c-8.9,5-20.3,2.3-26-6.2
			c-6.3-9.5-3.3-22.2,6.3-27.9c3.6-2.2,7.7-3,11.6-2.7c1.5,0.1,2.7-0.8,3.2-2.1l1.1,1.1l-1-3.1l0,0c-0.1-0.2-0.2-0.5-0.3-0.7
			L96.9,120c-2.1-3.5-6.6-4.6-10.1-2.6l-23.8,14.1c-2.2,1.3-5-0.2-5.2-2.7c-0.2-3-1.1-5.9-2.7-8.6C48.8,109.5,33.9,107,24.3,116.2z"
			/>
		<path class="st1" d="M20.5,139.5c1.6,4.7,4.6,8.3,8.2,10.6c2.1,1.3,2,4.4-0.1,5.7L4.7,170C1.2,172,0,176.6,2.1,180l49.5,83.4
			c2,3.4,6.4,4.5,9.8,2.5l83.3-49.4c3.5-2.1,4.7-6.7,2.6-10.2l-13.8-23.2c-1.8-3-6.1-3-7.9,0c-1.7,2.9-4.2,5.4-7.4,7.2
			c-8.9,5-20.3,2.3-26-6.2c-6.3-9.5-3.3-22.2,6.3-27.9c3.6-2.2,7.7-3,11.6-2.7c2.5,0.2,4.3-2.5,3-4.7L98,123.2
			c-2.1-3.5-6.6-4.6-10.1-2.6l-23.8,14.1c-2.2,1.3-5-0.2-5.2-2.7c-0.2-3-1.1-5.9-2.7-8.6c-6.3-10.7-21.2-13.2-30.8-4
			C20.6,124,18.4,133.1,20.5,139.5z"/>
	</g>
	<g>
		<path class="st0" d="M237.2,1.3l-22.5,15.1c-2.9,2-2.7,6.3,0.4,7.9c3,1.5,12.5,26.1,2.8,33.4c-9.1,6.9-22,4.6-28.3-4.8
			c-2.4-3.5-3.4-7.5-3.3-11.5c0.1-2.6-2.8-4.1-4.9-2.7l-24.7,16.6c-3.4,2.3-4.3,6.8-2,10.2c0,0,15.6,28.1,13,28.4
			c-2.6,0.3-5.2,1.2-7.6,2.6l0,0l0,0c-0.3,0.2-0.6,0.3-0.8,0.5c-0.3,0.2-4.4,2.9-4.4,2.9l21.4,33.2l3.6-2.3c3.3-2.4,6-4.6,7.7-7.7
			c1.2-2.2,4.3-2.3,5.7-0.2l15.5,23.2c2.3,3.4,6.8,4.3,10.2,2L299.6,94c3.3-2.2,4.2-6.7,2-10L247.5,3.3C245.2-0.1,240.6-1,237.2,1.3
			z"/>
		<path class="st1" d="M172.9,134.8c4.6-1.8,8-5,10.2-8.8c1.2-2.2,4.3-2.3,5.7-0.2l15.5,23.2c2.3,3.4,6.8,4.3,10.2,2l80.7-54.1
			c3.3-2.2,4.2-6.7,2-10L243.1,6.2c-2.3-3.4-6.9-4.3-10.4-2l-22.5,15.1c-2.9,2-2.7,6.3,0.4,7.9c3,1.5,5.7,3.9,7.6,7
			c5.5,8.7,3.4,20.2-4.8,26.4c-9.1,6.8-22,4.6-28.3-4.8c-2.4-3.5-3.4-7.5-3.3-11.5c0.1-2.6-2.8-4.1-4.9-2.7l-24.7,16.6
			c-3.4,2.3-4.3,6.8-2,10.2l15.5,23c1.4,2.1,0.1,5-2.4,5.3c-2.9,0.4-5.8,1.4-8.5,3.2c-10.4,6.9-12,22-2.3,31.1
			C157.4,135.6,166.6,137.3,172.9,134.8z"/>
	</g>
	<g>
		<path class="st0" d="M188,269.6l-26.3,5.9c-2.6,0.6-4,3.1-3.5,5.4l0,0l0,0c0,0.1,0.1,0.2,0.1,0.4l0.7,2.9c0,0,4.2,4.8,4.9,8.1
			c2,10-4,18.9-13.9,21.7c-11,3.1-22.2-2.5-24.7-13.5c-0.8-3.8,1.9-10.8,1.9-10.8l-0.7-3c-0.3-1.6-1.9-2.8-3.8-2.4l-29,6.5
			c-4,0.9-6.5,4.8-5.6,8.8l6.1,27c0.6,2.5-1.7,4.7-4.2,4.1c-2.9-0.7-6-0.8-9-0.1c-12.1,2.7-19.1,16.1-13.3,28.1
			c2.9,6,10.9,11,17.6,10.9c4.9,0,9.3-1.8,12.6-4.5c1.9-1.6,4.8-0.6,5.4,1.8l6.1,27.2c0.9,4,4.8,6.4,8.8,5.6l94.6-21.3
			c3.9-0.9,6.3-4.7,5.4-8.6l-21.3-94.5C196,271.3,192,268.7,188,269.6z"/>
		<path class="st2" d="M85.9,372.5c4.9,0,9.3-1.8,12.6-4.6c1.9-1.6,4.8-0.6,5.4,1.8l6.1,27.2c0.9,4,4.8,6.4,8.8,5.6l94.6-21.3
			c3.9-0.9,6.3-4.7,5.4-8.6l-21.3-94.5c-0.9-4-4.9-6.5-8.9-5.6l-26.3,5.9c-3.4,0.8-4.8,4.9-2.4,7.5c2.2,2.5,3.9,5.7,4.6,9.2
			c2,10-4.1,20.1-14,22.8c-11,3.1-22.1-3.7-24.6-14.6c-0.9-4.1-0.5-8.2,1-11.9c1-2.4-1.1-4.8-3.6-4.3l-29,6.5
			c-4,0.9-6.5,4.8-5.6,8.8l6.1,27c0.6,2.5-1.7,4.7-4.2,4.1c-2.9-0.7-6-0.8-9-0.1c-12.1,2.7-19.1,16.1-13.3,28.1
			C71.2,367.6,79.2,372.5,85.9,372.5z"/>
	</g>
	<g>
		<path class="st7" d="M370,135.7c0,0-0.1,0.2,0,0.5c0.1,0.3,0.3,0.7,0.8,0.9c0.4,0.3,1.1,0.6,1.8,1c0.7,0.4,1.4,0.7,2.2,1.1
			c1.5,0.8,3,1.5,4.1,2c1.2,0.5,1.9,0.8,1.9,0.8s-0.8,0.3-2.1,0.5c-1.3,0.1-3.3,0-5.1-1c-0.9-0.5-1.7-1.1-2.3-1.7
			c-0.6-0.7-1.1-1.3-1.4-1.9c-0.4-0.7-0.3-1.4-0.2-1.8c0.1-0.2,0.2-0.3,0.3-0.4C369.9,135.7,370,135.7,370,135.7z"/>
	</g>
	<g>
		<path class="st7" d="M402.6,150.1c0,0-0.2,0.1-0.6,0.3c-0.4,0.2-0.9,0.4-1.6,0.5c-1.4,0.3-3.5,0.4-5.6-0.3c-2.1-0.7-3.8-2-4.7-3.2
			c-0.5-0.6-0.8-1-1-1.4c-0.2-0.4-0.3-0.6-0.3-0.6s0.8,0.3,2.1,0.9c1.3,0.5,2.9,1.1,4.7,1.7c1.8,0.6,3.5,1.1,4.8,1.5
			C401.8,149.8,402.6,150.1,402.6,150.1z"/>
	</g>
	<g>
		<path class="st7" d="M385.5,167.8c0,0-0.1,0.1-0.4,0.3c-0.3,0.2-0.7,0.5-1.3,0.7c-0.6,0.2-1.4,0.3-2.2,0.3
			c-0.9-0.1-1.8-0.3-2.7-0.8c-0.9-0.5-1.6-1.2-2.1-1.8c-0.5-0.7-0.8-1.4-1-2c-0.2-0.6-0.2-1.1-0.2-1.5c0-0.3,0.1-0.5,0.1-0.5
			s0.1,0.1,0.3,0.4c0.2,0.3,0.5,0.6,0.9,1c0.8,0.7,1.9,1.5,3.2,2.2c1.3,0.7,2.5,1.2,3.6,1.5c0.5,0.1,1,0.2,1.3,0.3
			C385.3,167.7,385.5,167.8,385.5,167.8z"/>
	</g>
</g>
</svg>
