<?xml version="1.0" encoding="utf-8"?>
<!-- Generator: Adobe Illustrator 28.4.1, SVG Export Plug-In . SVG Version: 6.00 Build 0)  -->
<svg version="1.1" id="Layer_1" xmlns="http://www.w3.org/2000/svg" xmlns:xlink="http://www.w3.org/1999/xlink" x="0px" y="0px"
	 viewBox="0 0 616.93 265.93" style="enable-background:new 0 0 616.93 265.93;" xml:space="preserve">
<style type="text/css">
	.st0{enable-background:new    ;}
	.st1{fill:#FFFFFF;}
</style>
<g class="st0">
	<path class="st1" d="M87.76,219.99l0.81-3.64c0.86,0.22,1.53,0.33,2.02,0.33c0.87,0,1.52-0.29,1.95-0.87
		c0.43-0.58,0.64-2.02,0.64-4.34v-26.53h4.28v26.62c0,3.11-0.4,5.27-1.21,6.49c-1.03,1.58-2.74,2.38-5.13,2.38
		C89.96,220.44,88.84,220.29,87.76,219.99z M93.18,180.31v-4.97h4.28v4.97H93.18z"/>
	<path class="st1" d="M120.57,210.19v-3.71c-1.97,2.85-4.64,4.28-8.01,4.28c-1.49,0-2.88-0.29-4.17-0.86
		c-1.29-0.57-2.25-1.29-2.88-2.15s-1.07-1.92-1.32-3.17c-0.17-0.84-0.26-2.17-0.26-3.99v-15.64h4.28v14c0,2.23,0.09,3.74,0.26,4.52
		c0.27,1.12,0.84,2.01,1.71,2.65c0.87,0.64,1.95,0.96,3.23,0.96s2.49-0.33,3.61-0.99c1.12-0.66,1.92-1.55,2.39-2.69
		c0.47-1.13,0.7-2.78,0.7-4.93v-13.53h4.28v25.25H120.57z"/>
	<path class="st1" d="M129.39,202.66l4.23-0.67c0.24,1.7,0.9,3,1.98,3.9c1.09,0.9,2.6,1.35,4.55,1.35c1.96,0,3.42-0.4,4.37-1.2
		c0.95-0.8,1.43-1.74,1.43-2.82c0-0.97-0.42-1.73-1.26-2.28c-0.59-0.38-2.04-0.86-4.37-1.45c-3.14-0.79-5.31-1.48-6.53-2.06
		c-1.21-0.58-2.13-1.38-2.76-2.4c-0.63-1.02-0.94-2.15-0.94-3.39c0-1.12,0.26-2.17,0.77-3.13c0.51-0.96,1.22-1.75,2.1-2.39
		c0.67-0.49,1.57-0.91,2.72-1.25c1.15-0.34,2.38-0.51,3.7-0.51c1.98,0,3.72,0.29,5.22,0.86s2.6,1.34,3.32,2.32
		c0.71,0.97,1.2,2.28,1.47,3.91l-4.18,0.57c-0.19-1.3-0.74-2.31-1.65-3.04c-0.91-0.73-2.2-1.09-3.86-1.09
		c-1.97,0-3.37,0.32-4.21,0.97c-0.84,0.65-1.26,1.41-1.26,2.28c0,0.56,0.17,1.05,0.52,1.5c0.35,0.46,0.9,0.84,1.64,1.14
		c0.43,0.16,1.69,0.52,3.78,1.09c3.03,0.81,5.14,1.47,6.34,1.98c1.2,0.52,2.14,1.26,2.82,2.25c0.68,0.98,1.02,2.2,1.02,3.66
		c0,1.43-0.42,2.77-1.25,4.03c-0.83,1.26-2.03,2.23-3.6,2.92c-1.57,0.69-3.34,1.03-5.33,1.03c-3.28,0-5.78-0.68-7.5-2.04
		C130.96,207.35,129.86,205.33,129.39,202.66z"/>
	<path class="st1" d="M164.78,206.36l0.62,3.78c-1.2,0.25-2.28,0.38-3.23,0.38c-1.55,0-2.76-0.25-3.61-0.74
		c-0.86-0.49-1.46-1.14-1.81-1.94c-0.35-0.8-0.52-2.48-0.52-5.05v-14.52h-3.14v-3.33h3.14v-6.25l4.25-2.57v8.82h4.3v3.33h-4.3v14.76
		c0,1.22,0.08,2,0.23,2.35c0.15,0.35,0.4,0.63,0.74,0.83c0.34,0.21,0.83,0.31,1.46,0.31C163.38,206.53,164.01,206.48,164.78,206.36z
		"/>
	<path class="st1" d="M198.97,207.08c-1.58,1.35-3.11,2.3-4.58,2.85c-1.47,0.55-3.04,0.83-4.72,0.83c-2.77,0-4.91-0.68-6.39-2.03
		c-1.49-1.35-2.23-3.09-2.23-5.19c0-1.24,0.28-2.37,0.84-3.39c0.56-1.02,1.3-1.84,2.21-2.46c0.91-0.62,1.94-1.08,3.08-1.4
		c0.84-0.22,2.11-0.44,3.8-0.64c3.46-0.41,6-0.9,7.63-1.47c0.02-0.59,0.02-0.96,0.02-1.12c0-1.74-0.4-2.97-1.21-3.68
		c-1.09-0.97-2.72-1.45-4.87-1.45c-2.01,0-3.5,0.35-4.46,1.06s-1.67,1.95-2.13,3.74l-4.18-0.57c0.38-1.79,1.01-3.24,1.88-4.34
		c0.87-1.1,2.13-1.95,3.78-2.54c1.65-0.59,3.56-0.89,5.73-0.89c2.16,0,3.91,0.25,5.25,0.76c1.35,0.51,2.34,1.15,2.97,1.91
		c0.63,0.77,1.08,1.74,1.33,2.91c0.14,0.73,0.21,2.04,0.21,3.95v5.71c0,3.98,0.09,6.49,0.27,7.55c0.18,1.05,0.54,2.06,1.08,3.03
		h-4.47C199.38,209.3,199.09,208.27,198.97,207.08z M198.61,197.52c-1.55,0.63-3.88,1.17-6.99,1.62c-1.76,0.25-3,0.54-3.73,0.86
		c-0.73,0.32-1.29,0.78-1.69,1.39c-0.4,0.61-0.59,1.29-0.59,2.03c0,1.14,0.43,2.09,1.3,2.85s2.13,1.14,3.79,1.14
		c1.65,0,3.11-0.36,4.4-1.08s2.23-1.71,2.83-2.96c0.46-0.97,0.69-2.39,0.69-4.28V197.52z"/>
	<path class="st1" d="M223.09,210.19v-25.25h3.83v3.54c0.79-1.24,1.85-2.23,3.16-2.98c1.32-0.75,2.81-1.13,4.49-1.13
		c1.87,0,3.4,0.39,4.6,1.17c1.2,0.78,2.04,1.86,2.53,3.26c2-2.95,4.6-4.42,7.8-4.42c2.5,0,4.43,0.69,5.78,2.08
		c1.35,1.39,2.02,3.52,2.02,6.41v17.33h-4.25v-15.9c0-1.71-0.14-2.94-0.42-3.7c-0.28-0.75-0.78-1.36-1.51-1.82
		c-0.73-0.46-1.58-0.69-2.57-0.69c-1.78,0-3.25,0.59-4.42,1.77c-1.17,1.18-1.76,3.07-1.76,5.67v14.67h-4.28v-16.4
		c0-1.9-0.35-3.33-1.05-4.28c-0.7-0.95-1.84-1.43-3.42-1.43c-1.2,0-2.32,0.32-3.34,0.95c-1.02,0.63-1.76,1.56-2.22,2.78
		c-0.46,1.22-0.69,2.98-0.69,5.28v13.1H223.09z"/>
	<path class="st1" d="M280.12,207.08c-1.58,1.35-3.11,2.3-4.58,2.85c-1.47,0.55-3.04,0.83-4.72,0.83c-2.77,0-4.91-0.68-6.39-2.03
		c-1.49-1.35-2.23-3.09-2.23-5.19c0-1.24,0.28-2.37,0.84-3.39c0.56-1.02,1.3-1.84,2.21-2.46c0.91-0.62,1.94-1.08,3.08-1.4
		c0.84-0.22,2.11-0.44,3.8-0.64c3.46-0.41,6-0.9,7.63-1.47c0.02-0.59,0.02-0.96,0.02-1.12c0-1.74-0.4-2.97-1.21-3.68
		c-1.09-0.97-2.72-1.45-4.87-1.45c-2.01,0-3.5,0.35-4.46,1.06s-1.67,1.95-2.13,3.74l-4.18-0.57c0.38-1.79,1.01-3.24,1.88-4.34
		c0.87-1.1,2.13-1.95,3.78-2.54c1.65-0.59,3.56-0.89,5.73-0.89c2.16,0,3.91,0.25,5.25,0.76c1.35,0.51,2.34,1.15,2.97,1.91
		c0.63,0.77,1.08,1.74,1.33,2.91c0.14,0.73,0.21,2.04,0.21,3.95v5.71c0,3.98,0.09,6.49,0.27,7.55c0.18,1.05,0.54,2.06,1.08,3.03
		h-4.47C280.53,209.3,280.25,208.27,280.12,207.08z M279.77,197.52c-1.55,0.63-3.88,1.17-6.99,1.62c-1.76,0.25-3,0.54-3.73,0.86
		c-0.73,0.32-1.29,0.78-1.69,1.39c-0.4,0.61-0.59,1.29-0.59,2.03c0,1.14,0.43,2.09,1.3,2.85s2.13,1.14,3.79,1.14
		c1.65,0,3.11-0.36,4.4-1.08s2.23-1.71,2.83-2.96c0.46-0.97,0.69-2.39,0.69-4.28V197.52z"/>
	<path class="st1" d="M300.07,206.36l0.62,3.78c-1.2,0.25-2.28,0.38-3.23,0.38c-1.55,0-2.76-0.25-3.61-0.74
		c-0.86-0.49-1.46-1.14-1.81-1.94c-0.35-0.8-0.52-2.48-0.52-5.05v-14.52h-3.14v-3.33h3.14v-6.25l4.25-2.57v8.82h4.3v3.33h-4.3v14.76
		c0,1.22,0.08,2,0.23,2.35c0.15,0.35,0.4,0.63,0.74,0.83c0.34,0.21,0.83,0.31,1.46,0.31C298.66,206.53,299.29,206.48,300.07,206.36z
		"/>
	<path class="st1" d="M313.59,206.36l0.62,3.78c-1.2,0.25-2.28,0.38-3.23,0.38c-1.55,0-2.76-0.25-3.61-0.74
		c-0.86-0.49-1.46-1.14-1.81-1.94c-0.35-0.8-0.52-2.48-0.52-5.05v-14.52h-3.14v-3.33h3.14v-6.25l4.25-2.57v8.82h4.3v3.33h-4.3v14.76
		c0,1.22,0.08,2,0.23,2.35c0.15,0.35,0.4,0.63,0.74,0.83c0.34,0.21,0.83,0.31,1.46,0.31C312.19,206.53,312.81,206.48,313.59,206.36z
		"/>
	<path class="st1" d="M335.06,202.06l4.42,0.55c-0.7,2.58-1.99,4.59-3.88,6.01c-1.89,1.43-4.29,2.14-7.23,2.14
		c-3.69,0-6.62-1.14-8.78-3.41c-2.16-2.27-3.25-5.46-3.25-9.57c0-4.25,1.09-7.54,3.28-9.89s5.02-3.52,8.51-3.52
		c3.38,0,6.13,1.15,8.27,3.45c2.14,2.3,3.21,5.53,3.21,9.7c0,0.25-0.01,0.63-0.02,1.14h-18.83c0.16,2.77,0.94,4.9,2.35,6.37
		c1.41,1.47,3.17,2.21,5.28,2.21c1.57,0,2.91-0.41,4.02-1.24S334.41,203.87,335.06,202.06z M321.01,195.14h14.1
		c-0.19-2.12-0.73-3.72-1.62-4.78c-1.36-1.65-3.13-2.47-5.3-2.47c-1.97,0-3.62,0.66-4.96,1.97
		C321.89,191.18,321.15,192.94,321.01,195.14z"/>
	<path class="st1" d="M344.8,210.19v-25.25h3.85v3.83c0.98-1.79,1.89-2.97,2.72-3.54s1.75-0.86,2.75-0.86c1.44,0,2.91,0.46,4.4,1.38
		l-1.47,3.97c-1.05-0.62-2.09-0.93-3.14-0.93c-0.94,0-1.77,0.28-2.52,0.84s-1.28,1.34-1.59,2.34c-0.48,1.52-0.71,3.19-0.71,4.99
		v13.22H344.8z"/>
	<path class="st1" d="M373,197.57c0-4.67,1.3-8.14,3.9-10.39c2.17-1.87,4.82-2.81,7.94-2.81c3.47,0,6.31,1.14,8.51,3.41
		c2.2,2.27,3.3,5.42,3.3,9.43c0,3.25-0.49,5.8-1.46,7.67c-0.97,1.86-2.39,3.31-4.26,4.34s-3.89,1.54-6.1,1.54
		c-3.53,0-6.39-1.13-8.57-3.4C374.09,205.1,373,201.83,373,197.57z M377.39,197.57c0,3.23,0.71,5.65,2.12,7.26
		c1.41,1.61,3.19,2.41,5.32,2.41c2.12,0,3.89-0.81,5.3-2.42c1.41-1.62,2.12-4.08,2.12-7.39c0-3.12-0.71-5.49-2.13-7.1
		s-3.18-2.41-5.29-2.41c-2.14,0-3.91,0.8-5.32,2.4C378.1,191.92,377.39,194.34,377.39,197.57z"/>
	<path class="st1" d="M402.69,210.19v-21.92h-3.78v-3.33h3.78v-2.69c0-1.7,0.15-2.96,0.45-3.78c0.41-1.11,1.14-2.01,2.17-2.7
		s2.49-1.03,4.36-1.03c1.2,0,2.54,0.14,3.99,0.43l-0.64,3.73c-0.89-0.16-1.73-0.24-2.52-0.24c-1.3,0-2.22,0.28-2.76,0.83
		c-0.54,0.56-0.81,1.59-0.81,3.11v2.33h4.92v3.33h-4.92v21.92H402.69z"/>
	<path class="st1" d="M427,202.66l4.23-0.67c0.24,1.7,0.9,3,1.99,3.9c1.08,0.9,2.6,1.35,4.55,1.35c1.96,0,3.42-0.4,4.37-1.2
		c0.95-0.8,1.43-1.74,1.43-2.82c0-0.97-0.42-1.73-1.26-2.28c-0.59-0.38-2.04-0.86-4.37-1.45c-3.14-0.79-5.31-1.48-6.53-2.06
		c-1.21-0.58-2.13-1.38-2.76-2.4c-0.63-1.02-0.94-2.15-0.94-3.39c0-1.12,0.26-2.17,0.77-3.13c0.51-0.96,1.22-1.75,2.1-2.39
		c0.67-0.49,1.57-0.91,2.72-1.25c1.15-0.34,2.38-0.51,3.7-0.51c1.98,0,3.72,0.29,5.22,0.86c1.5,0.57,2.6,1.34,3.32,2.32
		s1.2,2.28,1.47,3.91l-4.18,0.57c-0.19-1.3-0.74-2.31-1.65-3.04c-0.91-0.73-2.2-1.09-3.86-1.09c-1.96,0-3.37,0.32-4.21,0.97
		s-1.26,1.41-1.26,2.28c0,0.56,0.17,1.05,0.52,1.5c0.35,0.46,0.89,0.84,1.64,1.14c0.43,0.16,1.69,0.52,3.78,1.09
		c3.03,0.81,5.14,1.47,6.33,1.98c1.2,0.52,2.13,1.26,2.82,2.25c0.68,0.98,1.02,2.2,1.02,3.66c0,1.43-0.42,2.77-1.25,4.03
		c-0.83,1.26-2.03,2.23-3.6,2.92c-1.57,0.69-3.34,1.03-5.32,1.03c-3.28,0-5.78-0.68-7.5-2.04
		C428.58,207.35,427.48,205.33,427,202.66z"/>
	<path class="st1" d="M470.34,202.06l4.42,0.55c-0.7,2.58-1.99,4.59-3.87,6.01c-1.89,1.43-4.29,2.14-7.23,2.14
		c-3.69,0-6.62-1.14-8.78-3.41c-2.16-2.27-3.24-5.46-3.24-9.57c0-4.25,1.09-7.54,3.28-9.89c2.19-2.35,5.02-3.52,8.51-3.52
		c3.38,0,6.13,1.15,8.27,3.45s3.21,5.53,3.21,9.7c0,0.25-0.01,0.63-0.02,1.14h-18.83c0.16,2.77,0.94,4.9,2.35,6.37
		c1.41,1.47,3.17,2.21,5.28,2.21c1.57,0,2.91-0.41,4.02-1.24C468.81,205.18,469.69,203.87,470.34,202.06z M456.29,195.14h14.1
		c-0.19-2.12-0.73-3.72-1.62-4.78c-1.36-1.65-3.13-2.47-5.3-2.47c-1.96,0-3.62,0.66-4.96,1.97
		C457.17,191.18,456.43,192.94,456.29,195.14z"/>
	<path class="st1" d="M489.48,206.36l0.62,3.78c-1.2,0.25-2.28,0.38-3.23,0.38c-1.55,0-2.76-0.25-3.61-0.74
		c-0.86-0.49-1.46-1.14-1.81-1.94s-0.52-2.48-0.52-5.05v-14.52h-3.14v-3.33h3.14v-6.25l4.26-2.57v8.82h4.3v3.33h-4.3v14.76
		c0,1.22,0.07,2,0.23,2.35c0.15,0.35,0.4,0.63,0.74,0.83s0.83,0.31,1.46,0.31C488.07,206.53,488.7,206.48,489.48,206.36z"/>
	<path class="st1" d="M503,206.36l0.62,3.78c-1.2,0.25-2.28,0.38-3.23,0.38c-1.55,0-2.76-0.25-3.61-0.74
		c-0.86-0.49-1.46-1.14-1.81-1.94s-0.52-2.48-0.52-5.05v-14.52h-3.14v-3.33h3.14v-6.25l4.26-2.57v8.82h4.3v3.33h-4.3v14.76
		c0,1.22,0.07,2,0.23,2.35c0.15,0.35,0.4,0.63,0.74,0.83s0.83,0.31,1.46,0.31C501.6,206.53,502.22,206.48,503,206.36z"/>
	<path class="st1" d="M507.21,180.26v-4.92h4.28v4.92H507.21z M507.21,210.19v-25.25h4.28v25.25H507.21z"/>
	<path class="st1" d="M518,210.19v-25.25h3.85v3.59c1.85-2.77,4.53-4.16,8.03-4.16c1.52,0,2.92,0.27,4.2,0.82
		c1.28,0.55,2.23,1.26,2.87,2.15c0.63,0.89,1.08,1.94,1.33,3.16c0.16,0.79,0.24,2.18,0.24,4.16v15.52h-4.28v-15.36
		c0-1.74-0.17-3.05-0.5-3.91c-0.33-0.86-0.92-1.55-1.77-2.07c-0.85-0.51-1.84-0.77-2.98-0.77c-1.82,0-3.4,0.58-4.72,1.74
		c-1.32,1.16-1.98,3.35-1.98,6.58v13.79H518z"/>
	<path class="st1" d="M544.29,212.28l4.16,0.62c0.17,1.28,0.66,2.22,1.45,2.81c1.06,0.79,2.51,1.19,4.35,1.19
		c1.98,0,3.51-0.4,4.59-1.19c1.08-0.79,1.81-1.9,2.19-3.33c0.22-0.87,0.32-2.7,0.31-5.49c-1.87,2.2-4.2,3.3-6.99,3.3
		c-3.47,0-6.16-1.25-8.06-3.76c-1.9-2.5-2.85-5.51-2.85-9.01c0-2.41,0.44-4.63,1.31-6.67c0.87-2.04,2.14-3.61,3.79-4.72
		c1.66-1.11,3.6-1.66,5.84-1.66c2.98,0,5.44,1.2,7.37,3.61v-3.04h3.95v21.82c0,3.93-0.4,6.72-1.2,8.36c-0.8,1.64-2.07,2.94-3.8,3.89
		c-1.74,0.95-3.87,1.43-6.41,1.43c-3.01,0-5.44-0.68-7.3-2.03C545.12,217.05,544.23,215.01,544.29,212.28z M547.83,197.12
		c0,3.31,0.66,5.73,1.97,7.25c1.32,1.52,2.96,2.28,4.94,2.28c1.96,0,3.61-0.76,4.94-2.27c1.33-1.51,2-3.89,2-7.12
		c0-3.09-0.69-5.42-2.06-6.99c-1.37-1.57-3.02-2.35-4.96-2.35c-1.9,0-3.52,0.77-4.85,2.32C548.5,191.78,547.83,194.07,547.83,197.12
		z"/>
	<path class="st1" d="M570.44,202.66l4.23-0.67c0.24,1.7,0.9,3,1.99,3.9c1.08,0.9,2.6,1.35,4.55,1.35c1.96,0,3.42-0.4,4.37-1.2
		c0.95-0.8,1.43-1.74,1.43-2.82c0-0.97-0.42-1.73-1.26-2.28c-0.59-0.38-2.04-0.86-4.37-1.45c-3.14-0.79-5.31-1.48-6.53-2.06
		c-1.21-0.58-2.13-1.38-2.76-2.4c-0.63-1.02-0.94-2.15-0.94-3.39c0-1.12,0.26-2.17,0.77-3.13c0.51-0.96,1.22-1.75,2.1-2.39
		c0.67-0.49,1.57-0.91,2.72-1.25c1.15-0.34,2.38-0.51,3.7-0.51c1.98,0,3.72,0.29,5.22,0.86c1.5,0.57,2.6,1.34,3.32,2.32
		s1.2,2.28,1.47,3.91l-4.18,0.57c-0.19-1.3-0.74-2.31-1.65-3.04c-0.91-0.73-2.2-1.09-3.86-1.09c-1.96,0-3.37,0.32-4.21,0.97
		s-1.26,1.41-1.26,2.28c0,0.56,0.17,1.05,0.52,1.5c0.35,0.46,0.89,0.84,1.64,1.14c0.43,0.16,1.69,0.52,3.78,1.09
		c3.03,0.81,5.14,1.47,6.33,1.98c1.2,0.52,2.13,1.26,2.82,2.25c0.68,0.98,1.02,2.2,1.02,3.66c0,1.43-0.42,2.77-1.25,4.03
		c-0.83,1.26-2.03,2.23-3.6,2.92c-1.57,0.69-3.34,1.03-5.32,1.03c-3.28,0-5.78-0.68-7.5-2.04
		C572.01,207.35,570.92,205.33,570.44,202.66z"/>
</g>
<g>
	<path class="st1" d="M46.98,220.44c-10.61,0-19.65-3.48-27.19-9.69c-3.86-3.18-4.72-8.75-1.99-12.95l0.29-0.44
		c2.96-4.54,9.08-5.87,13.58-2.86c4.98,3.33,9.98,4.99,14.14,4.99c7.62,0,12.3-4.69,12.3-13.47V88.34c0-5.42-4.39-9.81-9.81-9.81
		H32.63c-5.42,0-9.81-4.39-9.81-9.81l0,0c0-5.42,4.39-9.81,9.81-9.81h38.95c5.42,0,9.81,4.39,9.81,9.81v117.89
		C81.39,208.14,68.21,220.44,46.98,220.44z"/>
	<path class="st1" d="M166.77,142.52h-47.44l-5.31,13.13c-1.66,4.1-5.64,6.79-10.06,6.79l0,0c-7.82,0-13.07-8.01-9.96-15.18
		l35.09-80.79c1.72-3.97,5.63-6.53,9.96-6.53h9.58c4.35,0,8.28,2.59,9.98,6.59l34.51,80.79c3.06,7.16-2.2,15.12-9.98,15.12h-0.99
		c-4.42,0-8.41-2.68-10.06-6.79L166.77,142.52z M159.3,123.92l-16.11-39.83l-16.25,39.83H159.3z"/>
	<path class="st1" d="M242.78,73.22l25.18,49.67l24.91-49.59c4.12-8.2,12.51-13.38,21.69-13.38h0.26c5.74,0,10.4,4.65,10.4,10.4
		v81.71c0,5.74-4.65,10.4-10.4,10.4l0,0c-5.74,0-10.4-4.65-10.4-10.4V93.17l-26.28,53.08c-1.75,3.54-5.36,5.78-9.32,5.78h-2.04
		c-3.95,0-7.55-2.23-9.31-5.77l-26.42-53.1v58.87c0,5.74-4.65,10.4-10.4,10.4l0,0c-5.74,0-10.4-4.65-10.4-10.4V70.32
		c0-5.74,4.65-10.4,10.4-10.4h0.47C230.27,59.93,238.64,65.07,242.78,73.22z"/>
	<path class="st1" d="M549.97,76.62c-7.76,0-13.03,2.93-13.03,8.64c0,19.33,54.62,8.64,54.47,45.98c0,20.21-17.43,31.19-40.12,31.19
		c-13.44,0-26.88-4.1-37.64-10.82c-4.5-2.81-6.15-8.57-3.82-13.33l0,0c2.67-5.47,9.47-7.47,14.67-4.3c9,5.47,19.14,8.69,27.08,8.69
		c9.52,0,15.23-3.66,15.23-10.25c0-19.77-54.62-8.2-54.62-45.1c0-18.74,15.96-30.61,39.69-30.61c10.41,0,20.81,2.39,29.66,6.27
		c5.3,2.33,7.63,8.59,5.19,13.84l-0.26,0.56c-2.38,5.11-8.42,7.38-13.57,5.09C564.49,78.74,555.97,76.62,549.97,76.62z"/>
	<g>
		<path class="st1" d="M484.5,101.96l13.66-2.52c1.15-6.18,1.54-12.37,1.19-18.44l-13.25-4.22c-0.37-2.74-0.91-5.44-1.63-8.08
			l10.56-9c-2.07-5.83-4.83-11.39-8.22-16.56l-13.56,2.97c-1.68-2.18-3.48-4.24-5.44-6.2l4.65-13.07c-4.64-3.97-9.8-7.41-15.4-10.22
			l-10.25,9.35c-1.87-0.76-3.79-1.45-5.75-2.05c-0.68-0.21-1.37-0.38-2.04-0.57L436.5,9.69c-6.19-1.15-12.37-1.54-18.44-1.19
			l-4.22,13.25c-2.73,0.37-5.43,0.91-8.07,1.63l-9-10.56c-5.83,2.07-11.39,4.83-16.56,8.22l2.97,13.57
			c-2.17,1.67-4.24,3.48-6.19,5.43l-13.08-4.64c-3.96,4.63-7.4,9.79-10.22,15.4l9.35,10.25c-0.77,1.87-1.45,3.78-2.05,5.76
			c-0.21,0.68-0.38,1.36-0.56,2.05l-13.67,2.52c-1.15,6.18-1.54,12.37-1.19,18.44l13.25,4.21c0.37,2.73,0.91,5.43,1.63,8.07
			l-10.56,9c1.85,5.22,4.26,10.22,7.18,14.92c0.35-0.14,0.7-0.28,1.05-0.42c1.9-0.74,3.81-1.42,5.73-2.08
			c7.35-2.52,12.66-9.05,13.49-16.77c0.26-2.4,0.3-4.84,0.24-7.21c0-0.01,0-0.01,0-0.02c-0.03-1.03-0.19-2.05-0.45-3.04
			c-1.11-4.35-2.13-8.94-2.96-13.66c0.01-0.12,0.02-0.22,0.04-0.33c-2.26-9.19-0.46-19.75,5.79-28.65
			c10.79-15.38,30.73-19.99,44.53-10.3c6.89,4.83,10.94,12.31,11.94,20.5c8.04-1.85,16.45-0.57,23.34,4.26
			c13.8,9.69,16.24,30,5.45,45.38c-1.52,2.16-3.22,4.1-5.05,5.83c-7.52,5.82-18.27,9.05-29.14,10.78
			c-5.53,0.88-10.51,3.98-13.51,8.71c-0.02,0.03-0.04,0.07-0.06,0.1c-4.32,6.9-5.4,15.02-3.91,22.8c4.47,0.53,8.92,0.67,13.31,0.42
			l4.22-13.25c2.73-0.38,5.43-0.91,8.07-1.63L448.2,158c5.83-2.07,11.39-4.83,16.56-8.22l-2.97-13.56c2.17-1.68,4.24-3.49,6.19-5.44
			l13.07,4.65c3.97-4.64,7.4-9.79,10.22-15.4l-9.34-10.25c0.76-1.87,1.45-3.79,2.05-5.76C484.15,103.32,484.32,102.64,484.5,101.96z
			"/>
		<path class="st1" d="M448.29,79.36c-5.22,6.32-10.03,12.92-14.53,19.77c-5.97-0.07-12.02-0.23-17.99-0.3
			c-2.64-6.24-5.29-12.49-7.93-18.73c5.36-6.56,11.14-12.63,16.34-19.32c-11.19-0.74-23.26,4.1-29.99,13.07
			c-6.73,8.97-7.54,22.38-0.84,31.38c2.69,3.62-6.27,12.09-8.26,14.64c-4.14,5.29-8.25,10.6-12.33,15.95
			c-2.82,3.7-6.75,7.33-2.49,11.76c2.74,2.85,5.59,5.6,8.75,7.98c0.97,0.73,2.03,1.46,3.25,1.59c2.64,0.29,4.9-3.55,6.31-5.28
			c2.23-2.73,4.38-5.53,6.52-8.33c4.18-5.48,8.32-11,12.9-16.15c1.28-1.44,3.02-4.23,4.81-5.07c0.04-0.02,0.07-0.03,0.11-0.05
			c1.77-0.76,4.06-0.09,5.95-0.11c9.12-0.12,18.2-4.19,24.17-11.13C450.35,102.5,452.05,89.94,448.29,79.36z"/>
	</g>
</g>
</svg>
