<?xml version="1.0" encoding="utf-8"?>
<!-- Generator: Adobe Illustrator 28.4.1, SVG Export Plug-In . SVG Version: 6.00 Build 0)  -->
<svg version="1.1" id="Layer_1" xmlns="http://www.w3.org/2000/svg" xmlns:xlink="http://www.w3.org/1999/xlink" x="0px" y="0px"
	 viewBox="0 0 616.9 265.9" style="enable-background:new 0 0 616.9 265.9;" xml:space="preserve">
<style type="text/css">
	.st0{fill:#EE4267;}
</style>
<g>
	<path class="st0" d="M87.8,220l0.8-3.6c0.9,0.2,1.5,0.3,2,0.3c0.9,0,1.5-0.3,1.9-0.9s0.6-2,0.6-4.3v-26.5h4.3v26.6
		c0,3.1-0.4,5.3-1.2,6.5c-1,1.6-2.7,2.4-5.1,2.4C90,220.4,88.8,220.3,87.8,220z M93.2,180.3v-5h4.3v5H93.2z"/>
	<path class="st0" d="M120.6,210.2v-3.7c-2,2.9-4.6,4.3-8,4.3c-1.5,0-2.9-0.3-4.2-0.9s-2.2-1.3-2.9-2.1s-1.1-1.9-1.3-3.2
		c-0.2-0.8-0.3-2.2-0.3-4v-15.6h4.3v14c0,2.2,0.1,3.7,0.3,4.5c0.3,1.1,0.8,2,1.7,2.6s1.9,1,3.2,1s2.5-0.3,3.6-1s1.9-1.6,2.4-2.7
		c0.5-1.1,0.7-2.8,0.7-4.9v-13.5h4.3v25.2H120.6z"/>
	<path class="st0" d="M129.4,202.7l4.2-0.7c0.2,1.7,0.9,3,2,3.9c1.1,0.9,2.6,1.4,4.6,1.4c2,0,3.4-0.4,4.4-1.2s1.4-1.7,1.4-2.8
		c0-1-0.4-1.7-1.3-2.3c-0.6-0.4-2-0.9-4.4-1.4c-3.1-0.8-5.3-1.5-6.5-2.1c-1.2-0.6-2.1-1.4-2.8-2.4c-0.6-1-0.9-2.1-0.9-3.4
		c0-1.1,0.3-2.2,0.8-3.1c0.5-1,1.2-1.8,2.1-2.4c0.7-0.5,1.6-0.9,2.7-1.2s2.4-0.5,3.7-0.5c2,0,3.7,0.3,5.2,0.9s2.6,1.3,3.3,2.3
		c0.7,1,1.2,2.3,1.5,3.9l-4.2,0.6c-0.2-1.3-0.7-2.3-1.6-3c-0.9-0.7-2.2-1.1-3.9-1.1c-2,0-3.4,0.3-4.2,1c-0.8,0.6-1.3,1.4-1.3,2.3
		c0,0.6,0.2,1.1,0.5,1.5c0.4,0.5,0.9,0.8,1.6,1.1c0.4,0.2,1.7,0.5,3.8,1.1c3,0.8,5.1,1.5,6.3,2c1.2,0.5,2.1,1.3,2.8,2.2
		c0.7,1,1,2.2,1,3.7c0,1.4-0.4,2.8-1.2,4s-2,2.2-3.6,2.9s-3.3,1-5.3,1c-3.3,0-5.8-0.7-7.5-2C131,207.4,129.9,205.3,129.4,202.7z"/>
	<path class="st0" d="M164.8,206.4l0.6,3.8c-1.2,0.2-2.3,0.4-3.2,0.4c-1.6,0-2.8-0.2-3.6-0.7c-0.9-0.5-1.5-1.1-1.8-1.9
		c-0.4-0.8-0.5-2.5-0.5-5.1v-14.5h-3.1v-3.3h3.1v-6.2l4.2-2.6v8.8h4.3v3.3h-4.3V203c0,1.2,0.1,2,0.2,2.4s0.4,0.6,0.7,0.8
		c0.3,0.2,0.8,0.3,1.5,0.3C163.4,206.5,164,206.5,164.8,206.4z"/>
	<path class="st0" d="M199,207.1c-1.6,1.4-3.1,2.3-4.6,2.9s-3,0.8-4.7,0.8c-2.8,0-4.9-0.7-6.4-2c-1.5-1.4-2.2-3.1-2.2-5.2
		c0-1.2,0.3-2.4,0.8-3.4s1.3-1.8,2.2-2.5c0.9-0.6,1.9-1.1,3.1-1.4c0.8-0.2,2.1-0.4,3.8-0.6c3.5-0.4,6-0.9,7.6-1.5c0-0.6,0-1,0-1.1
		c0-1.7-0.4-3-1.2-3.7c-1.1-1-2.7-1.4-4.9-1.4c-2,0-3.5,0.4-4.5,1.1s-1.7,1.9-2.1,3.7l-4.2-0.6c0.4-1.8,1-3.2,1.9-4.3
		c0.9-1.1,2.1-1.9,3.8-2.5s3.6-0.9,5.7-0.9c2.2,0,3.9,0.2,5.2,0.8c1.4,0.5,2.3,1.1,3,1.9c0.6,0.8,1.1,1.7,1.3,2.9
		c0.1,0.7,0.2,2,0.2,3.9v5.7c0,4,0.1,6.5,0.3,7.6c0.2,1.1,0.5,2.1,1.1,3h-4.5C199.4,209.3,199.1,208.3,199,207.1z M198.6,197.5
		c-1.6,0.6-3.9,1.2-7,1.6c-1.8,0.2-3,0.5-3.7,0.9s-1.3,0.8-1.7,1.4c-0.4,0.6-0.6,1.3-0.6,2c0,1.1,0.4,2.1,1.3,2.9s2.1,1.1,3.8,1.1
		c1.6,0,3.1-0.4,4.4-1.1s2.2-1.7,2.8-3c0.5-1,0.7-2.4,0.7-4.3L198.6,197.5L198.6,197.5z"/>
	<path class="st0" d="M223.1,210.2v-25.2h3.8v3.5c0.8-1.2,1.9-2.2,3.2-3c1.3-0.8,2.8-1.1,4.5-1.1c1.9,0,3.4,0.4,4.6,1.2
		c1.2,0.8,2,1.9,2.5,3.3c2-2.9,4.6-4.4,7.8-4.4c2.5,0,4.4,0.7,5.8,2.1c1.3,1.4,2,3.5,2,6.4v17.3h-4.2v-15.9c0-1.7-0.1-2.9-0.4-3.7
		c-0.3-0.8-0.8-1.4-1.5-1.8s-1.6-0.7-2.6-0.7c-1.8,0-3.2,0.6-4.4,1.8c-1.2,1.2-1.8,3.1-1.8,5.7v14.7h-4.3v-16.4
		c0-1.9-0.4-3.3-1.1-4.3s-1.8-1.4-3.4-1.4c-1.2,0-2.3,0.3-3.3,0.9c-1,0.6-1.8,1.6-2.2,2.8s-0.7,3-0.7,5.3v13.1L223.1,210.2
		L223.1,210.2z"/>
	<path class="st0" d="M280.1,207.1c-1.6,1.4-3.1,2.3-4.6,2.9s-3,0.8-4.7,0.8c-2.8,0-4.9-0.7-6.4-2c-1.5-1.4-2.2-3.1-2.2-5.2
		c0-1.2,0.3-2.4,0.8-3.4s1.3-1.8,2.2-2.5c0.9-0.6,1.9-1.1,3.1-1.4c0.8-0.2,2.1-0.4,3.8-0.6c3.5-0.4,6-0.9,7.6-1.5c0-0.6,0-1,0-1.1
		c0-1.7-0.4-3-1.2-3.7c-1.1-1-2.7-1.4-4.9-1.4c-2,0-3.5,0.4-4.5,1.1s-1.7,1.9-2.1,3.7l-4.2-0.6c0.4-1.8,1-3.2,1.9-4.3
		c0.9-1.1,2.1-1.9,3.8-2.5s3.6-0.9,5.7-0.9c2.2,0,3.9,0.2,5.2,0.8c1.4,0.5,2.3,1.1,3,1.9c0.6,0.8,1.1,1.7,1.3,2.9
		c0.1,0.7,0.2,2,0.2,3.9v5.7c0,4,0.1,6.5,0.3,7.6c0.2,1.1,0.5,2.1,1.1,3H281C280.5,209.3,280.2,208.3,280.1,207.1z M279.8,197.5
		c-1.5,0.6-3.9,1.2-7,1.6c-1.8,0.2-3,0.5-3.7,0.9s-1.3,0.8-1.7,1.4s-0.6,1.3-0.6,2c0,1.1,0.4,2.1,1.3,2.9s2.1,1.1,3.8,1.1
		c1.6,0,3.1-0.4,4.4-1.1s2.2-1.7,2.8-3c0.5-1,0.7-2.4,0.7-4.3L279.8,197.5L279.8,197.5z"/>
	<path class="st0" d="M300.1,206.4l0.6,3.8c-1.2,0.2-2.3,0.4-3.2,0.4c-1.5,0-2.8-0.2-3.6-0.7c-0.9-0.5-1.5-1.1-1.8-1.9
		s-0.5-2.5-0.5-5.1v-14.5h-3.1v-3.3h3.1v-6.2l4.2-2.6v8.8h4.3v3.3h-4.3V203c0,1.2,0.1,2,0.2,2.4c0.1,0.4,0.4,0.6,0.7,0.8
		c0.3,0.2,0.8,0.3,1.5,0.3C298.7,206.5,299.3,206.5,300.1,206.4z"/>
	<path class="st0" d="M313.6,206.4l0.6,3.8c-1.2,0.2-2.3,0.4-3.2,0.4c-1.5,0-2.8-0.2-3.6-0.7c-0.9-0.5-1.5-1.1-1.8-1.9
		s-0.5-2.5-0.5-5.1v-14.5h-3.1v-3.3h3.1v-6.2l4.2-2.6v8.8h4.3v3.3h-4.3V203c0,1.2,0.1,2,0.2,2.4c0.1,0.4,0.4,0.6,0.7,0.8
		c0.3,0.2,0.8,0.3,1.5,0.3C312.2,206.5,312.8,206.5,313.6,206.4z"/>
	<path class="st0" d="M335.1,202.1l4.4,0.6c-0.7,2.6-2,4.6-3.9,6c-1.9,1.4-4.3,2.1-7.2,2.1c-3.7,0-6.6-1.1-8.8-3.4s-3.2-5.5-3.2-9.6
		c0-4.2,1.1-7.5,3.3-9.9s5-3.5,8.5-3.5c3.4,0,6.1,1.1,8.3,3.4c2.1,2.3,3.2,5.5,3.2,9.7c0,0.2,0,0.6,0,1.1h-18.8
		c0.2,2.8,0.9,4.9,2.4,6.4s3.2,2.2,5.3,2.2c1.6,0,2.9-0.4,4-1.2S334.4,203.9,335.1,202.1z M321,195.1h14.1c-0.2-2.1-0.7-3.7-1.6-4.8
		c-1.4-1.6-3.1-2.5-5.3-2.5c-2,0-3.6,0.7-5,2C321.9,191.2,321.1,192.9,321,195.1z"/>
	<path class="st0" d="M344.8,210.2v-25.2h3.9v3.8c1-1.8,1.9-3,2.7-3.5s1.8-0.9,2.8-0.9c1.4,0,2.9,0.5,4.4,1.4l-1.5,4
		c-1-0.6-2.1-0.9-3.1-0.9c-0.9,0-1.8,0.3-2.5,0.8s-1.3,1.3-1.6,2.3c-0.5,1.5-0.7,3.2-0.7,5v13.2L344.8,210.2L344.8,210.2z"/>
	<path class="st0" d="M373,197.6c0-4.7,1.3-8.1,3.9-10.4c2.2-1.9,4.8-2.8,7.9-2.8c3.5,0,6.3,1.1,8.5,3.4s3.3,5.4,3.3,9.4
		c0,3.2-0.5,5.8-1.5,7.7c-1,1.9-2.4,3.3-4.3,4.3s-3.9,1.5-6.1,1.5c-3.5,0-6.4-1.1-8.6-3.4C374.1,205.1,373,201.8,373,197.6z
		 M377.4,197.6c0,3.2,0.7,5.6,2.1,7.3s3.2,2.4,5.3,2.4c2.1,0,3.9-0.8,5.3-2.4c1.4-1.6,2.1-4.1,2.1-7.4c0-3.1-0.7-5.5-2.1-7.1
		s-3.2-2.4-5.3-2.4c-2.1,0-3.9,0.8-5.3,2.4C378.1,191.9,377.4,194.3,377.4,197.6z"/>
	<path class="st0" d="M402.7,210.2v-21.9h-3.8v-3.3h3.8v-2.7c0-1.7,0.1-3,0.5-3.8c0.4-1.1,1.1-2,2.2-2.7s2.5-1,4.4-1
		c1.2,0,2.5,0.1,4,0.4l-0.6,3.7c-0.9-0.2-1.7-0.2-2.5-0.2c-1.3,0-2.2,0.3-2.8,0.8c-0.5,0.6-0.8,1.6-0.8,3.1v2.3h4.9v3.3h-4.9v21.9
		L402.7,210.2L402.7,210.2z"/>
	<path class="st0" d="M427,202.7l4.2-0.7c0.2,1.7,0.9,3,2,3.9c1.1,0.9,2.6,1.4,4.5,1.4c2,0,3.4-0.4,4.4-1.2c1-0.8,1.4-1.7,1.4-2.8
		c0-1-0.4-1.7-1.3-2.3c-0.6-0.4-2-0.9-4.4-1.4c-3.1-0.8-5.3-1.5-6.5-2.1c-1.2-0.6-2.1-1.4-2.8-2.4c-0.6-1-0.9-2.1-0.9-3.4
		c0-1.1,0.3-2.2,0.8-3.1c0.5-1,1.2-1.8,2.1-2.4c0.7-0.5,1.6-0.9,2.7-1.2s2.4-0.5,3.7-0.5c2,0,3.7,0.3,5.2,0.9s2.6,1.3,3.3,2.3
		s1.2,2.3,1.5,3.9l-4.2,0.6c-0.2-1.3-0.7-2.3-1.6-3s-2.2-1.1-3.9-1.1c-2,0-3.4,0.3-4.2,1s-1.3,1.4-1.3,2.3c0,0.6,0.2,1.1,0.5,1.5
		c0.4,0.5,0.9,0.8,1.6,1.1c0.4,0.2,1.7,0.5,3.8,1.1c3,0.8,5.1,1.5,6.3,2c1.2,0.5,2.1,1.3,2.8,2.2c0.7,1,1,2.2,1,3.7
		c0,1.4-0.4,2.8-1.2,4s-2,2.2-3.6,2.9s-3.3,1-5.3,1c-3.3,0-5.8-0.7-7.5-2C428.6,207.4,427.5,205.3,427,202.7z"/>
	<path class="st0" d="M470.3,202.1l4.4,0.6c-0.7,2.6-2,4.6-3.9,6c-1.9,1.4-4.3,2.1-7.2,2.1c-3.7,0-6.6-1.1-8.8-3.4s-3.2-5.5-3.2-9.6
		c0-4.2,1.1-7.5,3.3-9.9s5-3.5,8.5-3.5c3.4,0,6.1,1.1,8.3,3.4s3.2,5.5,3.2,9.7c0,0.2,0,0.6,0,1.1h-18.8c0.2,2.8,0.9,4.9,2.4,6.4
		s3.2,2.2,5.3,2.2c1.6,0,2.9-0.4,4-1.2C468.8,205.2,469.7,203.9,470.3,202.1z M456.3,195.1h14.1c-0.2-2.1-0.7-3.7-1.6-4.8
		c-1.4-1.6-3.1-2.5-5.3-2.5c-2,0-3.6,0.7-5,2C457.2,191.2,456.4,192.9,456.3,195.1z"/>
	<path class="st0" d="M489.5,206.4l0.6,3.8c-1.2,0.2-2.3,0.4-3.2,0.4c-1.5,0-2.8-0.2-3.6-0.7c-0.9-0.5-1.5-1.1-1.8-1.9
		s-0.5-2.5-0.5-5.1v-14.5h-3.1v-3.3h3.1v-6.2l4.3-2.6v8.8h4.3v3.3h-4.3V203c0,1.2,0.1,2,0.2,2.4c0.1,0.4,0.4,0.6,0.7,0.8
		s0.8,0.3,1.5,0.3C488.1,206.5,488.7,206.5,489.5,206.4z"/>
	<path class="st0" d="M503,206.4l0.6,3.8c-1.2,0.2-2.3,0.4-3.2,0.4c-1.5,0-2.8-0.2-3.6-0.7c-0.9-0.5-1.5-1.1-1.8-1.9
		s-0.5-2.5-0.5-5.1v-14.5h-3.1v-3.3h3.1v-6.2l4.3-2.6v8.8h4.3v3.3h-4.3V203c0,1.2,0.1,2,0.2,2.4c0.1,0.4,0.4,0.6,0.7,0.8
		s0.8,0.3,1.5,0.3C501.6,206.5,502.2,206.5,503,206.4z"/>
	<path class="st0" d="M507.2,180.3v-4.9h4.3v4.9H507.2z M507.2,210.2v-25.2h4.3v25.2H507.2z"/>
	<path class="st0" d="M518,210.2v-25.2h3.8v3.6c1.8-2.8,4.5-4.2,8-4.2c1.5,0,2.9,0.3,4.2,0.8s2.2,1.3,2.9,2.1
		c0.6,0.9,1.1,1.9,1.3,3.2c0.2,0.8,0.2,2.2,0.2,4.2v15.5h-4.3v-15.4c0-1.7-0.2-3.1-0.5-3.9s-0.9-1.6-1.8-2.1c-0.8-0.5-1.8-0.8-3-0.8
		c-1.8,0-3.4,0.6-4.7,1.7c-1.3,1.2-2,3.4-2,6.6v13.8L518,210.2L518,210.2z"/>
	<path class="st0" d="M544.3,212.3l4.2,0.6c0.2,1.3,0.7,2.2,1.5,2.8c1.1,0.8,2.5,1.2,4.3,1.2c2,0,3.5-0.4,4.6-1.2
		c1.1-0.8,1.8-1.9,2.2-3.3c0.2-0.9,0.3-2.7,0.3-5.5c-1.9,2.2-4.2,3.3-7,3.3c-3.5,0-6.2-1.2-8.1-3.8c-1.9-2.5-2.8-5.5-2.8-9
		c0-2.4,0.4-4.6,1.3-6.7s2.1-3.6,3.8-4.7c1.7-1.1,3.6-1.7,5.8-1.7c3,0,5.4,1.2,7.4,3.6v-3h4v21.8c0,3.9-0.4,6.7-1.2,8.4
		s-2.1,2.9-3.8,3.9c-1.7,0.9-3.9,1.4-6.4,1.4c-3,0-5.4-0.7-7.3-2C545.1,217.1,544.2,215,544.3,212.3z M547.8,197.1
		c0,3.3,0.7,5.7,2,7.2c1.3,1.5,3,2.3,4.9,2.3c2,0,3.6-0.8,4.9-2.3c1.3-1.5,2-3.9,2-7.1c0-3.1-0.7-5.4-2.1-7s-3-2.4-5-2.4
		c-1.9,0-3.5,0.8-4.8,2.3C548.5,191.8,547.8,194.1,547.8,197.1z"/>
	<path class="st0" d="M570.4,202.7l4.2-0.7c0.2,1.7,0.9,3,2,3.9c1.1,0.9,2.6,1.4,4.5,1.4c2,0,3.4-0.4,4.4-1.2s1.4-1.7,1.4-2.8
		c0-1-0.4-1.7-1.3-2.3c-0.6-0.4-2-0.9-4.4-1.4c-3.1-0.8-5.3-1.5-6.5-2.1c-1.2-0.6-2.1-1.4-2.8-2.4c-0.6-1-0.9-2.1-0.9-3.4
		c0-1.1,0.3-2.2,0.8-3.1s1.2-1.8,2.1-2.4c0.7-0.5,1.6-0.9,2.7-1.2c1.2-0.3,2.4-0.5,3.7-0.5c2,0,3.7,0.3,5.2,0.9s2.6,1.3,3.3,2.3
		s1.2,2.3,1.5,3.9l-4.2,0.6c-0.2-1.3-0.7-2.3-1.7-3c-0.9-0.7-2.2-1.1-3.9-1.1c-2,0-3.4,0.3-4.2,1s-1.3,1.4-1.3,2.3
		c0,0.6,0.2,1.1,0.5,1.5c0.3,0.5,0.9,0.8,1.6,1.1c0.4,0.2,1.7,0.5,3.8,1.1c3,0.8,5.1,1.5,6.3,2c1.2,0.5,2.1,1.3,2.8,2.2
		c0.7,1,1,2.2,1,3.7c0,1.4-0.4,2.8-1.2,4s-2,2.2-3.6,2.9c-1.6,0.7-3.3,1-5.3,1c-3.3,0-5.8-0.7-7.5-2
		C572,207.4,570.9,205.3,570.4,202.7z"/>
</g>
<g>
	<path class="st0" d="M47,220.4c-10.6,0-19.6-3.5-27.2-9.7c-3.9-3.2-4.7-8.8-2-12.9l0.3-0.4c3-4.5,9.1-5.9,13.6-2.9
		c5,3.3,10,5,14.1,5c7.6,0,12.3-4.7,12.3-13.5V88.3c0-5.4-4.4-9.8-9.8-9.8H32.6c-5.4,0-9.8-4.4-9.8-9.8l0,0c0-5.4,4.4-9.8,9.8-9.8
		h39c5.4,0,9.8,4.4,9.8,9.8v117.9C81.4,208.1,68.2,220.4,47,220.4z"/>
	<path class="st0" d="M166.8,142.5h-47.4l-5.3,13.1c-1.7,4.1-5.6,6.8-10.1,6.8l0,0c-7.8,0-13.1-8-10-15.2l35.1-80.8
		c1.7-4,5.6-6.5,10-6.5h9.6c4.4,0,8.3,2.6,10,6.6l34.5,80.8c3.1,7.2-2.2,15.1-10,15.1h-1c-4.4,0-8.4-2.7-10.1-6.8L166.8,142.5z
		 M159.3,123.9l-16.1-39.8l-16.2,39.8H159.3z"/>
	<path class="st0" d="M242.8,73.2l25.2,49.7l24.9-49.6c4.1-8.2,12.5-13.4,21.7-13.4h0.3c5.7,0,10.4,4.6,10.4,10.4V152
		c0,5.7-4.6,10.4-10.4,10.4l0,0c-5.7,0-10.4-4.6-10.4-10.4V93.2l-26.3,53.1c-1.8,3.5-5.4,5.8-9.3,5.8h-2c-4,0-7.5-2.2-9.3-5.8
		l-26.4-53.1V152c0,5.7-4.6,10.4-10.4,10.4l0,0c-5.7,0-10.4-4.6-10.4-10.4V70.3c0-5.7,4.6-10.4,10.4-10.4h0.5
		C230.3,59.9,238.6,65.1,242.8,73.2z"/>
	<path class="st0" d="M550,76.6c-7.8,0-13,2.9-13,8.6c0,19.3,54.6,8.6,54.5,46c0,20.2-17.4,31.2-40.1,31.2
		c-13.4,0-26.9-4.1-37.6-10.8c-4.5-2.8-6.1-8.6-3.8-13.3l0,0c2.7-5.5,9.5-7.5,14.7-4.3c9,5.5,19.1,8.7,27.1,8.7
		c9.5,0,15.2-3.7,15.2-10.2c0-19.8-54.6-8.2-54.6-45.1c0-18.7,16-30.6,39.7-30.6c10.4,0,20.8,2.4,29.7,6.3c5.3,2.3,7.6,8.6,5.2,13.8
		l-0.3,0.6c-2.4,5.1-8.4,7.4-13.6,5.1C564.5,78.7,556,76.6,550,76.6z"/>
	<g>
		<path class="st0" d="M484.5,102l13.7-2.5c1.1-6.2,1.5-12.4,1.2-18.4l-13.2-4.2c-0.4-2.7-0.9-5.4-1.6-8.1l10.6-9
			c-2.1-5.8-4.8-11.4-8.2-16.6l-13.6,3c-1.7-2.2-3.5-4.2-5.4-6.2l4.6-13.1c-4.6-4-9.8-7.4-15.4-10.2L446.8,26
			c-1.9-0.8-3.8-1.5-5.8-2c-0.7-0.2-1.4-0.4-2-0.6l-2.5-13.7c-6.2-1.1-12.4-1.5-18.4-1.2l-4.2,13.3c-2.7,0.4-5.4,0.9-8.1,1.6
			l-9-10.6c-5.8,2.1-11.4,4.8-16.6,8.2l3,13.6c-2.2,1.7-4.2,3.5-6.2,5.4l-13.1-4.6c-4,4.6-7.4,9.8-10.2,15.4L363,61
			c-0.8,1.9-1.5,3.8-2,5.8c-0.2,0.7-0.4,1.4-0.6,2.1l-13.7,2.5c-1.1,6.2-1.5,12.4-1.2,18.4l13.2,4.2c0.4,2.7,0.9,5.4,1.6,8.1
			l-10.6,9c1.9,5.2,4.3,10.2,7.2,14.9c0.4-0.1,0.7-0.3,1-0.4c1.9-0.7,3.8-1.4,5.7-2.1c7.4-2.5,12.7-9.1,13.5-16.8
			c0.3-2.4,0.3-4.8,0.2-7.2c0,0,0,0,0,0c0-1-0.2-2.1-0.5-3c-1.1-4.3-2.1-8.9-3-13.7c0-0.1,0-0.2,0-0.3c-2.3-9.2-0.5-19.7,5.8-28.6
			c10.8-15.4,30.7-20,44.5-10.3c6.9,4.8,10.9,12.3,11.9,20.5c8-1.8,16.5-0.6,23.3,4.3c13.8,9.7,16.2,30,5.5,45.4
			c-1.5,2.2-3.2,4.1-5,5.8c-7.5,5.8-18.3,9.1-29.1,10.8c-5.5,0.9-10.5,4-13.5,8.7c0,0,0,0.1-0.1,0.1c-4.3,6.9-5.4,15-3.9,22.8
			c4.5,0.5,8.9,0.7,13.3,0.4l4.2-13.2c2.7-0.4,5.4-0.9,8.1-1.6l9,10.6c5.8-2.1,11.4-4.8,16.6-8.2l-3-13.6c2.2-1.7,4.2-3.5,6.2-5.4
			l13.1,4.6c4-4.6,7.4-9.8,10.2-15.4l-9.3-10.2c0.8-1.9,1.5-3.8,2-5.8C484.1,103.3,484.3,102.6,484.5,102z"/>
		<path class="st0" d="M448.3,79.4c-5.2,6.3-10,12.9-14.5,19.8c-6-0.1-12-0.2-18-0.3c-2.6-6.2-5.3-12.5-7.9-18.7
			c5.4-6.6,11.1-12.6,16.3-19.3c-11.2-0.7-23.3,4.1-30,13.1c-6.7,9-7.5,22.4-0.8,31.4c2.7,3.6-6.3,12.1-8.3,14.6
			c-4.1,5.3-8.2,10.6-12.3,16c-2.8,3.7-6.8,7.3-2.5,11.8c2.7,2.9,5.6,5.6,8.8,8c1,0.7,2,1.5,3.2,1.6c2.6,0.3,4.9-3.6,6.3-5.3
			c2.2-2.7,4.4-5.5,6.5-8.3c4.2-5.5,8.3-11,12.9-16.2c1.3-1.4,3-4.2,4.8-5.1c0,0,0.1,0,0.1-0.1c1.8-0.8,4.1-0.1,6-0.1
			C428,122,437.1,118,443,111C450.4,102.5,452,89.9,448.3,79.4z"/>
	</g>
</g>
</svg>
