<?xml version="1.0" encoding="utf-8"?>
<!-- Generator: Adobe Illustrator 28.4.1, SVG Export Plug-In . SVG Version: 6.00 Build 0)  -->
<svg version="1.1" id="Layer_1" xmlns="http://www.w3.org/2000/svg" xmlns:xlink="http://www.w3.org/1999/xlink" x="0px" y="0px"
	 viewBox="0 0 598.8 384.2" style="enable-background:new 0 0 598.8 384.2;" xml:space="preserve">
<style type="text/css">
	.st0{fill:#E4DFEA;}
	.st1{fill:#EE4267;}
</style>
<g>
	<g>
		<path class="st0" d="M90.4,1.9v22.2H26.8v25.8h57.1v22.2H26.8v26.3h65.5v22.2H0V1.9H90.4z"/>
		<path class="st0" d="M186.2,120.6l-18.8-33.9h-2.5h-24.8v33.9h-26.8V1.9h51.5c31,0,48.7,14.9,48.7,41.2c0,18.3-7.8,31.5-22.2,38.3
			l25.3,39.2H186.2z M140.1,64.3h24.8c14.8,0,23.2-6.8,23.2-20.3c0-13.2-8.5-19.8-23.2-19.8h-24.8V64.3z"/>
		<path class="st0" d="M309,120.6l-18.8-33.9h-2.5h-24.8v33.9H236V1.9h51.5c31,0,48.7,14.9,48.7,41.2c0,18.3-7.8,31.5-22.2,38.3
			l25.3,39.2H309z M262.8,64.3h24.8c14.8,0,23.2-6.8,23.2-20.3c0-13.2-8.5-19.8-23.2-19.8h-24.8V64.3z"/>
		<path class="st0" d="M477.9,61c0,34.8-27.5,61.4-63.8,61.4c-36.3,0-63.8-26.5-63.8-61.4c0-34.9,27.5-61,63.8-61
			C450.4,0,477.9,26.3,477.9,61z M377.8,61c0,21.4,16.8,38,36.6,38s35.9-16.6,35.9-38c0-21.2-16.1-37.6-35.9-37.6
			C394.4,23.4,377.8,39.8,377.8,61z"/>
		<path class="st0" d="M568.4,120.6l-18.8-33.9H547h-24.8v33.9h-26.8V1.9H547c31,0,48.7,14.9,48.7,41.2c0,18.3-7.8,31.5-22.2,38.3
			l25.3,39.2H568.4z M522.3,64.3H547c14.8,0,23.2-6.8,23.2-20.3c0-13.2-8.5-19.8-23.2-19.8h-24.8V64.3z"/>
	</g>
	<g>
		<path class="st1" d="M175.7,313.2H146v49H101v-49H0v-34.4l66.3-133.6h46.5L50.5,273.8H101v-48H146v48h29.8V313.2z"/>
		<path class="st1" d="M598.4,311.5h-29.8v49h-44.9v-49h-101v-34.4L489,143.5h46.5l-62.3,128.6h50.5v-48h44.9v48h29.8V311.5z"/>
		<path class="st1" d="M390.4,276.8l20.4-4.6c1.4-9.4,1.6-18.7,0.7-27.9l-20.2-5.5c-0.7-4.1-1.7-8.1-3-12.1l15.4-14.2
			c-3.5-8.7-8-16.9-13.4-24.4l-20.3,5.3c-2.7-3.2-5.5-6.2-8.6-9l6.2-20c-7.2-5.7-15.2-10.6-23.8-14.5l-14.9,14.7
			c-2.9-1-5.8-2-8.8-2.7c-1-0.3-2.1-0.5-3.1-0.7l-4.6-20.4c-9.4-1.4-18.7-1.6-27.9-0.7l-5.5,20.2c-4.1,0.7-8.1,1.7-12.1,3
			l-14.2-15.4c-8.7,3.5-16.9,8-24.4,13.4l5.3,20.3c-3.2,2.6-6.2,5.5-9,8.6l-20-6.2c-5.7,7.2-10.6,15.2-14.5,23.8l14.7,14.9
			c-1,2.9-2,5.8-2.7,8.8c-0.3,1-0.5,2.1-0.7,3.1l-20.4,4.6c-1.3,9.4-1.6,18.7-0.7,27.9l20.2,5.5c0.7,4.1,1.7,8.1,3,12.1l-15.4,14.2
			c3.5,8.7,8,16.9,13.4,24.4l20.3-5.3c2.7,3.2,5.5,6.2,8.6,9l-6.2,20c7.2,5.7,15.2,10.5,23.8,14.5l14.9-14.7c2.9,1,5.8,2,8.8,2.7
			c1,0.3,2.1,0.5,3.1,0.7l4.6,20.4c9.4,1.4,18.7,1.6,27.9,0.7l5.5-20.2c4.1-0.7,8.1-1.7,12.1-3l14.2,15.4c8.7-3.5,16.9-8,24.4-13.4
			l-5.3-20.3c3.2-2.7,6.2-5.5,9-8.6l20,6.2c5.7-7.2,10.6-15.2,14.5-23.8l-14.7-14.9c1-2.9,2-5.8,2.7-8.8
			C389.9,278.9,390.1,277.9,390.4,276.8z M372,275.3c-10.9,42-53.7,67.3-95.8,56.5c-42-10.9-67.3-53.7-56.5-95.8
			c10.9-42,53.7-67.3,95.8-56.4C357.5,190.4,382.8,233.3,372,275.3z"/>
		<path class="st1" d="M413.4,369.4c0.1-0.2,0.3-0.3,0.4-0.5l8.4,1.9c0.6-1,1.1-1.9,1.5-2.9l-6.5-5.7c0.2-0.8,0.4-1.6,0.5-2.4
			l8.2-2.5c0-1.1-0.1-2.2-0.2-3.3l-8.5-1.6c-0.2-0.8-0.4-1.5-0.7-2.3l5.9-6.3c-0.5-0.9-1.1-1.9-1.8-2.7l-8.2,2.8
			c-0.4-0.4-0.9-0.8-1.3-1.2c-0.2-0.1-0.3-0.3-0.5-0.4l1.9-8.4c-1-0.6-1.9-1.1-2.9-1.5l-5.7,6.5c-0.8-0.2-1.6-0.4-2.4-0.5l-2.5-8.2
			c-1.1,0-2.2,0.1-3.3,0.2l-1.6,8.5c-0.8,0.2-1.5,0.4-2.3,0.7l-6.3-5.9c-0.9,0.5-1.9,1.1-2.7,1.8l2.8,8.2c-0.4,0.4-0.8,0.8-1.2,1.3
			c-0.1,0.2-0.3,0.3-0.4,0.5l-8.4-1.9c-0.6,1-1.1,1.9-1.5,2.9l6.5,5.6c-0.2,0.8-0.4,1.6-0.5,2.4l-8.2,2.5c0,1.1,0.1,2.2,0.2,3.3
			l8.5,1.6c0.2,0.8,0.4,1.5,0.7,2.3l-5.9,6.3c0.5,0.9,1.1,1.9,1.8,2.7l8.2-2.8c0.4,0.4,0.9,0.8,1.3,1.2c0.2,0.1,0.3,0.3,0.5,0.4
			l-1.9,8.4c1,0.6,1.9,1.1,2.9,1.5l5.7-6.5c0.8,0.2,1.6,0.4,2.4,0.5l2.5,8.2c1.1,0,2.2-0.1,3.3-0.2l1.6-8.5c0.8-0.2,1.5-0.4,2.3-0.7
			l6.3,5.9c0.9-0.5,1.9-1.1,2.7-1.8l-2.8-8.2C412.6,370.3,413,369.8,413.4,369.4z M408.9,365.5c-4.6,5.5-12.9,6.2-18.4,1.6
			c-5.5-4.6-6.2-12.9-1.6-18.4c4.6-5.5,12.9-6.2,18.4-1.6C412.8,351.8,413.5,360,408.9,365.5z"/>
	</g>
</g>
</svg>
